<?xml version="1.0" encoding="utf-8"?>
<!-- Generator: Adobe Illustrator 26.0.3, SVG Export Plug-In . SVG Version: 6.00 Build 0)  -->
<svg version="1.1" xmlns="http://www.w3.org/2000/svg" xmlns:xlink="http://www.w3.org/1999/xlink" x="0px" y="0px"
	 viewBox="0 0 750 500" style="enable-background:new 0 0 750 500;" xml:space="preserve">
<style type="text/css">
	.st0{fill:#056075;}
	.st1{fill:url(#SVGID_1_);}
	.st2{fill:url(#SVGID_00000000204333045974495910000006622611000343547829_);}
	.st3{fill:#197777;}
	.st4{fill:#52D6DD;}
	.st5{fill:url(#SVGID_00000103975541387445561970000003285857460437618083_);}
	.st6{fill:#002F47;}
	.st7{fill:url(#SVGID_00000165234731796049271620000006961035591247658636_);}
	.st8{fill:url(#SVGID_00000000189060668829539190000017603522977715490998_);}
	.st9{fill:url(#SVGID_00000076565367402681316400000009628731273486898620_);}
	.st10{fill:url(#SVGID_00000056397088356586644230000003305398565188783744_);}
	.st11{fill:url(#SVGID_00000165214091842834498510000008467906325349754781_);}
	.st12{fill:#0A4A63;}
	.st13{fill:url(#SVGID_00000068668396725034650410000008182200412254800004_);}
	.st14{fill:#0C5566;}
	.st15{fill:url(#SVGID_00000160876055249045002370000003417438750395754941_);}
	.st16{fill:url(#SVGID_00000178912375726861283840000009327424517133987718_);}
	.st17{fill:#07949F;}
	.st18{fill:url(#SVGID_00000107572241436126198580000001266023312901139135_);}
	.st19{fill:url(#SVGID_00000114049461568631940090000015140764235027891592_);}
	.st20{fill:url(#SVGID_00000136389751335393694560000017096473561169260478_);}
	.st21{fill:url(#SVGID_00000174560293004707705250000001567475176741178248_);}
	.st22{fill:#008696;}
	.st23{fill:url(#SVGID_00000146471797819611934280000013929332134754378133_);}
	.st24{fill:url(#SVGID_00000137124303885700063500000000556891533742819728_);}
	.st25{fill:url(#SVGID_00000031900422235295158670000013635291833011090355_);}
	.st26{fill:url(#SVGID_00000023960868668953977500000001034572427113061044_);}
	.st27{fill:url(#SVGID_00000085973075698598893290000008739229756766379174_);}
	.st28{fill:url(#SVGID_00000080909372867656925400000015739510065440684966_);}
	.st29{fill:url(#SVGID_00000183937075415261815880000001868580874391792528_);}
	.st30{fill:url(#SVGID_00000142896726222526787880000017793521244869682603_);}
	.st31{fill:#9CC1B2;}
	.st32{fill:url(#SVGID_00000090287133412562063980000006619343792680039571_);}
	.st33{fill:#85AA9A;}
	.st34{fill:url(#SVGID_00000145760734266749959510000017551674975795085448_);}
	.st35{fill:#C9DBBD;}
	.st36{fill:url(#SVGID_00000056422053616524979820000009839004637226590910_);}
	.st37{fill:url(#SVGID_00000057114988756102473490000010056636233358287241_);}
	.st38{fill:#EAAA2A;}
	.st39{fill:url(#SVGID_00000114773890776497324430000010713732642563565208_);}
	.st40{fill:url(#SVGID_00000063605555846025744120000017690634693658299827_);}
	.st41{fill:url(#SVGID_00000129890851171861560250000011445979221818659509_);}
	.st42{fill:url(#SVGID_00000067235826088086816120000009086475489416536765_);}
	.st43{fill:url(#SVGID_00000037694816296775388510000008047491344416851865_);}
	.st44{fill:url(#SVGID_00000034057269362156203460000015142989407308322948_);}
	.st45{fill:url(#SVGID_00000132063688445818302880000012606452006890474900_);}
	.st46{fill:#001322;}
	.st47{fill:url(#SVGID_00000157277593664161298570000017149126532630714753_);}
	.st48{fill:url(#SVGID_00000088828925265114457130000009656611476370950529_);}
	.st49{fill:url(#SVGID_00000031169509978059737520000005434300352465288579_);}
	.st50{fill:url(#SVGID_00000123402644733958045770000017372390690399487623_);}
	.st51{fill:url(#SVGID_00000053510018828690024050000005686755331171581057_);}
	.st52{fill:url(#SVGID_00000029010635587376955500000017471143753892630669_);}
</style>
<g id="BACKGROUND">
	<g>
		<rect class="st0" width="750" height="500"/>
		<linearGradient id="SVGID_1_" gradientUnits="userSpaceOnUse" x1="375" y1="500" x2="375" y2="-9.094947e-13">
			<stop  offset="0.5054" style="stop-color:#E9953B;stop-opacity:0.7"/>
			<stop  offset="1" style="stop-color:#EC683A;stop-opacity:0"/>
		</linearGradient>
		<polygon class="st1" points="0,500 750,500 750,0 0,0 		"/>
		
			<linearGradient id="SVGID_00000119119885563054585170000007520875344533316743_" gradientUnits="userSpaceOnUse" x1="375" y1="0" x2="375" y2="500">
			<stop  offset="0" style="stop-color:#001322;stop-opacity:0.6"/>
			<stop  offset="0.2957" style="stop-color:#5080BE;stop-opacity:0"/>
		</linearGradient>
		<polygon style="fill:url(#SVGID_00000119119885563054585170000007520875344533316743_);" points="0,500 750,500 750,0 0,0 		"/>
		<g>
			<g>
				<circle class="st3" cx="20.9" cy="32.1" r="0.6"/>
				<circle class="st3" cx="33.6" cy="68.8" r="0.3"/>
				<circle class="st3" cx="53.7" cy="34.8" r="0.4"/>
				<circle class="st3" cx="65.4" cy="70.7" r="0.7"/>
				<circle class="st3" cx="78" cy="39.9" r="0.5"/>
				<circle class="st3" cx="64.1" cy="50.5" r="0.6"/>
				<circle class="st3" cx="93.5" cy="15.5" r="0.5"/>
				<circle class="st3" cx="87.6" cy="76.9" r="0.4"/>
				<circle class="st3" cx="120" cy="37.6" r="0.9"/>
				<circle class="st3" cx="52.6" cy="95.4" r="0.6"/>
				<circle class="st3" cx="8.1" cy="54.1" r="0.5"/>
				<circle class="st3" cx="138" cy="15.5" r="0.5"/>
				<circle class="st3" cx="105.4" cy="69.6" r="0.4"/>
				<circle class="st3" cx="161" cy="26" r="0.5"/>
				<circle class="st3" cx="145.1" cy="61.1" r="0.7"/>
				<circle class="st3" cx="204.4" cy="14.1" r="0.9"/>
				<path class="st3" d="M189,48.1c0,0.3-0.3,0.6-0.6,0.6s-0.6-0.3-0.6-0.6s0.3-0.6,0.6-0.6S189,47.8,189,48.1z"/>
				<circle class="st3" cx="225.6" cy="58.9" r="0.4"/>
				<path class="st3" d="M264.4,19.1c0,0.2-0.2,0.4-0.4,0.4s-0.4-0.2-0.4-0.4s0.2-0.4,0.4-0.4S264.4,18.8,264.4,19.1z"/>
				<circle class="st3" cx="245.9" cy="28.6" r="0.5"/>
				<circle class="st3" cx="293" cy="47.9" r="0.4"/>
				<circle class="st3" cx="309.9" cy="23" r="0.4"/>
				<circle class="st3" cx="322.7" cy="57.9" r="0.6"/>
				<path class="st3" d="M353.9,19.1c0,0.2-0.2,0.4-0.4,0.4c-0.2,0-0.4-0.2-0.4-0.4s0.2-0.4,0.4-0.4
					C353.7,18.6,353.9,18.8,353.9,19.1z"/>
				<circle class="st3" cx="354.5" cy="62.4" r="0.6"/>
				<path class="st3" d="M339.2,30.4c0,0.3-0.3,0.6-0.6,0.6s-0.6-0.3-0.6-0.6s0.3-0.6,0.6-0.6S339.2,30.1,339.2,30.4z"/>
				<path class="st3" d="M267.8,71.7c0,0.4-0.3,0.7-0.7,0.7s-0.7-0.3-0.7-0.7s0.3-0.7,0.7-0.7S267.8,71.3,267.8,71.7z"/>
				<path class="st3" d="M425.6,24.4c0,0.6-0.5,1.1-1.1,1.1c-0.6,0-1.1-0.5-1.1-1.1s0.5-1.1,1.1-1.1
					C425.1,23.4,425.6,23.9,425.6,24.4z"/>
				<path class="st3" d="M438.4,68.1c0,0.6-0.5,1.1-1.1,1.1c-0.6,0-1.1-0.5-1.1-1.1s0.5-1.1,1.1-1.1C437.9,67,438.4,67.5,438.4,68.1
					z"/>
				<circle class="st3" cx="449.4" cy="100.6" r="0.9"/>
				<circle class="st3" cx="407.5" cy="42.1" r="1.1"/>
				<path class="st3" d="M513.4,24.4c0,0.6-0.5,1.1-1.1,1.1c-0.6,0-1.1-0.5-1.1-1.1s0.5-1.1,1.1-1.1
					C512.9,23.4,513.4,23.9,513.4,24.4z"/>
				<circle class="st3" cx="518.8" cy="60.5" r="1.2"/>
				<circle class="st3" cx="496.4" cy="95.9" r="0.6"/>
				<circle class="st3" cx="482.4" cy="36.3" r="0.8"/>
				<path class="st3" d="M600.8,87.7c0,0.4-0.3,0.7-0.7,0.7c-0.4,0-0.7-0.3-0.7-0.7c0-0.4,0.3-0.7,0.7-0.7
					C600.5,87,600.8,87.3,600.8,87.7z"/>
				<path class="st3" d="M621.9,21.8c0,0.4-0.4,0.8-0.8,0.8c-0.4,0-0.8-0.4-0.8-0.8s0.4-0.8,0.8-0.8C621.5,21,621.9,21.4,621.9,21.8
					z"/>
				<circle class="st3" cx="647.9" cy="94.4" r="0.9"/>
				<circle class="st3" cx="648" cy="47.5" r="1"/>
				<path class="st3" d="M703.4,21.8c0,0.4-0.4,0.8-0.8,0.8c-0.4,0-0.8-0.4-0.8-0.8s0.4-0.8,0.8-0.8C703,21,703.4,21.4,703.4,21.8z"
					/>
				<circle class="st3" cx="694.2" cy="118.5" r="0.8"/>
				<circle class="st3" cx="695.4" cy="64.1" r="1.1"/>
				<circle class="st3" cx="729.1" cy="66.1" r="0.9"/>
				<circle class="st3" cx="714.5" cy="94" r="0.5"/>
				<circle class="st3" cx="726.2" cy="34.5" r="1"/>
				<circle class="st3" cx="645" cy="76.1" r="0.4"/>
				<circle class="st3" cx="614.5" cy="54.4" r="0.6"/>
				<path class="st3" d="M564.2,41c0,0-0.2,0-0.5,0c-0.3,0-0.5,0-0.5,0s0.2,0,0.5,0C564,41,564.2,41,564.2,41z"/>
				<circle class="st3" cx="547.2" cy="79.5" r="0.8"/>
				<circle class="st3" cx="546.9" cy="19" r="0.4"/>
				<circle class="st3" cx="471" cy="84.2" r="0.8"/>
				<path class="st3" d="M378.1,30.1c0,0.5-0.4,0.9-0.9,0.9c-0.5,0-0.9-0.4-0.9-0.9s0.4-0.9,0.9-0.9
					C377.7,29.1,378.1,29.5,378.1,30.1z"/>
				<circle class="st3" cx="251.8" cy="44.2" r="0.8"/>
				<circle class="st3" cx="121.7" cy="96.8" r="0.8"/>
				<circle class="st3" cx="39.9" cy="88.9" r="0.6"/>
				<circle class="st3" cx="17.1" cy="111.1" r="0.6"/>
				<circle class="st3" cx="43.5" cy="51.9" r="0.8"/>
				<circle class="st3" cx="74.8" cy="97.6" r="0.8"/>
				<circle class="st3" cx="86.9" cy="55.8" r="1.1"/>
				<circle class="st3" cx="29.5" cy="16.8" r="0.8"/>
				<circle class="st3" cx="17.5" cy="43.2" r="1"/>
				<path class="st3" d="M142.7,77.2c0,0.4-0.3,0.7-0.7,0.7c-0.4,0-0.7-0.3-0.7-0.7c0-0.4,0.3-0.7,0.7-0.7
					C142.4,76.5,142.7,76.8,142.7,77.2z"/>
				<circle class="st3" cx="161" cy="39.9" r="0.5"/>
				<circle class="st3" cx="336.3" cy="14.1" r="0.9"/>
				<circle class="st3" cx="470.1" cy="60.3" r="1.4"/>
			</g>
			<g>
				<circle class="st4" cx="548.4" cy="39.1" r="1.9"/>
				<circle class="st4" cx="432.7" cy="45.7" r="0.5"/>
				<circle class="st4" cx="476.8" cy="6.3" r="1"/>
				<path class="st4" d="M501.2,82.3c0,0.6-0.5,1.2-1.2,1.2c-0.6,0-1.2-0.5-1.2-1.2c0-0.6,0.5-1.2,1.2-1.2
					C500.6,81.2,501.2,81.7,501.2,82.3z"/>
				<circle class="st4" cx="590.3" cy="98.2" r="0.5"/>
				<path class="st4" d="M642.2,13c0,1-0.8,1.8-1.8,1.8c-1,0-1.8-0.8-1.8-1.8s0.8-1.8,1.8-1.8C641.3,11.2,642.2,12,642.2,13z"/>
				<path class="st4" d="M666.3,117.4c0,0.6-0.5,1.1-1.1,1.1c-0.6,0-1.1-0.5-1.1-1.1c0-0.6,0.5-1.1,1.1-1.1
					C665.8,116.3,666.3,116.8,666.3,117.4z"/>
				<path class="st4" d="M678,46.9c0,0.9-0.7,1.6-1.6,1.6c-0.9,0-1.6-0.7-1.6-1.6c0-0.9,0.7-1.6,1.6-1.6C677.3,45.3,678,46,678,46.9
					z"/>
				<path class="st4" d="M738.2,14.7c0,0.5-0.4,0.8-0.8,0.8c-0.5,0-0.8-0.4-0.8-0.8c0-0.5,0.4-0.8,0.8-0.8
					C737.8,13.8,738.2,14.2,738.2,14.7z"/>
				<path class="st4" d="M412.5,26.3c0,0.5-0.4,0.8-0.8,0.8c-0.5,0-0.8-0.4-0.8-0.8c0-0.5,0.4-0.8,0.8-0.8
					C412.1,25.5,412.5,25.9,412.5,26.3z"/>
				<path class="st4" d="M286.5,11.2c0,0.6-0.5,1.2-1.2,1.2c-0.6,0-1.2-0.5-1.2-1.2c0-0.6,0.5-1.2,1.2-1.2
					C286,10,286.5,10.5,286.5,11.2z"/>
				<circle class="st4" cx="223.6" cy="78.1" r="1.6"/>
				<circle class="st4" cx="158.7" cy="71.7" r="0.7"/>
				<path class="st4" d="M87.2,106c0,0.7-0.5,1.2-1.2,1.2c-0.7,0-1.2-0.5-1.2-1.2c0-0.7,0.5-1.2,1.2-1.2
					C86.7,104.8,87.2,105.4,87.2,106z"/>
				<circle class="st4" cx="68.5" cy="42.4" r="0.9"/>
				<circle class="st4" cx="121.4" cy="11.7" r="0.5"/>
				<path class="st4" d="M49.3,13.9c0,0.6-0.5,1.1-1.1,1.1s-1.1-0.5-1.1-1.1s0.5-1.1,1.1-1.1S49.3,13.3,49.3,13.9z"/>
				<circle class="st4" cx="172.6" cy="27.8" r="1.3"/>
				<circle class="st4" cx="235.7" cy="8.8" r="0.5"/>
				<path class="st4" d="M118.1,73.3c0,0.9-0.7,1.7-1.7,1.7c-0.9,0-1.7-0.7-1.7-1.7c0-0.9,0.7-1.7,1.7-1.7
					C117.4,71.7,118.1,72.4,118.1,73.3z"/>
				<path class="st4" d="M618.6,73.7c0,1.1-0.9,2-2,2c-1.1,0-2-0.9-2-2c0-1.1,0.9-2,2-2C617.7,71.7,618.6,72.6,618.6,73.7z"/>
			</g>
		</g>
	</g>
</g>
<g id="OBJECTS">
	<g>
		<g>
			<g>
				
					<image style="overflow:visible;" width="1569" height="1569" xlink:href="AA96E101.png"  transform="matrix(0.24 0 0 0.24 133.95 25.3839)">
				</image>
			</g>
			<g>
				
					<image style="overflow:visible;" width="992" height="992" xlink:href="AA96E103.png"  transform="matrix(0.24 0 0 0.24 204.5492 94.638)">
				</image>
			</g>
			
				<radialGradient id="SVGID_00000156583300870031216190000014550848565094899604_" cx="323.4782" cy="213.5671" r="28.6479" gradientUnits="userSpaceOnUse">
				<stop  offset="0.4625" style="stop-color:#F7E783"/>
				<stop  offset="0.5643" style="stop-color:#F6E47E"/>
				<stop  offset="0.6864" style="stop-color:#F4DC6F"/>
				<stop  offset="0.8187" style="stop-color:#F1CD57"/>
				<stop  offset="0.9576" style="stop-color:#EDBA36"/>
				<stop  offset="0.9995" style="stop-color:#EBB32A"/>
			</radialGradient>
			<circle style="fill:url(#SVGID_00000156583300870031216190000014550848565094899604_);" cx="323.5" cy="213.6" r="28.6"/>
		</g>
		<g>
			<g>
				<polygon class="st6" points="0,197 154.5,147 162.5,151 162.5,157 170,155.5 236.5,197 252,197 528,325.4 0,325.4 				"/>
				
					<linearGradient id="SVGID_00000122700426487081639960000017722191965406247844_" gradientUnits="userSpaceOnUse" x1="328.7705" y1="175.2235" x2="137.5388" y2="428.9966">
					<stop  offset="0" style="stop-color:#F7E783;stop-opacity:0.8"/>
					<stop  offset="0.6882" style="stop-color:#5080BE;stop-opacity:0"/>
				</linearGradient>
				<polygon style="fill:url(#SVGID_00000122700426487081639960000017722191965406247844_);" points="0,197 154.5,147 162.5,151 
					162.5,157 170,155.5 236.5,197 252,197 528,325.4 0,325.4 				"/>
			</g>
			<g>
				<polygon class="st6" points="223.2,325.4 436.7,140 450.7,137.8 480.2,111 520.7,105 526.7,111 536.2,110.5 568.2,137.8 
					575.7,133 669.2,203 677.2,200 750,256 750,325.4 				"/>
				<g>
					
						<linearGradient id="SVGID_00000150819479638646292510000003575845057248895162_" gradientUnits="userSpaceOnUse" x1="427" y1="215.1768" x2="536.2404" y2="215.1768">
						<stop  offset="0" style="stop-color:#042430"/>
						<stop  offset="1" style="stop-color:#0C5566;stop-opacity:0"/>
					</linearGradient>
					<polygon style="fill:url(#SVGID_00000150819479638646292510000003575845057248895162_);" points="492.7,232.3 504.7,223.7 
						536.2,110.5 526.7,111 520.7,105 478.7,206 492.7,206 478.7,215.2 427,325.4 486.7,325.4 500.7,236.2 					"/>
					
						<linearGradient id="SVGID_00000133507103862697610170000006675002230001859494_" gradientUnits="userSpaceOnUse" x1="530.0607" y1="229.1768" x2="750" y2="229.1768">
						<stop  offset="0" style="stop-color:#042430"/>
						<stop  offset="1" style="stop-color:#0C5566;stop-opacity:0"/>
					</linearGradient>
					<polygon style="fill:url(#SVGID_00000133507103862697610170000006675002230001859494_);" points="750,256 677.2,200 669.2,203 
						575.7,133 568.2,137.8 547.8,236.2 558,232.3 547.8,241.7 530.1,325.4 750,325.4 					"/>
				</g>
				
					<linearGradient id="SVGID_00000065064184009034495400000014790863656662284979_" gradientUnits="userSpaceOnUse" x1="486.6194" y1="325.3537" x2="486.6194" y2="105">
					<stop  offset="0.129" style="stop-color:#24B9C3;stop-opacity:0.6"/>
					<stop  offset="1" style="stop-color:#052B40;stop-opacity:0"/>
				</linearGradient>
				<polygon style="fill:url(#SVGID_00000065064184009034495400000014790863656662284979_);" points="223.2,325.4 436.7,140 
					450.7,137.8 480.2,111 520.7,105 526.7,111 536.2,110.5 568.2,137.8 575.7,133 669.2,203 677.2,200 750,256 750,325.4 				"/>
				
					<linearGradient id="SVGID_00000129206038377231032660000007020908269025592990_" gradientUnits="userSpaceOnUse" x1="299.0853" y1="182.2534" x2="520.7404" y2="182.2534">
					<stop  offset="0" style="stop-color:#F7E783;stop-opacity:0.4"/>
					<stop  offset="1" style="stop-color:#5080BE;stop-opacity:0"/>
				</linearGradient>
				<polygon style="fill:url(#SVGID_00000129206038377231032660000007020908269025592990_);" points="299.1,259.5 436.7,140 
					450.7,137.8 480.2,111 520.7,105 481.7,117 438.7,163.5 445.7,147 435.2,149.1 				"/>
			</g>
		</g>
		<g>
			<g>
				<path class="st12" d="M0,281c0,0,103.4,42.7,184.1,33.3C264.9,305,350.1,247,429.9,250S750,311.7,750,311.7V500H0V281z"/>
				
					<linearGradient id="SVGID_00000118371665294557063350000013476045633595988869_" gradientUnits="userSpaceOnUse" x1="375" y1="500" x2="375" y2="249.8876">
					<stop  offset="0.7366" style="stop-color:#24B9C3;stop-opacity:0.6"/>
					<stop  offset="1" style="stop-color:#052B40;stop-opacity:0"/>
				</linearGradient>
				<path style="fill:url(#SVGID_00000118371665294557063350000013476045633595988869_);" d="M0,281c0,0,103.4,42.7,184.1,33.3
					C264.9,305,350.1,247,429.9,250S750,311.7,750,311.7V500H0V281z"/>
			</g>
			<g>
				<path class="st14" d="M0,309c0,0,113.4-37,210-42s149.1,56,237.1,42s139.4-91,302.9,7v184H0V309z"/>
				
					<linearGradient id="SVGID_00000124878689528318792670000004485371813550670773_" gradientUnits="userSpaceOnUse" x1="213.538" y1="222.4826" x2="105.6791" y2="409.2997">
					<stop  offset="0" style="stop-color:#F7E783;stop-opacity:0.7"/>
					<stop  offset="0.6882" style="stop-color:#5080BE;stop-opacity:0"/>
				</linearGradient>
				<path style="fill:url(#SVGID_00000124878689528318792670000004485371813550670773_);" d="M238.8,338.3l72.7-2.3
					c0,0-57.5-16.7-50.9-36.4c6.1-18,49.7-14.7,74-7.3c-37.1-13.1-75.1-28-124.7-25.4c-96.6,5-210,42-210,42v39.3
					c16.1,4.9,35.1,8.8,54.7,11.2C118.7,367.7,238.8,338.3,238.8,338.3z"/>
				
					<linearGradient id="SVGID_00000019669503942128133400000007971185258553299103_" gradientUnits="userSpaceOnUse" x1="750" y1="383.3672" x2="-9.094947e-13" y2="383.3672">
					<stop  offset="0.172" style="stop-color:#042430;stop-opacity:0.8"/>
					<stop  offset="1" style="stop-color:#0C5566;stop-opacity:0"/>
				</linearGradient>
				<path style="fill:url(#SVGID_00000019669503942128133400000007971185258553299103_);" d="M0,309c0,0,113.4-37,210-42
					s149.1,56,237.1,42s139.4-91,302.9,7v184H0V309z"/>
			</g>
		</g>
		<g>
			<g>
				<rect y="325.4" class="st17" width="748.7" height="174.6"/>
				
					<linearGradient id="SVGID_00000165940476990748019140000002141667014555004605_" gradientUnits="userSpaceOnUse" x1="356.4014" y1="407.1465" x2="356.4014" y2="336.0627">
					<stop  offset="0.3172" style="stop-color:#F7E783;stop-opacity:0.5"/>
					<stop  offset="0.9839" style="stop-color:#F7E783;stop-opacity:0.1"/>
				</linearGradient>
				<polygon style="fill:url(#SVGID_00000165940476990748019140000002141667014555004605_);" points="308,341.1 449.2,336.1 
					360.4,346 491.7,351.2 347.1,364.5 473.5,374.9 226.3,407.1 324.9,373.6 221.1,374.9 347.1,355.4 246,350 343.3,347.5 				"/>
				
					<radialGradient id="SVGID_00000075853579708497994260000006356015206956571828_" cx="375.8213" cy="412.4268" r="272.7393" gradientTransform="matrix(0.9983 0 0 1 -0.1824 0)" gradientUnits="userSpaceOnUse">
					<stop  offset="0.2572" style="stop-color:#003B58;stop-opacity:0"/>
					<stop  offset="0.9233" style="stop-color:#003049;stop-opacity:0.6322"/>
					<stop  offset="0.9946" style="stop-color:#002F47;stop-opacity:0.7"/>
				</radialGradient>
				<polygon style="fill:url(#SVGID_00000075853579708497994260000006356015206956571828_);" points="258.9,324.9 115.5,331.4 
					315.5,334.5 129.8,349.5 394.3,372.7 379.9,366.5 594,349.5 449.7,343.2 573.2,338 324.3,324.9 750,324.9 750,500 0,500 
					0,324.9 				"/>
			</g>
			<g>
				<g>
					<path class="st6" d="M539.7,367.2l5.7-4.8l-2.1-10.6l-3.6-1.2l3.3-0.6l-0.4-1.8l-3.7,1.3l3.5-2.5l-1.9-9.7l-2.2,0.3l2-1.3
						l-3.3-16.5l-3.4,16.9l2.1,4.3l-2.5-2.1l-0.8,4.1l3.4-0.5l-3.7,2.5l-0.4,2l-0.2-1l-3.6-1.2l3.3-0.6l-0.4-1.8l-3.7,1.3l3.5-2.5
						l-1.9-9.7l-2.2,0.3l2-1.3L525,314l-3.4,16.9l2.1,4.3l-2.5-2.1l-0.8,4.1l3.4-0.5l-3.7,2.5l-2.4,11.9l-3.2-16.2l-3.4,16.9
						l2.1,4.3l-2.5-2.1l-0.8,4.1l3.4-0.5l-3.7,2.5l-2.6,13l2.8,4.7l-3.1-3.1l-0.7,3.6l4.4,5.7l-4.9-3.4l-1.5,7.7H525l-1.2-5.9
						l-6.7-0.1l5.7-4.8l-2-10.1h6.6l-1.1,5.8h21.2l-1.2-5.9L539.7,367.2z M519.7,362.3l0.2-0.1l-0.1-0.4l1.1,1.4L519.7,362.3z
						 M520.2,357l-1.7-1.8l-0.4-1.8L520.2,357z M517.6,351.5l-0.2,0.8l0.1,0.2l-1.9,0.2L517.6,351.5z M530.8,361.5l-1.4-1.4l0.7-0.6
						l1.2,2.1L530.8,361.5z M528.9,360.5l-0.2,1l-1,0L528.9,360.5z M530.7,367.4h1l1.1,1.4L530.7,367.4z"/>
					<path class="st6" d="M608,379.4l-1.4-6.9l-7.8-0.1l6.6-5.6l-2.5-12.4l-4.2-1.4l3.8-0.7l-0.4-2.1l-4.3,1.5l4-3l-2.2-11.3
						l-2.6,0.3l2.3-1.5l-3.8-19.2l-3.9,19.7l2.4,5l-3-2.4l-0.9,4.7l3.9-0.6l-4.4,3l-1.4,7.3l-1.6-8.2l-4.2-1.4l3.8-0.7l-0.4-2.1
						l-4.3,1.5l4-3l-2.2-11.3l-2.6,0.3l2.3-1.5l-3.8-19.2l-3.7,18.6l-0.8-4l-2.6,0.3l2.3-1.5l-3.8-19.2l-3.9,19.7l2.4,5l-3-2.4
						l-0.9,4.7l3.9-0.6l-4.4,3l-3,15.1l3.2,5.5l-3.6-3.7l-0.8,4.2l5.1,6.6l-5.7-3.9l-1.8,9h9.6l-1.1,5.8h18l-1.7,8.8H608z
						 M585.5,370.6h2.5l2.9,3.7L585.5,370.6z M587.3,359.7l-0.4,2.1l1.1,1.9l-1.4,0l-0.1-0.1l0,0.1l-3.5,0l-0.1-0.3L587.3,359.7z
						 M578,333.2l-1.2-1l-0.5-2.5L578,333.2z M576.1,335.2l1.9-0.3l-2.3,1.6l-2.5,0.9L576.1,335.2z M573.6,364.9h0.5l0.6,0.7
						L573.6,364.9z"/>
				</g>
				<g>
					
						<linearGradient id="SVGID_00000176743837598837392000000009663588574088998076_" gradientUnits="userSpaceOnUse" x1="525.7" y1="392.7555" x2="525.7" y2="318.4432">
						<stop  offset="0" style="stop-color:#FFFFFF;stop-opacity:0.3"/>
						<stop  offset="0.586" style="stop-color:#59B3CB;stop-opacity:0"/>
					</linearGradient>
					<path style="fill:url(#SVGID_00000176743837598837392000000009663588574088998076_);" d="M539.7,371.6l5.7-4.8l-2.1-10.6
						l-3.6-1.2l3.3-0.6l-0.4-1.8l-3.7,1.3l3.5-2.5l-1.9-9.7l-2.2,0.3l2-1.3l-3.3-16.5l-3.4,16.9l2.1,4.3l-2.5-2.1l-0.8,4.1l3.4-0.5
						l-3.7,2.5l-0.4,2l-0.2-1l-3.6-1.2l3.3-0.6l-0.4-1.8l-3.7,1.3l3.5-2.5l-1.9-9.7l-2.2,0.3l2-1.3l-3.3-16.5l-3.4,16.9l2.1,4.3
						l-2.5-2.1l-0.8,4.1l3.4-0.5l-3.7,2.5l-2.4,11.9l-3.2-16.2l-3.4,16.9l2.1,4.3l-2.5-2.1l-0.8,4.1l3.4-0.5l-3.7,2.5l-2.6,13
						l2.8,4.7l-3.1-3.1l-0.7,3.6l4.4,5.7l-4.9-3.4l-1.5,7.7H525l-1.2-5.9l-6.7-0.1l5.7-4.8l-2-10.1h6.6l-1.1,5.8h21.2l-1.2-5.9
						L539.7,371.6z M519.7,366.7l0.2-0.1l-0.1-0.4l1.1,1.4L519.7,366.7z M520.2,361.4l-1.7-1.8l-0.4-1.8L520.2,361.4z M517.6,355.9
						l-0.2,0.8l0.1,0.2l-1.9,0.2L517.6,355.9z M530.8,365.9l-1.4-1.4l0.7-0.6l1.2,2.1L530.8,365.9z M528.9,364.9l-0.2,1l-1,0
						L528.9,364.9z M530.7,371.8h1l1.1,1.4L530.7,371.8z"/>
					
						<linearGradient id="SVGID_00000065794195728638277720000011428383792398370491_" gradientUnits="userSpaceOnUse" x1="583.3528" y1="383.8068" x2="583.3528" y2="307.1595">
						<stop  offset="0" style="stop-color:#FFFFFF;stop-opacity:0.3"/>
						<stop  offset="0.586" style="stop-color:#59B3CB;stop-opacity:0"/>
					</linearGradient>
					<path style="fill:url(#SVGID_00000065794195728638277720000011428383792398370491_);" d="M608,383.8l-1.4-6.9l-7.8-0.1l6.6-5.6
						l-2.5-12.4l-4.2-1.4l3.8-0.7l-0.4-2.1l-4.3,1.5l4-3l-2.2-11.3l-2.6,0.3l2.3-1.5l-3.8-19.2l-3.9,19.7l2.4,5l-3-2.4l-0.9,4.7
						l3.9-0.6l-4.4,3l-1.4,7.3l-1.6-8.2l-4.2-1.4l3.8-0.7L586,346l-4.3,1.5l4-3l-2.2-11.3l-2.6,0.3l2.3-1.5l-3.8-19.2l-3.7,18.6
						l-0.8-4l-2.6,0.3l2.3-1.5l-3.8-19.2l-3.9,19.7l2.4,5l-3-2.4l-0.9,4.7l3.9-0.6l-4.4,3l-3,15.1l3.2,5.5l-3.6-3.7l-0.8,4.2
						l5.1,6.6l-5.7-3.9l-1.8,9h9.6l-1.1,5.8h18l-1.7,8.8H608z M585.5,375.1h2.5l2.9,3.7L585.5,375.1z M587.3,364.2l-0.4,2.1l1.1,1.9
						l-1.4,0l-0.1-0.1l0,0.1l-3.5,0l-0.1-0.3L587.3,364.2z M578,337.6l-1.2-1l-0.5-2.5L578,337.6z M576.1,339.6l1.9-0.3l-2.3,1.6
						l-2.5,0.9L576.1,339.6z M573.6,369.3h0.5l0.6,0.7L573.6,369.3z"/>
				</g>
			</g>
			<g>
				<path class="st22" d="M1,459.6c0,0,431.8-112.7,749-103.6V500H0L1,459.6z"/>
				
					<linearGradient id="SVGID_00000176041994311718188210000005044842708132836744_" gradientUnits="userSpaceOnUse" x1="498.0305" y1="645.4747" x2="293.2693" y2="290.8178">
					<stop  offset="0" style="stop-color:#003B58"/>
					<stop  offset="0.8548" style="stop-color:#008696;stop-opacity:0"/>
				</linearGradient>
				<path style="fill:url(#SVGID_00000176041994311718188210000005044842708132836744_);" d="M0,500h750V364.8
					c-110.7-2.1-193.1,7.2-217.4,17.3c-25.5,10.6,59.4,22.8,65.9,45.6c6.5,22.8-67.3-8.6-67.3-8.6l-110.7-20.3
					c0,0,49.8,21-25.2,19.3c-39.6-0.9-149.7,3.2-244.7,7C60.1,444.1,1,459.6,1,459.6L0,500z"/>
				<g>
					<path class="st17" d="M369.8,385.3c0,0,132.4,21.2,195.8,114.7h97.3c0,0-89.8-96.3-280.3-116.6L369.8,385.3z"/>
					
						<linearGradient id="SVGID_00000125586655092144809700000001429009335119148447_" gradientUnits="userSpaceOnUse" x1="516.3295" y1="500" x2="516.3295" y2="383.3673">
						<stop  offset="0.5269" style="stop-color:#008696;stop-opacity:0.8"/>
						<stop  offset="0.9946" style="stop-color:#008696;stop-opacity:0"/>
					</linearGradient>
					<path style="fill:url(#SVGID_00000125586655092144809700000001429009335119148447_);" d="M369.8,385.3
						c0,0,132.4,21.2,195.8,114.7h97.3c0,0-89.8-96.3-280.3-116.6L369.8,385.3z"/>
				</g>
				
					<linearGradient id="SVGID_00000091708534934684635870000016469882284828928145_" gradientUnits="userSpaceOnUse" x1="340.553" y1="360.9567" x2="340.553" y2="500">
					<stop  offset="0" style="stop-color:#F7E783;stop-opacity:0.7"/>
					<stop  offset="0.6882" style="stop-color:#5080BE;stop-opacity:0"/>
				</linearGradient>
				<path style="fill:url(#SVGID_00000091708534934684635870000016469882284828928145_);" d="M510.6,379.4
					c-4.3-5.8,18.5-11,38.8-14.4l130.6,29.5l-118.5-31.3c9.3-1.3,16.3-2.1,16.9-2.2c-6.4,0.5-12.9,1-19.3,1.6l0,0l-15.4,1.2l0.4,0.1
					C273.6,388.7,2,459.6,2,459.6L1,500h400.8c102.5-24.2,191.5-51.1,209.4-59.5C649.5,422.5,518.1,389.5,510.6,379.4z"/>
			</g>
			<g>
				<path class="st6" d="M352.5,431.4l-1.5-7.7l-8.7-0.1l7.5-6.3l-2.8-13.9l-4.7-1.5l4.3-0.7l-0.5-2.3l-4.8,1.7l4.5-3.3l-2.5-12.7
					l-2.9,0.4l2.6-1.7l-4.3-21.5l-4.4,22.1l2.7,5.6l-3.3-2.7l-1.1,5.3l4.4-0.7l-4.9,3.3l-1.4,6.9l-6.3-2.1l5.9-1l-0.6-3.3l-6.7,2.4
					l6.3-4.6l-3.5-17.6l-4,0.5l3.6-2.4l-5.9-29.8l-6.1,30.7l3.8,7.8l-4.6-3.8l-1.5,7.4l6.1-1l-6.8,4.6l-3.9,19.5l-4.4-22.4l-8-2.6
					l7.2-1.2l-0.8-4l-8.2,2.9l7.7-5.6l-4.3-21.5l-4.9,0.6l4.5-2.9l-7.2-36.5l-4.5,22.9l-0.2-1.2l-5.3,0.7l4.8-3.2l-7.8-39.4l-8,40.5
					l5,10.3l-6.1-5l-1.9,9.8l8-1.3l-9,6.1l-6.2,31.1l6.6,11.3l-7.3-7.5l-1.7,8.6L265,413l-11.6-8l-3.6,18.4h17.1l-2.1,10.7h36.9
					l-1.3,6.4h38.3l-1.8-9.1H352.5z M306.3,410.6l-0.5,2.5l5,8.5l-5.6-5.7l-1,5l-4.4-0.1l-0.8-4.1L306.3,410.6z M285.3,362.9
					l-0.1-0.1l0.1,0L285.3,362.9z M277.3,423.4h0.7l0.8,1.1L277.3,423.4z M311.2,432.1l-0.1-0.6l0.9,1.1L311.2,432.1z M333.2,425.7
					l-2.3-1.6l0.6-0.5L333.2,425.7z M325.4,428.8l-0.2,0.8l-0.8,0L325.4,428.8z"/>
				
					<linearGradient id="SVGID_00000041989819562109365190000002180593955278475918_" gradientUnits="userSpaceOnUse" x1="301.1163" y1="440.4771" x2="301.1163" y2="295.6678">
					<stop  offset="0" style="stop-color:#FFFFFF;stop-opacity:0.25"/>
					<stop  offset="0.586" style="stop-color:#59B3CB;stop-opacity:0"/>
				</linearGradient>
				<path style="fill:url(#SVGID_00000041989819562109365190000002180593955278475918_);" d="M352.5,431.4l-1.5-7.7l-8.7-0.1
					l7.5-6.3l-2.8-13.9l-4.7-1.5l4.3-0.7l-0.5-2.3l-4.8,1.7l4.5-3.3l-2.5-12.7l-2.9,0.4l2.6-1.7l-4.3-21.5l-4.4,22.1l2.7,5.6
					l-3.3-2.7l-1.1,5.3l4.4-0.7l-4.9,3.3l-1.4,6.9l-6.3-2.1l5.9-1l-0.6-3.3l-6.7,2.4l6.3-4.6l-3.5-17.6l-4,0.5l3.6-2.4l-5.9-29.8
					l-6.1,30.7l3.8,7.8l-4.6-3.8l-1.5,7.4l6.1-1l-6.8,4.6l-3.9,19.5l-4.4-22.4l-8-2.6l7.2-1.2l-0.8-4l-8.2,2.9l7.7-5.6l-4.3-21.5
					l-4.9,0.6l4.5-2.9l-7.2-36.5l-4.5,22.9l-0.2-1.2l-5.3,0.7l4.8-3.2l-7.8-39.4l-8,40.5l5,10.3l-6.1-5l-1.9,9.8l8-1.3l-9,6.1
					l-6.2,31.1l6.6,11.3l-7.3-7.5l-1.7,8.6L265,413l-11.6-8l-3.6,18.4h17.1l-2.1,10.7h36.9l-1.3,6.4h38.3l-1.8-9.1H352.5z
					 M306.3,410.6l-0.5,2.5l5,8.5l-5.6-5.7l-1,5l-4.4-0.1l-0.8-4.1L306.3,410.6z M285.3,362.9l-0.1-0.1l0.1,0L285.3,362.9z
					 M277.3,423.4h0.7l0.8,1.1L277.3,423.4z M311.2,432.1l-0.1-0.6l0.9,1.1L311.2,432.1z M333.2,425.7l-2.3-1.6l0.6-0.5L333.2,425.7
					z M325.4,428.8l-0.2,0.8l-0.8,0L325.4,428.8z"/>
			</g>
			<g>
				<path class="st14" d="M0,434c0,0,332-52.8,750,40.6V500H0V434z"/>
				<g>
					
						<linearGradient id="SVGID_00000026145975103433252340000017063869604920570767_" gradientUnits="userSpaceOnUse" x1="0" y1="459.5619" x2="482.1902" y2="459.5619">
						<stop  offset="0" style="stop-color:#042430;stop-opacity:0.8"/>
						<stop  offset="1" style="stop-color:#0C5566;stop-opacity:0"/>
					</linearGradient>
					<path style="fill:url(#SVGID_00000026145975103433252340000017063869604920570767_);" d="M328.9,459.6
						c43.9-14.4-71.9-29.1-97.8-31.9c-25.9-2.8,43.4-7.9,43.4-7.9l0.3-0.4C106.5,417,0,434,0,434v66h482.2c0,0-211.1-3-264.8-6
						S285,474,328.9,459.6z"/>
					
						<linearGradient id="SVGID_00000178900638500560722310000014637166635390513818_" gradientUnits="userSpaceOnUse" x1="652.9042" y1="556.0583" x2="576.7395" y2="424.1371">
						<stop  offset="0.4355" style="stop-color:#042430;stop-opacity:0.8"/>
						<stop  offset="1" style="stop-color:#0C5566;stop-opacity:0"/>
					</linearGradient>
					<path style="fill:url(#SVGID_00000178900638500560722310000014637166635390513818_);" d="M601,459.6
						c-20.4,3.2-156.2,25.2-128.3,28.8c23.9,3.1,114.1,9.8,139.8,11.6H750v-25.4c-66.8-14.9-131.4-26.1-192.7-34.4
						C558.5,440.5,621.2,456.4,601,459.6z"/>
				</g>
				<g>
					<path class="st22" d="M557.6,440.3c-1.1-0.3-48.6,4.2-110.1,12.9c0,0,38-16.8-22.9-20.5c-60.9-3.7-184.3-5-174.7-7.3
						c9.6-2.3,24.6-5.6,24.6-5.6c-1.7,0.2-28.1,2.3-31.9,5.6c-3.8,3.2,122.4,8,168,10.7c42.4,2.5,8.1,17.8-50.3,31.1
						c-49.2,9-98.2,20-134.1,32.9h243.9c0,0,64.4-52.8,112.2-56.3L557.6,440.3z"/>
					
						<linearGradient id="SVGID_00000012465998147467802510000000944540739860397714_" gradientUnits="userSpaceOnUse" x1="226.2867" y1="459.8838" x2="582.441" y2="459.8838">
						<stop  offset="0.457" style="stop-color:#0C5566;stop-opacity:0.8"/>
						<stop  offset="0.9946" style="stop-color:#0C5566;stop-opacity:0"/>
					</linearGradient>
					<path style="fill:url(#SVGID_00000012465998147467802510000000944540739860397714_);" d="M557.6,440.3
						c-1.1-0.3-48.6,4.2-110.1,12.9c0,0,38-16.8-22.9-20.5c-60.9-3.7-184.3-5-174.7-7.3c9.6-2.3,24.6-5.6,24.6-5.6
						c-1.7,0.2-28.1,2.3-31.9,5.6c-3.8,3.2,122.4,8,168,10.7c42.4,2.5,8.1,17.8-50.3,31.1c-49.2,9-98.2,20-134.1,32.9h243.9
						c0,0,64.4-52.8,112.2-56.3L557.6,440.3z"/>
				</g>
				
					<linearGradient id="SVGID_00000016042567061860678100000006398758386893863103_" gradientUnits="userSpaceOnUse" x1="439.2076" y1="421.4327" x2="439.2076" y2="481.8063">
					<stop  offset="0" style="stop-color:#F7E783;stop-opacity:0.5"/>
					<stop  offset="0.6882" style="stop-color:#5080BE;stop-opacity:0"/>
				</linearGradient>
				<path style="fill:url(#SVGID_00000016042567061860678100000006398758386893863103_);" d="M351.5,452.5
					c-7.1,8-85.8,23.9-73.5,26.5c11.7,2.5,298.2,12.9,323.6-32.4c-92.3-14.3-178.3-21.8-254.6-25.2c-0.8,0.3-1.5,0.5-2.2,0.8
					C347.4,426.5,357.8,445.4,351.5,452.5z"/>
			</g>
		</g>
		<g>
			<g>
				<g>
					<g>
						<polygon class="st31" points="246.4,350 275,407.2 275,419.8 217.8,419.8 217.8,407.2 						"/>
						
							<linearGradient id="SVGID_00000174583914446049461080000004530352535264066445_" gradientUnits="userSpaceOnUse" x1="857.7418" y1="349.9575" x2="857.7418" y2="419.7675" gradientTransform="matrix(-1 0 0 1 1104.1521 0)">
							<stop  offset="0" style="stop-color:#557F6C"/>
							<stop  offset="1" style="stop-color:#9CC1B2;stop-opacity:0"/>
						</linearGradient>
						<polygon style="fill:url(#SVGID_00000174583914446049461080000004530352535264066445_);" points="246.4,350 275,407.2 
							275,419.8 217.8,419.8 217.8,407.2 						"/>
					</g>
					<g>
						
							<rect x="138.4" y="407.1" transform="matrix(-1 -1.224647e-16 1.224647e-16 -1 356.143 826.9138)" class="st33" width="79.4" height="12.6"/>
						
							<linearGradient id="SVGID_00000176030935021930470400000002688194178846542479_" gradientUnits="userSpaceOnUse" x1="926.0806" y1="407.1463" x2="926.0806" y2="419.7675" gradientTransform="matrix(-1 0 0 1 1104.1521 0)">
							<stop  offset="0" style="stop-color:#527062"/>
							<stop  offset="1" style="stop-color:#5083C2;stop-opacity:0"/>
						</linearGradient>
						<polygon style="fill:url(#SVGID_00000176030935021930470400000002688194178846542479_);" points="138.4,407.1 217.8,407.1 
							217.8,419.8 138.4,419.8 						"/>
					</g>
					<g>
						<polygon class="st35" points="246.4,350 275,407.2 275,414.5 286.6,414.5 288.1,412.4 247.8,331.9 171.5,331.9 133,411.9 
							134.7,414.5 214.6,414.5 						"/>
						<g>
							
								<linearGradient id="SVGID_00000023282077725389080010000006973244060069104785_" gradientUnits="userSpaceOnUse" x1="837.6558" y1="343.7328" x2="837.6558" y2="414.5343" gradientTransform="matrix(-1 0 0 1 1104.1521 0)">
								<stop  offset="0" style="stop-color:#81897A"/>
								<stop  offset="1" style="stop-color:#5083C2;stop-opacity:0"/>
							</linearGradient>
							<polygon style="fill:url(#SVGID_00000023282077725389080010000006973244060069104785_);" points="286.6,414.5 249.2,343.7 
								246.4,350 275,407.2 275,414.5 							"/>
							
								<linearGradient id="SVGID_00000000913903626218864420000010744292983369440145_" gradientUnits="userSpaceOnUse" x1="943.61" y1="429.4733" x2="879.5381" y2="318.4975" gradientTransform="matrix(-1 0 0 1 1104.1521 0)">
								<stop  offset="0" style="stop-color:#81897A"/>
								<stop  offset="1" style="stop-color:#5083C2;stop-opacity:0"/>
							</linearGradient>
							<polygon style="fill:url(#SVGID_00000000913903626218864420000010744292983369440145_);" points="247.8,331.9 210.5,410.3 
								214.6,414.5 134.7,414.5 133,411.9 171.5,331.9 							"/>
						</g>
					</g>
					<g>
						<g>
							
								<rect x="243.1" y="402.7" transform="matrix(-1 -1.224647e-16 1.224647e-16 -1 492.8208 814.293)" class="st38" width="6.7" height="8.9"/>
							
								<linearGradient id="SVGID_00000072998628138624973600000014623560633959710384_" gradientUnits="userSpaceOnUse" x1="857.7417" y1="402.6921" x2="857.7417" y2="411.6009" gradientTransform="matrix(-1 0 0 1 1104.1521 0)">
								<stop  offset="0" style="stop-color:#A06E17"/>
								<stop  offset="1" style="stop-color:#5083C2;stop-opacity:0"/>
							</linearGradient>
							
								<rect x="243.1" y="402.7" style="fill:url(#SVGID_00000072998628138624973600000014623560633959710384_);" width="6.7" height="8.9"/>
						</g>
						<path class="st35" d="M242.4,402.1v10.1h7.9v-10.1H242.4z M249.1,403.3v2.1h-5.5v-2.1H249.1z M243.7,411v-4.4h5.5v4.4H243.7z"
							/>
						<g>
							<g>
								
									<rect x="254" y="402.7" transform="matrix(-1 -1.224647e-16 1.224647e-16 -1 514.6576 814.293)" class="st38" width="6.7" height="8.9"/>
								
									<linearGradient id="SVGID_00000029041241130084709460000007135835302194162082_" gradientUnits="userSpaceOnUse" x1="846.8233" y1="402.6921" x2="846.8233" y2="411.6009" gradientTransform="matrix(-1 0 0 1 1104.1521 0)">
									<stop  offset="0" style="stop-color:#A06E17"/>
									<stop  offset="1" style="stop-color:#5083C2;stop-opacity:0"/>
								</linearGradient>
								
									<rect x="254" y="402.7" style="fill:url(#SVGID_00000029041241130084709460000007135835302194162082_);" width="6.7" height="8.9"/>
							</g>
							<path class="st35" d="M253.4,402.1v10.1h7.9v-10.1H253.4z M260.1,403.3v2.1h-5.5v-2.1H260.1z M254.6,411v-4.4h5.5v4.4H254.6z
								"/>
						</g>
						<g>
							<g>
								
									<rect x="232.1" y="402.7" transform="matrix(-1 -1.224647e-16 1.224647e-16 -1 470.9839 814.293)" class="st38" width="6.7" height="8.9"/>
								
									<linearGradient id="SVGID_00000004534674552362139350000012192894575201053856_" gradientUnits="userSpaceOnUse" x1="868.6602" y1="402.6921" x2="868.6602" y2="411.6009" gradientTransform="matrix(-1 0 0 1 1104.1521 0)">
									<stop  offset="0" style="stop-color:#A06E17"/>
									<stop  offset="1" style="stop-color:#5083C2;stop-opacity:0"/>
								</linearGradient>
								
									<rect x="232.1" y="402.7" style="fill:url(#SVGID_00000004534674552362139350000012192894575201053856_);" width="6.7" height="8.9"/>
							</g>
							<path class="st35" d="M231.5,402.1v10.1h7.9v-10.1H231.5z M238.2,403.3v2.1h-5.5v-2.1H238.2z M232.8,411v-4.4h5.5v4.4H232.8z
								"/>
						</g>
					</g>
					<g>
						<g>
							<polygon class="st35" points="190.4,343.7 184.7,356.2 170.2,356.2 170.2,326 190.4,326 							"/>
							
								<linearGradient id="SVGID_00000111891195626294925370000009721228306457215674_" gradientUnits="userSpaceOnUse" x1="935.0363" y1="355.5616" x2="918.3563" y2="326.671" gradientTransform="matrix(-1 0 0 1 1104.1521 0)">
								<stop  offset="0" style="stop-color:#81897A"/>
								<stop  offset="1" style="stop-color:#5083C2;stop-opacity:0"/>
							</linearGradient>
							
								<rect x="170.2" y="326" style="fill:url(#SVGID_00000111891195626294925370000009721228306457215674_);" width="14.5" height="30.2"/>
						</g>
						<g>
							
								<rect x="167.3" y="315.9" transform="matrix(-1 -1.224647e-16 1.224647e-16 -1 360.6065 641.9578)" class="st31" width="26" height="10.1"/>
							
								<linearGradient id="SVGID_00000165200375927869966960000012500893902597326739_" gradientUnits="userSpaceOnUse" x1="933.0243" y1="328.2292" x2="924.6523" y2="313.7286" gradientTransform="matrix(-1 0 0 1 1104.1521 0)">
								<stop  offset="0" style="stop-color:#557F6C"/>
								<stop  offset="1" style="stop-color:#9CC1B2;stop-opacity:0"/>
							</linearGradient>
							<polygon style="fill:url(#SVGID_00000165200375927869966960000012500893902597326739_);" points="167.3,315.9 183.3,315.9 
								183.3,326 167.3,326 							"/>
						</g>
					</g>
				</g>
				
					<linearGradient id="SVGID_00000102541645711755847770000007859206642226805668_" gradientUnits="userSpaceOnUse" x1="193.2835" y1="336.0627" x2="183.3046" y2="336.0627">
					<stop  offset="0" style="stop-color:#F7E783;stop-opacity:0.5"/>
					<stop  offset="0.6882" style="stop-color:#5080BE;stop-opacity:0"/>
				</linearGradient>
				<polygon style="fill:url(#SVGID_00000102541645711755847770000007859206642226805668_);" points="193.3,315.9 193.3,326 
					190.4,326 190.4,343.7 184.7,356.2 184.7,326 183.3,326 183.3,315.9 				"/>
			</g>
			
				<linearGradient id="SVGID_00000057133396513458298750000015296494025305512365_" gradientUnits="userSpaceOnUse" x1="155.3882" y1="436.7944" x2="254.0483" y2="338.1342">
				<stop  offset="0" style="stop-color:#042430;stop-opacity:0.8"/>
				<stop  offset="0.5968" style="stop-color:#0C5566;stop-opacity:0"/>
			</linearGradient>
			<polygon style="fill:url(#SVGID_00000057133396513458298750000015296494025305512365_);" points="247.8,331.9 190.4,331.9 
				190.4,326 193.3,326 193.3,315.9 183.3,315.9 167.3,315.9 167.3,326 170.2,326 170.2,334.4 133,411.9 134.7,414.5 138.4,414.5 
				138.4,419.8 217.8,419.8 275,419.8 275,414.5 286.6,414.5 288.1,412.4 			"/>
		</g>
		<g>
			<g>
				<path class="st46" d="M171.7,408l-17.1-5.6l3.5-2.9l11.6-2l-2.1-10.8l-9.1,3.2l-0.9-4.4l8.5-6.2l-11.6-58.7l-9.4,1.2l-0.4-1.8
					l8.6-5.6l-19.7-99.5l-5.9,30l-11.4,1.5l12.3-8.1l-19.9-100.5l-13,65.5l-8.1-41L66.9,265.8l12.4,25.3l-0.4,0.3l-14.7-12l-1.7,8.6
					l-14.6,5.2l-0.4-2l17.2-12.6l-12.7-64l-14.6,1.9l13.2-8.7L29.2,99.5l-9.9,49.7L0,51.4V247v5.3v10.9v139.6v17.5l1.6,2.1L0,421.2
					v29.6h30.2l-7.4,37.5h67.5L97,497h58l29.5-24.7L171.7,408z M49.1,409.7l1,1.6l-2.8,0L49.1,409.7z M100.8,267.5l-0.3-0.2l0.1-0.1
					L100.8,267.5z M60.1,299.9l-0.9,4.4l16.8-2.7l-0.4,2.2l-7.5,5.1L49.9,303l-0.3-1.3L60.1,299.9z M16.7,162.9l-0.9,4.5l-7.5,1
					L16.7,162.9z M46.5,450.8l-0.1,0.4l-0.6-0.4H46.5z"/>
				
					<linearGradient id="SVGID_00000156562682489094833210000000309526310390972289_" gradientUnits="userSpaceOnUse" x1="92.2234" y1="496.9565" x2="92.2234" y2="51.3896">
					<stop  offset="0" style="stop-color:#FFFFFF;stop-opacity:0.4"/>
					<stop  offset="0.586" style="stop-color:#59B3CB;stop-opacity:0"/>
				</linearGradient>
				<path style="fill:url(#SVGID_00000156562682489094833210000000309526310390972289_);" d="M171.7,408l-17.1-5.6l3.5-2.9l11.6-2
					l-2.1-10.8l-9.1,3.2l-0.9-4.4l8.5-6.2l-11.6-58.7l-9.4,1.2l-0.4-1.8l8.6-5.6l-19.7-99.5l-5.9,30l-11.4,1.5l12.3-8.1l-19.9-100.5
					l-13,65.5l-8.1-41L66.9,265.8l12.4,25.3l-0.4,0.3l-14.7-12l-1.7,8.6l-14.6,5.2l-0.4-2l17.2-12.6l-12.7-64l-14.6,1.9l13.2-8.7
					L29.2,99.5l-9.9,49.7L0,51.4V247v5.3v10.9v139.6v17.5l1.6,2.1L0,421.2v29.6h30.2l-7.4,37.5h67.5L97,497h58l29.5-24.7L171.7,408z
					 M49.1,409.7l1,1.6l-2.8,0L49.1,409.7z M100.8,267.5l-0.3-0.2l0.1-0.1L100.8,267.5z M60.1,299.9l-0.9,4.4l16.8-2.7l-0.4,2.2
					l-7.5,5.1L49.9,303l-0.3-1.3L60.1,299.9z M16.7,162.9l-0.9,4.5l-7.5,1L16.7,162.9z M46.5,450.8l-0.1,0.4l-0.6-0.4H46.5z"/>
			</g>
			<g>
				<g>
					<polygon class="st6" points="224.5,434.3 204.4,425.2 213.1,401.7 0,401.7 0,500 126.5,500 185,500 192,500 189.9,491.9 					
						"/>
					
						<linearGradient id="SVGID_00000126298440081389104000000017264763161031875263_" gradientUnits="userSpaceOnUse" x1="50.7073" y1="529.2759" x2="146.5571" y2="363.2592">
						<stop  offset="0.5323" style="stop-color:#000000;stop-opacity:0.2"/>
						<stop  offset="1" style="stop-color:#5083C2;stop-opacity:0"/>
					</linearGradient>
					<polygon style="fill:url(#SVGID_00000126298440081389104000000017264763161031875263_);" points="224.5,434.3 204.4,425.2 
						213.1,401.7 0,401.7 0,500 126.5,500 185,500 192,500 189.9,491.9 					"/>
				</g>
				<g>
					<g>
						<path class="st14" d="M0,397c0,0,233.5-3,210.5,6S162,419.9,162,419.9s84.5,5.6,57,20.1S86,500,86,500H0V397z"/>
						<path class="st14" d="M94.5,500l92-17c0,0,6,12.5-18,17H94.5z"/>
					</g>
					<g>
						
							<linearGradient id="SVGID_00000098941656799467039370000012624482416868027321_" gradientUnits="userSpaceOnUse" x1="94.5" y1="491.5111" x2="187.1667" y2="491.5111">
							<stop  offset="0" style="stop-color:#042430;stop-opacity:0.8"/>
							<stop  offset="1" style="stop-color:#0C5566;stop-opacity:0"/>
						</linearGradient>
						<path style="fill:url(#SVGID_00000098941656799467039370000012624482416868027321_);" d="M94.5,500l92-17c0,0,6,12.5-18,17
							H94.5z"/>
						
							<linearGradient id="SVGID_00000131350417794193517320000001216468853182685351_" gradientUnits="userSpaceOnUse" x1="0" y1="418.0994" x2="169.9364" y2="418.0994">
							<stop  offset="0" style="stop-color:#042430;stop-opacity:0.8"/>
							<stop  offset="1" style="stop-color:#0C5566;stop-opacity:0"/>
						</linearGradient>
						<path style="fill:url(#SVGID_00000131350417794193517320000001216468853182685351_);" d="M31,413.4
							c-24-3.7,138.7-15.1,138.7-15.1l0.3-0.7c-59-1.9-160.2-0.7-169.3-0.6L0,397.7v42c0,0,89.3-16.7,114-24.5
							C138.7,407.4,55,417,31,413.4z"/>
						
							<linearGradient id="SVGID_00000045612733800297984950000006970255375054230403_" gradientUnits="userSpaceOnUse" x1="0" y1="468.7312" x2="158.8633" y2="468.7312">
							<stop  offset="0" style="stop-color:#042430;stop-opacity:0.8"/>
							<stop  offset="1" style="stop-color:#0C5566;stop-opacity:0"/>
						</linearGradient>
						<path style="fill:url(#SVGID_00000045612733800297984950000006970255375054230403_);" d="M57.3,491.5
							c-33.7,3.8,74.3-37.5,93-50.5C169,428,0,455,0,455v45h86c0,0,37-16,72.9-32l0,0C158.9,468,91,487.7,57.3,491.5z"/>
					</g>
					
						<linearGradient id="SVGID_00000051383509475849812730000013739644550178932893_" gradientUnits="userSpaceOnUse" x1="210.5478" y1="414.4684" x2="94.5" y2="414.4684">
						<stop  offset="0" style="stop-color:#F7E783;stop-opacity:0.5"/>
						<stop  offset="0.6882" style="stop-color:#5080BE;stop-opacity:0"/>
					</linearGradient>
					<path style="fill:url(#SVGID_00000051383509475849812730000013739644550178932893_);" d="M169.7,397.5l-75.2,33.8l116-30.6
						C210.5,400.8,208.5,398.7,169.7,397.5z"/>
				</g>
			</g>
		</g>
		<g>
			<path class="st46" d="M742.6,79.3L723.6,175l-5.1-25.9l-22.1,111.3l8.2,16.8l-1.5,1l-0.8,4l-8.8-7.2l-5.3,26.8l10.6-1.7l-1.4,6.9
				l-11.8,8l-5.2,26l-6.7-34.1l-11.9,1.6l10.8-7.1l-17.5-88.5l-18,91.1l11.3,23.1l-11.2-9.2l-10.7-53.9L615.8,318l-3.4-17.2
				L599.8,364l5.4,11.1l-0.9,0.6l-0.3,1.4l-5.9-4.8l-3,15.2l7-1.1l-0.6,3.3l-7.9,5.3l-9.6,48.5l5.1,8.7l-0.6,2.9l-5.7-5.8l-2.6,13.4
				l5.4,7l-1.1,5.7l-6-4.1l-5.7,28.7h6.8h18.5H649h2.8h7.4h13.9h38.8H750v-39.3v-11.5v-93.2v-6.7V338v-7.1v-22.7V116.8L742.6,79.3z
				 M638.4,341.8l-6.5,0.9l8.9-5.8l-0.1-0.5l7.6-1.2L638.4,341.8z M672.8,379.6l-3.1-1l3.4-0.6L672.8,379.6z M675.6,365.5l-0.8,4.2
				l-9.3,3.3L675.6,365.5z"/>
			<polygon class="st46" points="48.4,479.3 47.6,475.4 56.5,473.8 54.7,464.9 46.1,467.9 45.5,464.6 53.5,458.7 43.9,410.2 
				34.1,411.4 34.9,410.9 34.7,410.3 42.9,405 26.6,322.7 22,345.9 7.9,274.9 0,314.8 0,377.7 1.6,381.1 0,379.7 0,388.7 1.6,388.4 
				0,389.5 0,500 61.7,500 58.2,482.5 			"/>
		</g>
	</g>
</g>
</svg>
