<?xml version="1.0" encoding="utf-8"?>
<!-- Generator: Adobe Illustrator 26.0.3, SVG Export Plug-In . SVG Version: 6.00 Build 0)  -->
<svg version="1.1" id="Слой_1" xmlns="http://www.w3.org/2000/svg" xmlns:xlink="http://www.w3.org/1999/xlink" x="0px" y="0px"
	 viewBox="0 0 1366 768" style="enable-background:new 0 0 1366 768;" xml:space="preserve">
<style type="text/css">
	.st0{display:none;}
	.st1{display:inline;}
	.st2{fill:#FFFFFF;}
	.st3{fill:url(#SVGID_1_);}
	.st4{fill:url(#SVGID_00000165933433800199747730000001499125581400510607_);}
	.st5{fill:url(#SVGID_00000111159851908032484200000015644065593564010170_);}
	.st6{fill:url(#SVGID_00000043444917113395586550000006264594322276194712_);}
	.st7{fill:url(#SVGID_00000154397434790955833630000001228943888395293063_);}
	.st8{fill:url(#SVGID_00000183228753381564361300000010065388382507759514_);}
	.st9{fill:#20274C;}
	.st10{fill:url(#SVGID_00000115514614172176345620000002333388153751978663_);}
	.st11{fill:url(#SVGID_00000065764876067480148210000013187605274728970884_);}
	.st12{fill:url(#SVGID_00000034090411588750630990000011893039683733829563_);}
	.st13{fill:url(#SVGID_00000076603755706916511090000010874989821133383568_);}
	.st14{fill:url(#SVGID_00000146457746799552137750000012572059400918479796_);}
	.st15{fill:url(#SVGID_00000100364350361353585310000011201718607383499653_);}
	.st16{fill:url(#SVGID_00000039109552816656667730000018404127066976747689_);}
	.st17{fill:url(#SVGID_00000060748638753085700540000011894583537806707613_);}
	.st18{fill:url(#SVGID_00000102516790316282795570000010965762971268126119_);}
	.st19{fill:url(#SVGID_00000088820478132895180900000006017124223489588618_);}
	.st20{fill:url(#SVGID_00000017507144733984926570000018246700819252743083_);}
	.st21{fill:url(#SVGID_00000030487588279756429960000002684783696066504610_);}
	.st22{fill:url(#SVGID_00000009561421147566186440000005314185149948796035_);}
	.st23{fill:url(#SVGID_00000152965609282076531520000007944136008617228183_);}
	.st24{fill:url(#SVGID_00000140713061742567639440000008876904400761100936_);}
	.st25{fill:url(#SVGID_00000053525950855727024370000011919817536716428436_);}
	.st26{fill:url(#SVGID_00000054263867951365827980000017472226127768729731_);}
	.st27{fill:url(#SVGID_00000029038512149882075880000003103733994643507848_);}
	.st28{fill:url(#SVGID_00000028304074795982005440000004318570133276249002_);}
	.st29{fill:url(#SVGID_00000057834416005625503080000008942127063894453172_);}
	.st30{fill:url(#SVGID_00000097495790335471837980000013280614902403790746_);}
	.st31{fill:url(#SVGID_00000153677993111172242590000004329996255389169839_);}
	.st32{fill:url(#SVGID_00000138551168576280565630000015733243603146542733_);}
	.st33{fill:url(#SVGID_00000013911666356870316940000004214470721677848461_);}
	.st34{fill:url(#SVGID_00000012436627299289037620000004145218706609798835_);}
	.st35{fill:url(#SVGID_00000048494663159151420760000008427845142145425821_);}
	.st36{fill:url(#SVGID_00000028319620479798806160000013006548619829101956_);}
	.st37{fill:url(#SVGID_00000116220704247161420700000004291121161356455337_);}
	.st38{fill:url(#SVGID_00000124840638984421005180000007676579075220456610_);}
	.st39{fill:url(#SVGID_00000022532120895992811520000003240933418711016593_);}
	.st40{fill:url(#SVGID_00000163759240384636134240000015971111567709158307_);}
	.st41{fill:url(#SVGID_00000182491845987643812270000014632284314299166613_);}
	.st42{fill:url(#SVGID_00000121979675132989827060000001497945347391963027_);}
	.st43{fill:url(#SVGID_00000182514363160662634620000009646144960402608301_);}
	.st44{fill:url(#SVGID_00000038414970129641165510000011438060489719741603_);}
	.st45{fill:url(#SVGID_00000160891519301036995710000014766920009611671447_);}
	.st46{fill:url(#SVGID_00000084520629804258883240000006699136501345705618_);}
	.st47{fill:none;}
</style>
<g>
	<g class="st0">
		
			<image style="display:inline;overflow:visible;opacity:0.75;enable-background:new    ;" width="2271" height="1704" xlink:href="29FFE787.png"  transform="matrix(0.6376 0 0 0.4865 -33 -25)">
		</image>
		<g class="st1">
			<rect x="-1.3" y="-0.7" class="st2" width="1369" height="768"/>
		</g>
	</g>
	<g>
		
			<linearGradient id="SVGID_1_" gradientUnits="userSpaceOnUse" x1="961.7598" y1="591.5993" x2="961.7598" y2="242.4973" gradientTransform="matrix(1 0 0 1 0 -2.288818e-05)">
			<stop  offset="0" style="stop-color:#E3807E"/>
			<stop  offset="0.6344" style="stop-color:#FACEAE"/>
		</linearGradient>
		<polygon class="st3" points="555.9,638.7 863.2,450.5 1104.8,397.7 1269.1,306.8 1305.6,317.6 1367.7,276.1 1367.7,710.6 
			683.7,721.4 		"/>
		
			<linearGradient id="SVGID_00000048472761639542165530000010876523387116908956_" gradientUnits="userSpaceOnUse" x1="683.174" y1="767.3038" x2="683.174" y2="-6.8906" gradientTransform="matrix(1 0 0 1 0 -2.288818e-05)">
			<stop  offset="0.37" style="stop-color:#FACEAE"/>
			<stop  offset="0.6667" style="stop-color:#45B2C2"/>
			<stop  offset="1" style="stop-color:#20274C"/>
		</linearGradient>
		
			<rect x="-1.3" y="-0.7" style="fill:url(#SVGID_00000048472761639542165530000010876523387116908956_);" width="1369" height="768"/>
		
			<linearGradient id="SVGID_00000159441812821874080070000009915245150998295196_" gradientUnits="userSpaceOnUse" x1="1061.8259" y1="538.9083" x2="1020.9868" y2="417.4948" gradientTransform="matrix(1 0 0 1 0 -2.288818e-05)">
			<stop  offset="0.6613" style="stop-color:#FFFFFF;stop-opacity:0"/>
			<stop  offset="1" style="stop-color:#FFFFFF"/>
		</linearGradient>
		<path style="fill:url(#SVGID_00000159441812821874080070000009915245150998295196_);" d="M1056,510.8
			c69.8-7.9,125.4-7.7,165.7-5.3c32.8-9.6,56.2-33.7,56.2-62.2c0-36.8-39.2-66.5-87.1-66.5c-14.9,0-29,2.8-41.3,7.9
			c-23.7-17.3-55.7-27.8-91.1-27.8c-53.3,0-99.1,24-119.9,58.7c-7.5-1.6-14.9-2.4-22.9-2.4c-30.1,0-56.7,11.8-72.4,29.7
			c-6.9-2.6-14.6-4.1-22.6-4.1c-15.4,0-29.6,5.3-38.9,13.6C857.6,484.8,943.9,523.6,1056,510.8z"/>
		<g>
			
				<linearGradient id="SVGID_00000027598374820019603310000018201046302340266931_" gradientUnits="userSpaceOnUse" x1="303.6107" y1="547.2776" x2="324.5944" y2="359.8225" gradientTransform="matrix(1 0 0 1 0 -2.288818e-05)">
				<stop  offset="0.6613" style="stop-color:#FFFFFF;stop-opacity:0"/>
				<stop  offset="1" style="stop-color:#FFFFFF"/>
			</linearGradient>
			<path style="fill:url(#SVGID_00000027598374820019603310000018201046302340266931_);" d="M165.7,431.4c0,0,59.4,10.2,124.4,17.7
				c46.6,5.3,65,24.4,93.2,37.8c48.5-11.8,82-32.3,110.5-32.3c17.3,0,36.8-9.8,60.5-19.5c-7.7-6.7-17.3-12.4-28.5-16.7
				c-13.6-4.9-27.7-6.9-41.8-6.3c-11.7-23.4-34.6-43.5-66.6-55.1c-47.9-17.5-103.1-10.8-141.4,13.6c-5.9-3.9-12.3-7.1-19.4-9.8
				c-27.4-10-58.1-7.9-82,3c-4.8-4.7-10.9-8.5-18.1-11.2c-25.6-9.1-55.9-1-67.9,18.5c-12,19.5-1.3,42.7,24.2,51.8
				c6.4,2.4,13.3,3.5,20,3.7c2.7,22.8,20.5,43.7,49.3,54.3c3.2,1,6.1,2,9.3,2.8L165.7,431.4z"/>
		</g>
		
			<linearGradient id="SVGID_00000042701242565150600530000000083124686920518071_" gradientUnits="userSpaceOnUse" x1="797.5647" y1="736.0084" x2="797.5647" y2="411.1122" gradientTransform="matrix(1 0 0 1 0 -2.288818e-05)">
			<stop  offset="0.4516" style="stop-color:#E3807E;stop-opacity:0.3"/>
			<stop  offset="1" style="stop-color:#20274C"/>
		</linearGradient>
		<path style="fill:url(#SVGID_00000042701242565150600530000000083124686920518071_);" d="M297,494.2
			c99.9,7.1,153.9-39.6,196.8-39.6s100.4-59.9,199.5-34.5s205.6,108.7,362.7,91c157.1-17.7,242.1,4.9,242.1,4.9l-29,196.3L741,736
			l-406.7-71.5L297,494.2z"/>
		
			<linearGradient id="SVGID_00000072983838314054483410000006084946011708062102_" gradientUnits="userSpaceOnUse" x1="509.2745" y1="600.7247" x2="520.4507" y2="527.5717" gradientTransform="matrix(1 0 0 1 0 -2.288818e-05)">
			<stop  offset="0.6828" style="stop-color:#FACEAE;stop-opacity:0.3"/>
			<stop  offset="1" style="stop-color:#20274C"/>
		</linearGradient>
		<path style="fill:url(#SVGID_00000072983838314054483410000006084946011708062102_);" d="M717.5,569.4
			c-30.4-21.1-82-44.9-190.2-44.9c-55.9,0-122.8-35.8-188-30.3c-65.3,5.5,52.5,129.9,52.5,129.9l161.1-19.3
			C628,592.7,674.9,578.5,717.5,569.4z"/>
		<polygon class="st9" points="1020.6,535.8 1039,535.8 1028.6,513.1 		"/>
		<polygon class="st9" points="1046.7,531.6 1065.1,531.6 1054.4,508.8 		"/>
		<polygon class="st9" points="1006.5,541.1 1024.9,541.1 1014.5,518.2 		"/>
		<polygon class="st9" points="1033.7,539.7 1052,539.7 1041.7,516.7 		"/>
		<polygon class="st9" points="585.7,529.5 604.3,529.5 593.7,506.8 		"/>
		<polygon class="st9" points="404.6,505 423,505 412.6,482.2 		"/>
		<polygon class="st9" points="388.1,500.9 406.5,500.9 396.1,477.9 		"/>
		<polygon class="st9" points="602.5,531.6 615.5,531.6 608.1,515.5 		"/>
		<polygon class="st9" points="379.3,498.2 392.3,498.2 384.9,482.2 		"/>
		<polygon class="st9" points="420.3,506.8 431,506.8 424.8,493.6 		"/>
		
			<linearGradient id="SVGID_00000000198643612272453960000010617966619393578389_" gradientUnits="userSpaceOnUse" x1="841.1326" y1="651.9488" x2="837.0716" y2="556.5133" gradientTransform="matrix(1 0 0 1 0 -2.288818e-05)">
			<stop  offset="0.6828" style="stop-color:#FACEAE;stop-opacity:0.3"/>
			<stop  offset="1" style="stop-color:#20274C"/>
		</linearGradient>
		<path style="fill:url(#SVGID_00000000198643612272453960000010617966619393578389_);" d="M529.5,608.2
			c157.1-22.4,199.5-55.5,298.6-47.3c99.1,8.1,115.6-37.4,265.3-30.5c149.9,6.9-62.3,152.4-62.3,152.4l-440.3,9.6L529.5,608.2z"/>
		
			<linearGradient id="SVGID_00000031914010397416914810000003374577245306824103_" gradientUnits="userSpaceOnUse" x1="1120.0956" y1="655.1279" x2="1120.0956" y2="354.8221" gradientTransform="matrix(1 0 0 1 0 -2.288818e-05)">
			<stop  offset="0.4731" style="stop-color:#20274C"/>
			<stop  offset="1" style="stop-color:#E3807E"/>
		</linearGradient>
		<path style="fill:url(#SVGID_00000031914010397416914810000003374577245306824103_);" d="M872.5,633.4c0,0,155.5-73.2,230.1-114.2
			c74.6-41.3,207.7-154.9,265-162c0,97.3,0,297.9,0,297.9L872.5,633.4z"/>
		
			<linearGradient id="SVGID_00000047045346112441337100000003080653027980953522_" gradientUnits="userSpaceOnUse" x1="800.0948" y1="647.2024" x2="800.0948" y2="615.535" gradientTransform="matrix(1 0 0 1 0 -2.288818e-05)">
			<stop  offset="5.376340e-03" style="stop-color:#FACEAE"/>
			<stop  offset="0.6774" style="stop-color:#E3807E"/>
			<stop  offset="1" style="stop-color:#B65D5D"/>
		</linearGradient>
		<polygon style="fill:url(#SVGID_00000047045346112441337100000003080653027980953522_);" points="787.3,647.2 812.9,647.2 
			798.2,615.5 		"/>
		
			<linearGradient id="SVGID_00000128467084152179563170000001013141481815700408_" gradientUnits="userSpaceOnUse" x1="1006.504" y1="602.0881" x2="1006.504" y2="567.5412" gradientTransform="matrix(1 0 0 1 0 -2.288818e-05)">
			<stop  offset="0.4462" style="stop-color:#0F5B87"/>
			<stop  offset="1" style="stop-color:#45B2C2"/>
		</linearGradient>
		<polygon style="fill:url(#SVGID_00000128467084152179563170000001013141481815700408_);" points="992.7,602.1 1020.4,602.1 
			1004.6,567.5 		"/>
		
			<linearGradient id="SVGID_00000128460911703056501700000014575870187047685022_" gradientUnits="userSpaceOnUse" x1="836.3163" y1="635.9645" x2="836.3163" y2="604.2971" gradientTransform="matrix(1 0 0 1 0 -2.288818e-05)">
			<stop  offset="5.376340e-03" style="stop-color:#FACEAE"/>
			<stop  offset="0.6774" style="stop-color:#E3807E"/>
			<stop  offset="1" style="stop-color:#B65D5D"/>
		</linearGradient>
		<polygon style="fill:url(#SVGID_00000128460911703056501700000014575870187047685022_);" points="823.5,636 849.1,636 
			834.7,604.3 		"/>
		
			<linearGradient id="SVGID_00000038409713900289172220000001371412612386994862_" gradientUnits="userSpaceOnUse" x1="708.6089" y1="668.0546" x2="708.6089" y2="615.5574" gradientTransform="matrix(1 0 0 1 0 -2.288818e-05)">
			<stop  offset="5.376340e-03" style="stop-color:#FACEAE"/>
			<stop  offset="0.6774" style="stop-color:#E3807E"/>
			<stop  offset="1" style="stop-color:#B65D5D"/>
		</linearGradient>
		<polygon style="fill:url(#SVGID_00000038409713900289172220000001371412612386994862_);" points="687.4,668.1 729.8,668.1 
			705.8,615.5 		"/>
		
			<linearGradient id="SVGID_00000096034954991425735520000002225478858741137061_" gradientUnits="userSpaceOnUse" x1="740.0364" y1="660.818" x2="740.0364" y2="608.3208" gradientTransform="matrix(1 0 0 1 0 -2.288818e-05)">
			<stop  offset="5.376340e-03" style="stop-color:#FACEAE"/>
			<stop  offset="0.6774" style="stop-color:#E3807E"/>
			<stop  offset="1" style="stop-color:#B65D5D"/>
		</linearGradient>
		<polygon style="fill:url(#SVGID_00000096034954991425735520000002225478858741137061_);" points="718.9,660.8 761.2,660.8 
			737.2,608.2 		"/>
		
			<linearGradient id="SVGID_00000128481260898567074700000010505321560792019641_" gradientUnits="userSpaceOnUse" x1="763.7402" y1="657.6396" x2="763.7402" y2="625.9723" gradientTransform="matrix(1 0 0 1 0 -2.288818e-05)">
			<stop  offset="5.376340e-03" style="stop-color:#FACEAE"/>
			<stop  offset="0.6774" style="stop-color:#E3807E"/>
			<stop  offset="1" style="stop-color:#B65D5D"/>
		</linearGradient>
		<polygon style="fill:url(#SVGID_00000128481260898567074700000010505321560792019641_);" points="751.1,657.6 776.4,657.6 
			762,626.1 		"/>
		
			<linearGradient id="SVGID_00000143580092830055690440000016507050740154754691_" gradientUnits="userSpaceOnUse" x1="784.9138" y1="661.1126" x2="784.9138" y2="629.4453" gradientTransform="matrix(1 0 0 1 0 -2.288818e-05)">
			<stop  offset="5.376340e-03" style="stop-color:#FACEAE"/>
			<stop  offset="0.6774" style="stop-color:#E3807E"/>
			<stop  offset="1" style="stop-color:#B65D5D"/>
		</linearGradient>
		<polygon style="fill:url(#SVGID_00000143580092830055690440000016507050740154754691_);" points="772.1,661 797.7,661 783,629.5 
					"/>
		
			<linearGradient id="SVGID_00000046324935571801078220000016998758322746064038_" gradientUnits="userSpaceOnUse" x1="683.174" y1="658.6558" x2="683.174" y2="626.9884" gradientTransform="matrix(1 0 0 1 0 -2.288818e-05)">
			<stop  offset="5.376340e-03" style="stop-color:#FACEAE"/>
			<stop  offset="0.6774" style="stop-color:#E3807E"/>
			<stop  offset="1" style="stop-color:#B65D5D"/>
		</linearGradient>
		<polygon style="fill:url(#SVGID_00000046324935571801078220000016998758322746064038_);" points="670.4,658.6 696,658.6 
			681.6,627.1 		"/>
		
			<linearGradient id="SVGID_00000157995354178635544010000001339338552022124951_" gradientUnits="userSpaceOnUse" x1="663.8648" y1="650.3584" x2="663.8648" y2="618.691" gradientTransform="matrix(1 0 0 1 0 -2.288818e-05)">
			<stop  offset="5.376340e-03" style="stop-color:#FACEAE"/>
			<stop  offset="0.6774" style="stop-color:#E3807E"/>
			<stop  offset="1" style="stop-color:#B65D5D"/>
		</linearGradient>
		<polygon style="fill:url(#SVGID_00000157995354178635544010000001339338552022124951_);" points="651.2,650.5 676.5,650.5 
			662.1,618.8 		"/>
		
			<linearGradient id="SVGID_00000178918638378321273390000018302713769077766794_" gradientUnits="userSpaceOnUse" x1="644.2892" y1="645.278" x2="644.2892" y2="613.6106" gradientTransform="matrix(1 0 0 1 0 -2.288818e-05)">
			<stop  offset="5.376340e-03" style="stop-color:#FACEAE"/>
			<stop  offset="0.6774" style="stop-color:#E3807E"/>
			<stop  offset="1" style="stop-color:#B65D5D"/>
		</linearGradient>
		<polygon style="fill:url(#SVGID_00000178918638378321273390000018302713769077766794_);" points="631.5,645.4 657.1,645.4 
			642.4,613.7 		"/>
		
			<linearGradient id="SVGID_00000097481463204340903880000004187751742832884615_" gradientUnits="userSpaceOnUse" x1="357.1708" y1="354.9044" x2="375.3346" y2="627.3514" gradientTransform="matrix(1 0 0 1 0 -2.288818e-05)">
			<stop  offset="0.3656" style="stop-color:#FACEAE"/>
			<stop  offset="0.8226" style="stop-color:#E3807E"/>
		</linearGradient>
		<polygon style="fill:url(#SVGID_00000097481463204340903880000004187751742832884615_);" points="759.9,692.3 493.8,537.3 
			285,472.4 37.3,364.1 -1.3,373.9 -1.3,680.9 		"/>
		
			<linearGradient id="SVGID_00000162352921208662666270000014810833041471558026_" gradientUnits="userSpaceOnUse" x1="-1.3054" y1="527.7106" x2="702.6165" y2="527.7106" gradientTransform="matrix(1 0 0 1 0 -2.288818e-05)">
			<stop  offset="0.3656" style="stop-color:#0F5B87"/>
			<stop  offset="1" style="stop-color:#E3807E"/>
		</linearGradient>
		<polygon style="fill:url(#SVGID_00000162352921208662666270000014810833041471558026_);" points="63.9,385.3 167.8,484.6 
			190.5,584.8 228.3,476.3 317,537.1 366.2,642.5 366.2,547.6 502.6,572.4 702.6,660.6 693.3,691.3 -1.3,678.3 -1.3,373.9 
			37.3,364.1 		"/>
		
			<linearGradient id="SVGID_00000141432730640857890730000005639037203611723690_" gradientUnits="userSpaceOnUse" x1="890.9149" y1="716.7028" x2="890.9149" y2="523.6462" gradientTransform="matrix(1 0 0 1 0 -2.288818e-05)">
			<stop  offset="9.677420e-02" style="stop-color:#20274C"/>
			<stop  offset="0.6344" style="stop-color:#0F5B87"/>
		</linearGradient>
		<path style="fill:url(#SVGID_00000141432730640857890730000005639037203611723690_);" d="M414.2,692.3
			c346.2,0,708.4-168.7,953.5-168.7c0,52.8,0,193.1,0,193.1L414.2,692.3z"/>
		<g>
			<path class="st2" d="M286.6,70.3c0,3-3.2,5.3-6.9,5.3c-4,0-6.9-2.4-6.9-5.3c0-3,3.2-5.3,6.9-5.3
				C283.4,64.8,286.6,67.2,286.6,70.3z"/>
			<path class="st2" d="M683.2,51.4c0,3-3.2,5.3-6.9,5.3c-4,0-6.9-2.4-6.9-5.3c0-3,3.2-5.3,6.9-5.3S683.2,48.5,683.2,51.4z"/>
			<path class="st2" d="M1118.1,119.9c0,3-3.2,5.3-6.9,5.3c-4,0-6.9-2.4-6.9-5.3c0-3,3.2-5.3,6.9-5.3
				C1114.9,114.6,1118.1,117,1118.1,119.9z"/>
			<path class="st2" d="M129.5,49.1c0,3-3.2,5.3-6.9,5.3c-4,0-6.9-2.4-6.9-5.3c0-3,3.2-5.3,6.9-5.3S129.5,46.3,129.5,49.1z"/>
			<path class="st2" d="M192.3,158.1c0,1.6-1.9,3-4,3c-2.1,0-4-1.4-4-3c0-1.6,1.9-3,4-3C190.5,155,192.3,156.4,192.3,158.1z"/>
			<path class="st2" d="M496.5,75.6c0,1.6-1.9,3-4,3s-4-1.4-4-3c0-1.6,1.9-3,4-3C494.9,72.5,496.5,73.9,496.5,75.6z"/>
			<path class="st2" d="M597.9,70.9c0,1.6-1.9,3-4,3s-4-1.4-4-3c0-1.6,1.9-3,4-3S597.9,69.3,597.9,70.9z"/>
			<path class="st2" d="M1108,173.3c0,1.6-1.9,3-4,3c-2.1,0-4-1.4-4-3c0-1.6,1.9-3,4-3C1106.1,170.3,1108,171.5,1108,173.3z"/>
			<path class="st2" d="M446.9,199.1c0,0.8-0.8,1.6-2.1,1.6c-1.1,0-2.1-0.6-2.1-1.6c0-0.8,0.8-1.6,2.1-1.6
				C446.1,197.7,446.9,198.3,446.9,199.1z"/>
			<path class="st2" d="M262.9,44.5c0,0.8-0.8,1.6-2.1,1.6c-1.1,0-2.1-0.6-2.1-1.6c0-0.8,0.8-1.6,2.1-1.6
				C261.8,42.8,262.9,43.6,262.9,44.5z"/>
			<path class="st2" d="M223.2,45.9c0,0.8-0.8,1.6-2.1,1.6c-1.1,0-2.1-0.6-2.1-1.6c0-0.8,0.8-1.6,2.1-1.6
				C222.4,44.5,223.2,45.1,223.2,45.9z"/>
			<path class="st2" d="M317.8,86.3c0,0.8-0.8,1.6-2.1,1.6c-1.1,0-2.1-0.6-2.1-1.6c0-0.8,0.8-1.6,2.1-1.6
				C317,84.9,317.8,85.5,317.8,86.3z"/>
			<path class="st2" d="M221.1,81.6c0,0.8-0.8,1.6-2.1,1.6c-1.1,0-2.1-0.6-2.1-1.6c0-0.8,0.8-1.6,2.1-1.6
				C220.3,80.2,221.1,80.8,221.1,81.6z"/>
			<path class="st2" d="M141.7,81.6c0,0.8-0.8,1.6-2.1,1.6c-1.1,0-2.1-0.6-2.1-1.6c0-1,0.8-1.6,2.1-1.6
				C140.7,80.2,141.7,80.8,141.7,81.6z"/>
			<path class="st2" d="M733,47.7c0,0.8-0.8,1.6-2.1,1.6c-1.1,0-2.1-0.6-2.1-1.6c0-0.8,0.8-1.6,2.1-1.6
				C731.9,46.1,733,46.7,733,47.7z"/>
			<path class="st2" d="M434.2,72.5c0,0.8-0.8,1.6-2.1,1.6c-1.3,0-2.1-0.6-2.1-1.6c0-1,0.8-1.6,2.1-1.6
				C433.4,70.9,434.2,71.7,434.2,72.5z"/>
			<path class="st2" d="M508.5,53c0,0.8-0.8,1.6-2.1,1.6c-1.1,0-2.1-0.6-2.1-1.6s0.8-1.6,2.1-1.6S508.5,52.2,508.5,53z"/>
			<path class="st2" d="M997.2,121.5c0,0.8-0.8,1.6-2.1,1.6c-1.1,0-2.1-0.6-2.1-1.6c0-0.8,0.8-1.6,2.1-1.6
				C996.1,119.9,997.2,120.7,997.2,121.5z"/>
			<path class="st2" d="M937,214.1c0,0.8-0.8,1.6-2.1,1.6c-1.1,0-2.1-0.6-2.1-1.6s0.8-1.6,2.1-1.6C935.9,212.5,937,213.3,937,214.1z
				"/>
			<path class="st2" d="M1106.1,228c0,0.8-0.8,1.6-2.1,1.6c-1.1,0-2.1-0.6-2.1-1.6c0-0.8,0.8-1.6,2.1-1.6
				C1105,226.3,1106.1,227.2,1106.1,228z"/>
			<path class="st2" d="M1004.1,187.5c0,0.8-0.8,1.6-2.1,1.6s-2.1-0.6-2.1-1.6c0-0.8,0.8-1.6,2.1-1.6S1004.1,186.7,1004.1,187.5z"/>
			<path class="st2" d="M1209.7,285.1c0,0.8-0.8,1.6-2.1,1.6c-1.1,0-2.1-0.6-2.1-1.6c0-0.8,0.8-1.6,2.1-1.6
				S1209.7,284.1,1209.7,285.1z"/>
			<path class="st2" d="M1192.4,226.3c0,0.8-0.8,1.6-2.1,1.6c-1.1,0-2.1-0.6-2.1-1.6s0.8-1.6,2.1-1.6
				C1191.3,224.7,1192.4,225.5,1192.4,226.3z"/>
			<path class="st2" d="M977.2,253.4c0,0.8-0.8,1.6-2.1,1.6c-1.1,0-2.1-0.6-2.1-1.6s0.8-1.6,2.1-1.6S977.2,252.4,977.2,253.4z"/>
			<path class="st2" d="M813.4,174.7c0,0.8-0.8,1.6-2.1,1.6c-1.1,0-2.1-0.6-2.1-1.6c0-0.8,0.8-1.6,2.1-1.6
				C812.3,173.3,813.4,173.9,813.4,174.7z"/>
			<path class="st2" d="M919.4,139.8c0,0.8-0.8,1.6-2.1,1.6c-1.1,0-2.1-0.6-2.1-1.6c0-0.8,0.8-1.6,2.1-1.6S919.4,139,919.4,139.8z"
				/>
			<path class="st2" d="M646.4,83.3c0,0.8-0.8,1.6-2.1,1.6c-1.1,0-2.1-0.6-2.1-1.6c0-1,0.8-1.6,2.1-1.6S646.4,82.5,646.4,83.3z"/>
			<path class="st2" d="M1304.5,124.5c0,0.8-0.8,1.6-2.1,1.6c-1.1,0-2.1-0.6-2.1-1.6c0-0.8,0.8-1.6,2.1-1.6
				C1303.5,122.9,1304.5,123.5,1304.5,124.5z"/>
			<path class="st2" d="M1285.6,242.6c0,0.8-0.8,1.6-2.1,1.6c-1.1,0-2.1-0.6-2.1-1.6c0-0.8,0.8-1.6,2.1-1.6
				S1285.6,241.8,1285.6,242.6z"/>
			<path class="st2" d="M1196.4,164.2c0,0.8-0.8,1.6-2.1,1.6c-1.1,0-2.1-0.6-2.1-1.6s0.8-1.6,2.1-1.6S1196.4,163.3,1196.4,164.2z"/>
			<path class="st2" d="M591.8,42.8c0,0.8-0.8,1.6-2.1,1.6c-1.1,0-2.1-0.6-2.1-1.6c0-0.8,0.8-1.6,2.1-1.6
				C591,41.2,591.8,42,591.8,42.8z"/>
			<path class="st2" d="M396.9,64.8c0,0.8-0.8,1.6-2.1,1.6c-1.1,0-2.1-0.6-2.1-1.6c0-1,0.8-1.6,2.1-1.6
				C396.1,63.4,396.9,64,396.9,64.8z"/>
			<path class="st2" d="M606.7,108.1c0,3-3.2,5.3-6.9,5.3c-4,0-6.9-2.4-6.9-5.3c0-3,3.2-5.3,6.9-5.3
				C603.5,102.8,606.7,105,606.7,108.1z"/>
			<path class="st2" d="M468.8,130.6c0,1.6-1.9,3-4,3s-4-1.4-4-3s1.9-3,4-3C467.2,127.6,468.8,129,468.8,130.6z"/>
			<path class="st2" d="M737,122.9c0,1.6-1.9,3-4,3s-4-1.4-4-3s1.9-3,4-3S737,121.3,737,122.9z"/>
			<path class="st2" d="M570.2,125.9c0,1.6-1.9,3-4,3s-4-1.4-4-3c0-1.6,1.9-3,4-3S570.2,124.3,570.2,125.9z"/>
			<path class="st2" d="M705.3,102.8c0,0.8-0.8,1.6-2.1,1.6c-1.1,0-2.1-0.6-2.1-1.6c0-0.8,0.8-1.6,2.1-1.6
				C704.2,101.2,705.3,101.8,705.3,102.8z"/>
			<path class="st2" d="M757.5,118.4c0,0.8-0.8,1.6-2.1,1.6c-1.1,0-2.1-0.6-2.1-1.6c0-0.8,0.8-1.6,2.1-1.6
				C756.4,116.8,757.5,117.6,757.5,118.4z"/>
			<path class="st2" d="M406.5,127.6c0,0.8-0.8,1.6-2.1,1.6s-2.1-0.6-2.1-1.6s0.8-1.6,2.1-1.6S406.5,126.8,406.5,127.6z"/>
			<path class="st2" d="M480.8,108.1c0,0.8-0.8,1.6-2.1,1.6c-1.1,0-2.1-0.6-2.1-1.6c0-1,0.8-1.6,2.1-1.6
				C480,106.4,480.8,107.3,480.8,108.1z"/>
			<path class="st2" d="M794,130.6c0,0.8-0.8,1.6-2.1,1.6c-1.1,0-2.1-0.6-2.1-1.6c0-0.8,0.8-1.6,2.1-1.6
				C793.2,129,794,129.8,794,130.6z"/>
			<path class="st2" d="M618.7,138.3c0,0.8-0.8,1.6-2.1,1.6c-1.1,0-2.1-0.6-2.1-1.6c0-1,0.8-1.6,2.1-1.6
				C617.9,136.9,618.7,137.5,618.7,138.3z"/>
			<path class="st2" d="M564.1,97.9c0,0.8-0.8,1.6-2.1,1.6c-1.1,0-2.1-0.6-2.1-1.6c0-0.8,0.8-1.6,2.1-1.6
				C563.3,96.5,564.1,97.1,564.1,97.9z"/>
			<path class="st2" d="M369.2,119.9c0,0.8-0.8,1.6-2.1,1.6c-1.1,0-2.1-0.6-2.1-1.6c0-0.8,0.8-1.6,2.1-1.6
				C368.4,118.4,369.2,119,369.2,119.9z"/>
			<path class="st2" d="M183.5,130.4c0,1.6-1.9,3-4,3c-2.1,0-4-1.4-4-3s1.9-3,4-3C181.7,127.4,183.5,128.8,183.5,130.4z"/>
			<path class="st2" d="M120.9,127.4c0,0.8-0.8,1.6-2.1,1.6c-1.1,0-2.1-0.6-2.1-1.6c0-0.8,0.8-1.6,2.1-1.6
				C120.1,125.7,120.9,126.4,120.9,127.4z"/>
			<path class="st2" d="M195.5,107.9c0,0.8-0.8,1.6-2.1,1.6c-1.3,0-2.1-0.6-2.1-1.6c0-0.8,0.8-1.6,2.1-1.6
				C194.7,106.2,195.5,107.1,195.5,107.9z"/>
			<path class="st2" d="M83.9,119.7c0,0.8-0.8,1.6-2.1,1.6c-1.1,0-2.1-0.6-2.1-1.6c0-0.8,0.8-1.6,2.1-1.6
				C82.9,118.2,83.9,118.8,83.9,119.7z"/>
			<path class="st2" d="M354.8,125.9c0,0.8-0.8,1.6-2.1,1.6c-1.1,0-2.1-0.6-2.1-1.6c0-0.8,0.8-1.6,2.1-1.6
				C354,124.5,354.8,125.1,354.8,125.9z"/>
			<path class="st2" d="M260.8,190.6c0,0.8-0.8,1.6-2.1,1.6c-1.1,0-2.1-0.6-2.1-1.6c0-0.8,0.8-1.6,2.1-1.6
				C259.7,189.2,260.8,189.8,260.8,190.6z"/>
			<path class="st2" d="M65.8,53c0,0.8-0.8,1.6-2.1,1.6c-1.1,0-2.1-0.6-2.1-1.6s0.8-1.6,2.1-1.6C65,51.4,65.8,52.2,65.8,53z"/>
		</g>
		<g>
			
				<linearGradient id="SVGID_00000001622864499360752080000006336399172125270708_" gradientUnits="userSpaceOnUse" x1="34.4591" y1="631.334" x2="34.4591" y2="585.6094" gradientTransform="matrix(1 6.400000e-03 -6.400000e-03 1 3.1661 -2.7908)">
				<stop  offset="0" style="stop-color:#0F5B87"/>
				<stop  offset="0.7258" style="stop-color:#20274C"/>
			</linearGradient>
			<polygon style="fill:url(#SVGID_00000001622864499360752080000006336399172125270708_);" points="15.2,628.7 52,628.9 31.7,583 
							"/>
			
				<linearGradient id="SVGID_00000126320827739280910110000005463699375735327640_" gradientUnits="userSpaceOnUse" x1="103.3051" y1="631.2299" x2="103.3051" y2="585.5048" gradientTransform="matrix(1 6.400000e-03 -6.400000e-03 1 3.1661 -2.7908)">
				<stop  offset="0" style="stop-color:#0F5B87"/>
				<stop  offset="0.7258" style="stop-color:#20274C"/>
			</linearGradient>
			<polygon style="fill:url(#SVGID_00000126320827739280910110000005463699375735327640_);" points="83.9,628.9 120.9,629.1 
				100.4,583.4 			"/>
			
				<linearGradient id="SVGID_00000036960864946246076820000010650092937497352115_" gradientUnits="userSpaceOnUse" x1="228.481" y1="631.04" x2="228.481" y2="585.3129" gradientTransform="matrix(1 6.400000e-03 -6.400000e-03 1 3.1661 -2.7908)">
				<stop  offset="0" style="stop-color:#0F5B87"/>
				<stop  offset="0.7258" style="stop-color:#20274C"/>
			</linearGradient>
			<polygon style="fill:url(#SVGID_00000036960864946246076820000010650092937497352115_);" points="209.1,629.5 246.1,629.7 
				225.6,584 			"/>
			
				<linearGradient id="SVGID_00000031900682456639305200000012290616086451743678_" gradientUnits="userSpaceOnUse" x1="133.5341" y1="631.1839" x2="133.5341" y2="603.4243" gradientTransform="matrix(1 6.400000e-03 -6.400000e-03 1 3.1661 -2.7908)">
				<stop  offset="0" style="stop-color:#0F5B87"/>
				<stop  offset="0.7258" style="stop-color:#20274C"/>
			</linearGradient>
			<polygon style="fill:url(#SVGID_00000031900682456639305200000012290616086451743678_);" points="121.5,629.1 143.8,629.3 
				131.3,601.5 			"/>
			
				<linearGradient id="SVGID_00000025427331063660735880000005008456295255336105_" gradientUnits="userSpaceOnUse" x1="202.2481" y1="631.0565" x2="202.2481" y2="603.2952" gradientTransform="matrix(1 6.400000e-03 -6.400000e-03 1 3.1661 -2.7908)">
				<stop  offset="0" style="stop-color:#0F5B87"/>
				<stop  offset="0.7258" style="stop-color:#20274C"/>
			</linearGradient>
			<polygon style="fill:url(#SVGID_00000025427331063660735880000005008456295255336105_);" points="190.2,629.5 212.6,629.7 
				200.3,601.9 			"/>
			
				<linearGradient id="SVGID_00000008845887933461849200000013258825573176317867_" gradientUnits="userSpaceOnUse" x1="253.1172" y1="630.9777" x2="253.1172" y2="603.2181" gradientTransform="matrix(1 6.400000e-03 -6.400000e-03 1 3.1661 -2.7908)">
				<stop  offset="0" style="stop-color:#0F5B87"/>
				<stop  offset="0.7258" style="stop-color:#20274C"/>
			</linearGradient>
			<polygon style="fill:url(#SVGID_00000008845887933461849200000013258825573176317867_);" points="241.1,629.7 263.4,629.9 
				250.9,602.1 			"/>
			
				<linearGradient id="SVGID_00000142857615366351821130000018193968050029585312_" gradientUnits="userSpaceOnUse" x1="63.3559" y1="631.3079" x2="63.3559" y2="556.5386" gradientTransform="matrix(1 6.400000e-03 -6.400000e-03 1 3.1661 -2.7908)">
				<stop  offset="0" style="stop-color:#0F5B87"/>
				<stop  offset="0.7258" style="stop-color:#20274C"/>
			</linearGradient>
			<polygon style="fill:url(#SVGID_00000142857615366351821130000018193968050029585312_);" points="32.3,628.7 92.7,629.1 
				59.2,554.1 			"/>
			
				<linearGradient id="SVGID_00000062905972460013887200000010227712533450200206_" gradientUnits="userSpaceOnUse" x1="168.1574" y1="631.2265" x2="168.1574" y2="556.2751" gradientTransform="matrix(1 6.400000e-03 -6.400000e-03 1 3.1661 -2.7908)">
				<stop  offset="0" style="stop-color:#0F5B87"/>
				<stop  offset="0.7258" style="stop-color:#20274C"/>
			</linearGradient>
			<polygon style="fill:url(#SVGID_00000062905972460013887200000010227712533450200206_);" points="137.2,629.3 197.4,629.5 
				163.8,554.5 			"/>
		</g>
		
			<linearGradient id="SVGID_00000044874891352784859540000000355723244725819061_" gradientUnits="userSpaceOnUse" x1="413.6436" y1="703.7885" x2="413.6436" y2="598.1149" gradientTransform="matrix(1 0 0 1 0 -2.288818e-05)">
			<stop  offset="0.2742" style="stop-color:#20274C"/>
			<stop  offset="0.8495" style="stop-color:#0F5B87"/>
		</linearGradient>
		<path style="fill:url(#SVGID_00000044874891352784859540000000355723244725819061_);" d="M828.9,692.3c0,0-80.4-22.4-126-22.4
			s-83.4-12.2-141.7-12.2c-58.3,0-104.4-14.8-186.2-14.8s-77.2-16.3-156.3-16.3S45.6,608.4-1.6,608.4c0,40,0,134.7,0,134.7
			L828.9,692.3z"/>
		<g>
			
				<linearGradient id="SVGID_00000061456506989537972880000005777634697755491220_" gradientUnits="userSpaceOnUse" x1="1137.9401" y1="692.3167" x2="1137.9401" y2="646.5928" gradientTransform="matrix(1 0 0 1 0 -2.288818e-05)">
				<stop  offset="9.677420e-02" style="stop-color:#20274C"/>
				<stop  offset="0.4462" style="stop-color:#0F5B87"/>
			</linearGradient>
			<polygon style="fill:url(#SVGID_00000061456506989537972880000005777634697755491220_);" points="1119.4,692.3 1156.5,692.3 
				1135.4,646.6 			"/>
			
				<linearGradient id="SVGID_00000137120878996862474000000017200283686831702695_" gradientUnits="userSpaceOnUse" x1="1206.7875" y1="692.3167" x2="1206.7875" y2="646.5928" gradientTransform="matrix(1 0 0 1 0 -2.288818e-05)">
				<stop  offset="9.677420e-02" style="stop-color:#20274C"/>
				<stop  offset="0.4462" style="stop-color:#0F5B87"/>
			</linearGradient>
			<polygon style="fill:url(#SVGID_00000137120878996862474000000017200283686831702695_);" points="1188.4,692.3 1225.2,692.3 
				1204.4,646.6 			"/>
			
				<linearGradient id="SVGID_00000117635447294019910580000006836718583336752562_" gradientUnits="userSpaceOnUse" x1="1331.9646" y1="692.3167" x2="1331.9646" y2="646.5928" gradientTransform="matrix(1 0 0 1 0 -2.288818e-05)">
				<stop  offset="9.677420e-02" style="stop-color:#20274C"/>
				<stop  offset="0.4462" style="stop-color:#0F5B87"/>
			</linearGradient>
			<polygon style="fill:url(#SVGID_00000117635447294019910580000006836718583336752562_);" points="1313.6,692.3 1350.3,692.3 
				1329.6,646.6 			"/>
			
				<linearGradient id="SVGID_00000059296683798891185530000009095089337076043444_" gradientUnits="userSpaceOnUse" x1="1236.8833" y1="692.272" x2="1236.8833" y2="664.5002" gradientTransform="matrix(1 0 0 1 0 -2.288818e-05)">
				<stop  offset="9.677420e-02" style="stop-color:#20274C"/>
				<stop  offset="0.4462" style="stop-color:#0F5B87"/>
			</linearGradient>
			<polygon style="fill:url(#SVGID_00000059296683798891185530000009095089337076043444_);" points="1225.7,692.3 1248.1,692.3 
				1235.6,664.5 			"/>
			
				<linearGradient id="SVGID_00000086672822787632440760000005302499954914743985_" gradientUnits="userSpaceOnUse" x1="1305.5975" y1="692.272" x2="1305.5975" y2="664.5002" gradientTransform="matrix(1 0 0 1 0 -2.288818e-05)">
				<stop  offset="9.677420e-02" style="stop-color:#20274C"/>
				<stop  offset="0.4462" style="stop-color:#0F5B87"/>
			</linearGradient>
			<polygon style="fill:url(#SVGID_00000086672822787632440760000005302499954914743985_);" points="1294.4,692.3 1316.8,692.3 
				1304.3,664.5 			"/>
			
				<linearGradient id="SVGID_00000152980349959930607110000007202758284054268345_" gradientUnits="userSpaceOnUse" x1="1356.4674" y1="692.272" x2="1356.4674" y2="664.5002" gradientTransform="matrix(1 0 0 1 0 -2.288818e-05)">
				<stop  offset="9.677420e-02" style="stop-color:#20274C"/>
				<stop  offset="0.4462" style="stop-color:#0F5B87"/>
			</linearGradient>
			<polygon style="fill:url(#SVGID_00000152980349959930607110000007202758284054268345_);" points="1345.3,692.3 1367.7,692.3 
				1354.9,664.5 			"/>
			
				<linearGradient id="SVGID_00000098935642156556367910000012439574226628220037_" gradientUnits="userSpaceOnUse" x1="1166.8373" y1="692.3167" x2="1166.8373" y2="617.4656" gradientTransform="matrix(1 0 0 1 0 -2.288818e-05)">
				<stop  offset="9.677420e-02" style="stop-color:#20274C"/>
				<stop  offset="0.4462" style="stop-color:#0F5B87"/>
			</linearGradient>
			<polygon style="fill:url(#SVGID_00000098935642156556367910000012439574226628220037_);" points="1136.7,692.3 1196.9,692.3 
				1162.8,617.3 			"/>
			
				<linearGradient id="SVGID_00000072271815016269637250000015871447402342254757_" gradientUnits="userSpaceOnUse" x1="1271.5067" y1="692.3167" x2="1271.5067" y2="617.4656" gradientTransform="matrix(1 0 0 1 0 -2.288818e-05)">
				<stop  offset="9.677420e-02" style="stop-color:#20274C"/>
				<stop  offset="0.4462" style="stop-color:#0F5B87"/>
			</linearGradient>
			<polygon style="fill:url(#SVGID_00000072271815016269637250000015871447402342254757_);" points="1241.4,692.3 1301.6,692.3 
				1267.5,617.3 			"/>
		</g>
		
			<linearGradient id="SVGID_00000084498728647394867380000004060774030017665158_" gradientUnits="userSpaceOnUse" x1="1316.9167" y1="533.0857" x2="1316.9167" y2="498.5388" gradientTransform="matrix(1 0 0 1 0 -2.288818e-05)">
			<stop  offset="0.4462" style="stop-color:#0F5B87"/>
			<stop  offset="1" style="stop-color:#45B2C2"/>
		</linearGradient>
		<polygon style="fill:url(#SVGID_00000084498728647394867380000004060774030017665158_);" points="1302.9,533 1330.9,533 
			1315.2,498.4 		"/>
		
			<linearGradient id="SVGID_00000070837336738958899840000015631718425778737071_" gradientUnits="userSpaceOnUse" x1="1255.2603" y1="547.6259" x2="1255.2603" y2="513.079" gradientTransform="matrix(1 0 0 1 0 -2.288818e-05)">
			<stop  offset="0.4462" style="stop-color:#0F5B87"/>
			<stop  offset="1" style="stop-color:#45B2C2"/>
		</linearGradient>
		<polygon style="fill:url(#SVGID_00000070837336738958899840000015631718425778737071_);" points="1241.4,547.6 1269.1,547.6 
			1253.4,513.1 		"/>
		
			<linearGradient id="SVGID_00000082339203507932198010000012471476735584275115_" gradientUnits="userSpaceOnUse" x1="1286.8209" y1="537.15" x2="1286.8209" y2="484.6529" gradientTransform="matrix(1 0 0 1 0 -2.288818e-05)">
			<stop  offset="0.4462" style="stop-color:#0F5B87"/>
			<stop  offset="1" style="stop-color:#45B2C2"/>
		</linearGradient>
		<polygon style="fill:url(#SVGID_00000082339203507932198010000012471476735584275115_);" points="1265.6,537.1 1308,537.1 
			1284,484.6 		"/>
		
			<linearGradient id="SVGID_00000059997482626395506250000010927289115603213702_" gradientUnits="userSpaceOnUse" x1="1345.2814" y1="526.9892" x2="1345.2814" y2="474.492" gradientTransform="matrix(1 0 0 1 0 -2.288818e-05)">
			<stop  offset="0.4462" style="stop-color:#0F5B87"/>
			<stop  offset="1" style="stop-color:#45B2C2"/>
		</linearGradient>
		<polygon style="fill:url(#SVGID_00000059997482626395506250000010927289115603213702_);" points="1324.2,526.9 1366.3,526.9 
			1342.4,474.5 		"/>
		
			<linearGradient id="SVGID_00000054986161483320630100000015685950344306764719_" gradientUnits="userSpaceOnUse" x1="683.174" y1="701.4167" x2="683.174" y2="781.848" gradientTransform="matrix(1 0 0 1 0 -2.288818e-05)">
			<stop  offset="0" style="stop-color:#20274C"/>
			<stop  offset="0.6344" style="stop-color:#45B2C2"/>
			<stop  offset="0.9892" style="stop-color:#95D3E4"/>
		</linearGradient>
		
			<rect x="-1.3" y="692.3" style="fill:url(#SVGID_00000054986161483320630100000015685950344306764719_);" width="1369" height="75"/>
		<g>
			<g>
				<g>
					<polyline class="st47" points="1289.6,63.6 1249.7,63.6 1249.7,61.1 					"/>
				</g>
				<g>
					<polyline class="st47" points="1289.6,73.9 1289.6,76.2 1249.7,76.2 1249.7,73.9 					"/>
				</g>
			</g>
		</g>
	</g>
</g>
</svg>
