<?xml version="1.0" encoding="utf-8"?>
<!-- Generator: Adobe Illustrator 26.0.3, SVG Export Plug-In . SVG Version: 6.00 Build 0)  -->
<svg version="1.1" xmlns="http://www.w3.org/2000/svg" xmlns:xlink="http://www.w3.org/1999/xlink" x="0px" y="0px"
	 viewBox="0 0 800 800" style="enable-background:new 0 0 800 800;" xml:space="preserve">
<style type="text/css">
	.st0{fill:#BBF7FF;}
	.st1{display:none;}
	.st2{display:inline;}
	.st3{fill:#69ACE8;}
	.st4{fill:#D36E00;}
	.st5{fill:#EA8206;}
	.st6{fill:#FF960B;}
	.st7{fill:#7C3C01;}
	.st8{fill:#8E4803;}
	.st9{fill:#B75904;}
	.st10{fill:#5E1800;}
	.st11{fill:#FFC543;}
	.st12{fill:#FF8806;}
	.st13{fill:#DB7A05;}
	.st14{fill:#FFA20D;}
	.st15{clip-path:url(#SVGID_00000106120890321984568350000013180456443117596569_);fill:#DB7A05;}
	.st16{fill:#7C1D03;}
	.st17{fill:#FFD278;}
	.st18{fill:none;stroke:#934B03;stroke-miterlimit:10;}
	.st19{fill:#EFA106;}
	.st20{clip-path:url(#SVGID_00000073684568874255918770000015068776639422020771_);fill:#DB6809;}
	.st21{clip-path:url(#SVGID_00000073684568874255918770000015068776639422020771_);fill:#FFC23B;}
	.st22{fill:#C46200;}
	.st23{fill:#EA7706;}
	.st24{fill:#995000;}
	.st25{fill:#CC6E09;}
	.st26{clip-path:url(#SVGID_00000157993152559834251330000009626703544442567560_);}
	.st27{fill:#DB6809;}
	.st28{clip-path:url(#SVGID_00000157993152559834251330000009626703544442567560_);fill:#FFC23B;}
	.st29{fill:#FFB65F;}
	.st30{fill:#FFC23B;}
	.st31{fill:#AF6002;}
	.st32{fill:#CE6E05;}
	.st33{fill:#46BBE8;}
	.st34{fill:#6BD9FC;}
	.st35{fill:#1E789B;}
	.st36{fill:#0E3D4C;}
	.st37{fill:#2499BC;}
	.st38{fill:#3581BA;}
	.st39{fill:#79BFF2;}
	.st40{fill:#3F7FAF;}
	.st41{fill:#174860;}
	.st42{fill:#4B97C6;}
	.st43{fill:#0F222D;}
	.st44{fill:#20475B;}
	.st45{fill:#1D4E66;}
	.st46{fill:#296982;}
	.st47{fill:#C4A318;}
	.st48{fill:#824D00;}
	.st49{fill:#BF7616;}
	.st50{fill:#E08727;}
	.st51{fill:#6D3E00;}
	.st52{fill:#E2BF2D;}
	.st53{fill:#C1A11E;}
	.st54{fill:#F7D64B;}
	.st55{fill:#FFE885;}
	.st56{fill:#EDCB3A;}
	.st57{fill:#FCDC56;}
	.st58{fill:#F7D300;}
	.st59{fill:#FFE04A;}
	.st60{fill:#FFF2BD;}
	.st61{fill:#F4D345;}
	.st62{fill:#C4C4C4;}
	.st63{fill:#E2E2E2;}
	.st64{fill:#FFFFFF;}
	.st65{fill:#A5A5A5;}
	.st66{fill:#75410D;}
	.st67{fill:#9E9E9E;}
	.st68{fill:#1D1D1B;}
	.st69{fill:#595955;}
	.st70{fill:#C9C9C9;}
	.st71{fill:#EFEFEF;}
	.st72{fill:#B75009;}
	.st73{fill:#B5B5B5;}
	.st74{fill:#EAEAEA;}
	.st75{fill:#CE6117;}
	.st76{fill:#ED7626;}
	.st77{fill:#FF9D5A;}
	.st78{fill:#424242;}
	.st79{fill:#EDEDED;}
	.st80{fill:#AAAAAA;}
	.st81{fill:#EABF0A;}
	.st82{fill:#FFED9F;}
	.st83{opacity:0.5;fill:#FFFF03;}
	.st84{fill:#164F66;}
	.st85{fill:#072C35;}
	.st86{fill:#3093B2;}
	.st87{fill:#3294C6;}
	.st88{fill:#56C2ED;}
	.st89{fill:#99E7FF;}
	.st90{fill:#DBB90E;}
	.st91{fill:#F4C914;}
	.st92{fill:#FFDB45;}
	.st93{fill:#FFDD4D;}
	.st94{fill:#FFD215;}
	.st95{fill:#EDC20F;}
	.st96{fill:#D1A900;}
	.st97{fill:#FFE05C;}
	.st98{fill:#FFE98D;}
	.st99{fill:#F4EED4;}
	.st100{fill:#FFFFFD;}
	.st101{fill:#ED1B1B;}
	.st102{fill:#FF4848;}
	.st103{fill:#8DCDFC;}
	.st104{fill:#6D6D6B;}
	.st105{fill:#545454;}
	.st106{fill:#D83F16;}
	.st107{fill:#AF260B;}
	.st108{fill:#444443;}
	.st109{fill:#878787;}
	.st110{fill:#8C6610;}
	.st111{fill:#EAB242;}
	.st112{fill:#F9BE58;}
	.st113{fill:#C18102;}
	.st114{fill:#DB9812;}
	.st115{display:inline;fill:#FFEDCC;}
	.st116{font-family:'Pacifico';}
	.st117{font-size:33.1875px;}
	.st118{font-size:39.0198px;}
</style>
<g id="Background">
	<path class="st0" d="M74.3,132c34.8-77.5,545.6-66.4,622.6-59.7s38.5,605.1-7.5,641.1c-46,36.1-568.1,46.1-601.8-5.1
		S47.3,192,74.3,132z"/>
</g>
<g id="Objects">
	<g class="st1">
		<g class="st2">
			<path class="st3" d="M286,774.3V774c-0.3,0.4-0.7,0.7-1,1c-0.3,0.3-0.7,0.4-1.1,0.6c-0.4,0.1-0.8,0.2-1.3,0.2
				c-0.6,0-1.2-0.1-1.7-0.4c-0.5-0.3-1-0.6-1.4-1.1c-0.4-0.5-0.7-1.1-0.9-1.7c-0.2-0.7-0.3-1.4-0.3-2.1c0-1.6,0.4-2.9,1.2-3.8
				c0.8-0.9,1.8-1.4,3.1-1.4c0.7,0,1.4,0.1,1.9,0.4c0.5,0.3,1,0.7,1.5,1.2V763c0-0.5,0.1-0.9,0.3-1.2c0.2-0.3,0.5-0.4,0.9-0.4
				c0.4,0,0.7,0.1,0.9,0.4c0.2,0.3,0.3,0.6,0.3,1.1v11.4c0,0.5-0.1,0.9-0.3,1.1c-0.2,0.2-0.5,0.4-0.9,0.4c-0.4,0-0.6-0.1-0.9-0.4
				C286.1,775.1,286,774.8,286,774.3z M280.9,770.5c0,0.7,0.1,1.3,0.3,1.8c0.2,0.5,0.5,0.9,0.9,1.1c0.4,0.3,0.8,0.4,1.2,0.4
				c0.5,0,0.9-0.1,1.2-0.4c0.4-0.2,0.7-0.6,0.9-1.1c0.2-0.5,0.3-1.1,0.3-1.8c0-0.7-0.1-1.3-0.3-1.8c-0.2-0.5-0.5-0.9-0.9-1.1
				c-0.4-0.3-0.8-0.4-1.3-0.4c-0.5,0-0.9,0.1-1.3,0.4c-0.4,0.3-0.7,0.7-0.9,1.2C281,769.2,280.9,769.8,280.9,770.5z"/>
			<path class="st3" d="M297.5,771.1h-5.1c0,0.6,0.1,1.1,0.4,1.6c0.2,0.5,0.5,0.8,0.9,1c0.4,0.2,0.8,0.3,1.3,0.3
				c0.3,0,0.6,0,0.9-0.1c0.3-0.1,0.5-0.2,0.7-0.3c0.2-0.2,0.5-0.3,0.7-0.5c0.2-0.2,0.5-0.4,0.8-0.7c0.1-0.1,0.3-0.2,0.6-0.2
				c0.3,0,0.5,0.1,0.6,0.2c0.2,0.1,0.2,0.4,0.2,0.6c0,0.2-0.1,0.5-0.3,0.8c-0.2,0.3-0.5,0.6-0.8,0.9c-0.4,0.3-0.8,0.5-1.4,0.7
				c-0.6,0.2-1.2,0.3-1.9,0.3c-1.7,0-3-0.5-3.9-1.4c-0.9-0.9-1.4-2.2-1.4-3.9c0-0.8,0.1-1.5,0.3-2.1c0.2-0.7,0.6-1.2,1-1.7
				c0.4-0.5,1-0.8,1.6-1.1c0.6-0.2,1.3-0.4,2.1-0.4c1,0,1.9,0.2,2.6,0.6c0.7,0.4,1.3,1,1.6,1.7c0.4,0.7,0.5,1.4,0.5,2.1
				c0,0.7-0.2,1.1-0.6,1.3C298.7,771,298.1,771.1,297.5,771.1z M292.4,769.7h4.7c-0.1-0.9-0.3-1.6-0.7-2c-0.4-0.4-1-0.7-1.6-0.7
				c-0.6,0-1.2,0.2-1.6,0.7C292.7,768.1,292.5,768.8,292.4,769.7z"/>
			<path class="st3" d="M309.3,772.4c0,0.7-0.2,1.3-0.5,1.8c-0.3,0.5-0.9,0.9-1.5,1.2c-0.7,0.3-1.5,0.4-2.5,0.4
				c-0.9,0-1.7-0.1-2.4-0.4c-0.7-0.3-1.2-0.6-1.5-1.1c-0.3-0.4-0.5-0.9-0.5-1.3c0-0.3,0.1-0.5,0.3-0.7c0.2-0.2,0.5-0.3,0.8-0.3
				c0.3,0,0.5,0.1,0.6,0.2c0.1,0.1,0.3,0.3,0.4,0.6c0.3,0.5,0.6,0.8,1,1c0.4,0.2,0.9,0.3,1.5,0.3c0.5,0,0.9-0.1,1.3-0.3
				c0.3-0.2,0.5-0.5,0.5-0.8c0-0.5-0.2-0.8-0.5-1c-0.3-0.2-0.9-0.4-1.7-0.6c-0.9-0.2-1.6-0.5-2.2-0.7c-0.6-0.2-1-0.6-1.3-1
				c-0.3-0.4-0.5-0.9-0.5-1.5c0-0.5,0.2-1,0.5-1.5c0.3-0.5,0.8-0.8,1.4-1.1c0.6-0.3,1.3-0.4,2.2-0.4c0.7,0,1.3,0.1,1.8,0.2
				c0.5,0.1,1,0.3,1.3,0.6c0.4,0.2,0.6,0.5,0.8,0.8c0.2,0.3,0.3,0.6,0.3,0.8c0,0.3-0.1,0.5-0.3,0.7c-0.2,0.2-0.5,0.3-0.9,0.3
				c-0.3,0-0.5-0.1-0.7-0.2c-0.2-0.2-0.4-0.4-0.6-0.7c-0.2-0.3-0.4-0.5-0.7-0.6c-0.3-0.2-0.6-0.2-1.1-0.2c-0.5,0-0.9,0.1-1.2,0.3
				c-0.3,0.2-0.5,0.4-0.5,0.7c0,0.3,0.1,0.5,0.3,0.7c0.2,0.2,0.5,0.3,0.9,0.4c0.4,0.1,0.9,0.3,1.6,0.4c0.8,0.2,1.5,0.4,2,0.7
				c0.5,0.3,0.9,0.6,1.2,1C309.1,771.5,309.3,771.9,309.3,772.4z"/>
			<path class="st3" d="M311.9,764c-0.4,0-0.7-0.1-0.9-0.3c-0.3-0.2-0.4-0.5-0.4-0.9c0-0.4,0.1-0.7,0.4-0.9c0.3-0.2,0.6-0.4,0.9-0.4
				c0.3,0,0.6,0.1,0.9,0.3c0.3,0.2,0.4,0.5,0.4,0.9c0,0.4-0.1,0.7-0.4,0.9C312.6,763.9,312.3,764,311.9,764z M313.2,766.7v7.5
				c0,0.5-0.1,0.9-0.4,1.2c-0.2,0.3-0.6,0.4-0.9,0.4s-0.7-0.1-0.9-0.4c-0.2-0.3-0.4-0.7-0.4-1.2v-7.4c0-0.5,0.1-0.9,0.4-1.2
				c0.2-0.3,0.5-0.4,0.9-0.4s0.7,0.1,0.9,0.4C313.1,765.9,313.2,766.2,313.2,766.7z"/>
			<path class="st3" d="M324.6,767.1v7.5c0,0.9-0.1,1.6-0.3,2.2c-0.2,0.6-0.5,1.1-0.9,1.5c-0.4,0.4-0.9,0.7-1.6,0.9
				c-0.7,0.2-1.5,0.3-2.4,0.3c-0.9,0-1.7-0.1-2.4-0.4c-0.7-0.3-1.2-0.6-1.6-1c-0.4-0.4-0.6-0.8-0.6-1.2c0-0.3,0.1-0.6,0.3-0.8
				c0.2-0.2,0.5-0.3,0.8-0.3c0.4,0,0.7,0.2,1,0.5c0.1,0.2,0.3,0.3,0.4,0.5c0.1,0.2,0.3,0.3,0.5,0.4c0.2,0.1,0.4,0.2,0.7,0.3
				c0.3,0.1,0.5,0.1,0.9,0.1c0.7,0,1.2-0.1,1.6-0.3c0.4-0.2,0.6-0.4,0.8-0.8c0.1-0.3,0.2-0.7,0.3-1.1c0-0.4,0-1,0.1-1.8
				c-0.4,0.6-0.9,1-1.4,1.3c-0.5,0.3-1.1,0.4-1.9,0.4c-0.9,0-1.6-0.2-2.3-0.7c-0.6-0.4-1.1-1.1-1.5-1.9c-0.3-0.8-0.5-1.7-0.5-2.8
				c0-0.8,0.1-1.5,0.3-2.1c0.2-0.6,0.5-1.2,0.9-1.6c0.4-0.4,0.8-0.8,1.4-1c0.5-0.2,1.1-0.3,1.7-0.3c0.7,0,1.4,0.1,1.9,0.4
				c0.5,0.3,1,0.7,1.5,1.3v-0.4c0-0.4,0.1-0.8,0.3-1c0.2-0.2,0.5-0.4,0.9-0.4c0.5,0,0.8,0.2,1,0.5
				C324.5,766,324.6,766.5,324.6,767.1z M317,770.4c0,1.1,0.2,1.8,0.7,2.4c0.5,0.5,1.1,0.8,1.8,0.8c0.4,0,0.8-0.1,1.2-0.3
				c0.4-0.2,0.7-0.6,0.9-1c0.2-0.5,0.4-1,0.4-1.7c0-1.1-0.2-1.9-0.7-2.5c-0.5-0.6-1.1-0.9-1.8-0.9c-0.7,0-1.3,0.3-1.8,0.8
				C317.3,768.6,317,769.4,317,770.4z"/>
			<path class="st3" d="M328.7,766.7v0.3c0.5-0.6,1-1,1.5-1.3c0.5-0.3,1.2-0.4,1.9-0.4c0.7,0,1.3,0.1,1.8,0.4
				c0.5,0.3,0.9,0.7,1.2,1.3c0.2,0.3,0.3,0.7,0.3,1c0.1,0.4,0.1,0.8,0.1,1.4v4.8c0,0.5-0.1,0.9-0.4,1.2c-0.2,0.3-0.5,0.4-0.9,0.4
				c-0.4,0-0.7-0.1-0.9-0.4c-0.2-0.3-0.4-0.7-0.4-1.2v-4.3c0-0.9-0.1-1.5-0.4-2c-0.2-0.5-0.7-0.7-1.4-0.7c-0.5,0-0.9,0.1-1.3,0.4
				c-0.4,0.3-0.7,0.7-0.8,1.1c-0.1,0.4-0.2,1.1-0.2,2.2v3.2c0,0.5-0.1,0.9-0.4,1.2c-0.2,0.3-0.6,0.4-0.9,0.4c-0.4,0-0.7-0.1-0.9-0.4
				c-0.2-0.3-0.4-0.7-0.4-1.2v-7.5c0-0.5,0.1-0.9,0.3-1.1c0.2-0.2,0.5-0.4,0.9-0.4c0.2,0,0.4,0.1,0.6,0.2c0.2,0.1,0.3,0.3,0.4,0.5
				C328.6,766.1,328.7,766.4,328.7,766.7z"/>
			<path class="st3" d="M344.5,771.1h-5.1c0,0.6,0.1,1.1,0.4,1.6c0.2,0.5,0.5,0.8,0.9,1c0.4,0.2,0.8,0.3,1.3,0.3
				c0.3,0,0.6,0,0.9-0.1c0.3-0.1,0.5-0.2,0.7-0.3c0.2-0.2,0.5-0.3,0.7-0.5c0.2-0.2,0.5-0.4,0.8-0.7c0.1-0.1,0.3-0.2,0.6-0.2
				c0.3,0,0.5,0.1,0.6,0.2c0.2,0.1,0.2,0.4,0.2,0.6c0,0.2-0.1,0.5-0.3,0.8c-0.2,0.3-0.5,0.6-0.8,0.9c-0.4,0.3-0.8,0.5-1.4,0.7
				c-0.6,0.2-1.2,0.3-1.9,0.3c-1.7,0-3-0.5-3.9-1.4c-0.9-0.9-1.4-2.2-1.4-3.9c0-0.8,0.1-1.5,0.3-2.1c0.2-0.7,0.6-1.2,1-1.7
				c0.4-0.5,1-0.8,1.6-1.1c0.6-0.2,1.3-0.4,2.1-0.4c1,0,1.9,0.2,2.6,0.6c0.7,0.4,1.3,1,1.6,1.7c0.4,0.7,0.5,1.4,0.5,2.1
				c0,0.7-0.2,1.1-0.6,1.3C345.7,771,345.1,771.1,344.5,771.1z M339.4,769.7h4.7c-0.1-0.9-0.3-1.6-0.7-2c-0.4-0.4-1-0.7-1.6-0.7
				c-0.6,0-1.2,0.2-1.6,0.7C339.7,768.1,339.5,768.8,339.4,769.7z"/>
			<path class="st3" d="M355,774.3V774c-0.3,0.4-0.7,0.7-1,1c-0.3,0.3-0.7,0.4-1.1,0.6c-0.4,0.1-0.8,0.2-1.3,0.2
				c-0.6,0-1.2-0.1-1.7-0.4c-0.5-0.3-1-0.6-1.4-1.1c-0.4-0.5-0.7-1.1-0.9-1.7c-0.2-0.7-0.3-1.4-0.3-2.1c0-1.6,0.4-2.9,1.2-3.8
				c0.8-0.9,1.8-1.4,3.1-1.4c0.7,0,1.4,0.1,1.9,0.4c0.5,0.3,1,0.7,1.5,1.2V763c0-0.5,0.1-0.9,0.3-1.2c0.2-0.3,0.5-0.4,0.9-0.4
				c0.4,0,0.7,0.1,0.9,0.4c0.2,0.3,0.3,0.6,0.3,1.1v11.4c0,0.5-0.1,0.9-0.3,1.1c-0.2,0.2-0.5,0.4-0.9,0.4c-0.4,0-0.6-0.1-0.9-0.4
				C355.1,775.1,355,774.8,355,774.3z M349.9,770.5c0,0.7,0.1,1.3,0.3,1.8c0.2,0.5,0.5,0.9,0.9,1.1c0.4,0.3,0.8,0.4,1.2,0.4
				c0.5,0,0.9-0.1,1.2-0.4c0.4-0.2,0.7-0.6,0.9-1.1c0.2-0.5,0.3-1.1,0.3-1.8c0-0.7-0.1-1.3-0.3-1.8c-0.2-0.5-0.5-0.9-0.9-1.1
				c-0.4-0.3-0.8-0.4-1.3-0.4c-0.5,0-0.9,0.1-1.3,0.4c-0.4,0.3-0.7,0.7-0.9,1.2C350,769.2,349.9,769.8,349.9,770.5z"/>
			<path class="st3" d="M365.6,762.9v4c0.5-0.5,1-0.9,1.5-1.2c0.5-0.3,1.1-0.4,1.9-0.4c0.9,0,1.6,0.2,2.3,0.6c0.6,0.4,1.2,1,1.5,1.8
				c0.4,0.8,0.5,1.7,0.5,2.8c0,0.8-0.1,1.5-0.3,2.2c-0.2,0.7-0.5,1.2-0.9,1.7c-0.4,0.5-0.8,0.9-1.4,1.1c-0.5,0.3-1.1,0.4-1.8,0.4
				c-0.4,0-0.8,0-1.1-0.1c-0.4-0.1-0.7-0.2-0.9-0.4c-0.2-0.2-0.5-0.3-0.6-0.5c-0.2-0.2-0.4-0.4-0.7-0.7v0.3c0,0.5-0.1,0.9-0.4,1.1
				c-0.2,0.2-0.5,0.4-0.9,0.4c-0.4,0-0.7-0.1-0.9-0.4c-0.2-0.3-0.3-0.6-0.3-1.1V763c0-0.5,0.1-0.9,0.3-1.2c0.2-0.3,0.5-0.4,0.9-0.4
				c0.4,0,0.7,0.1,0.9,0.4C365.5,762,365.6,762.4,365.6,762.9z M365.7,770.6c0,1,0.2,1.8,0.7,2.4c0.5,0.6,1.1,0.8,1.9,0.8
				c0.7,0,1.2-0.3,1.7-0.9c0.5-0.6,0.7-1.4,0.7-2.4c0-0.7-0.1-1.3-0.3-1.8c-0.2-0.5-0.5-0.9-0.8-1.1c-0.4-0.3-0.8-0.4-1.3-0.4
				c-0.5,0-0.9,0.1-1.3,0.4c-0.4,0.3-0.7,0.7-0.9,1.2C365.9,769.2,365.7,769.9,365.7,770.6z"/>
			<path class="st3" d="M376.7,776.1l0.2-0.6l-3.2-8c-0.2-0.5-0.3-0.8-0.3-1c0-0.2,0.1-0.4,0.2-0.6c0.1-0.2,0.3-0.3,0.5-0.5
				c0.2-0.1,0.4-0.2,0.6-0.2c0.4,0,0.7,0.1,0.8,0.4c0.2,0.2,0.4,0.6,0.5,1l2.2,6.4l2.1-5.9c0.2-0.5,0.3-0.9,0.4-1.1
				c0.1-0.3,0.3-0.5,0.4-0.5c0.1-0.1,0.4-0.1,0.6-0.1c0.2,0,0.4,0.1,0.6,0.2c0.2,0.1,0.3,0.2,0.4,0.4c0.1,0.2,0.1,0.4,0.1,0.6
				c0,0.1-0.1,0.3-0.1,0.5c-0.1,0.2-0.1,0.4-0.2,0.7l-3.4,8.9c-0.3,0.8-0.6,1.4-0.9,1.8c-0.3,0.4-0.6,0.8-1.1,1
				c-0.5,0.2-1.1,0.4-1.9,0.4c-0.8,0-1.3-0.1-1.7-0.2c-0.4-0.2-0.6-0.5-0.6-0.9c0-0.3,0.1-0.5,0.3-0.7c0.2-0.2,0.4-0.2,0.8-0.2
				c0.1,0,0.3,0,0.4,0.1c0.2,0,0.3,0.1,0.4,0.1c0.3,0,0.5,0,0.7-0.1c0.2-0.1,0.3-0.2,0.5-0.5C376.3,776.8,376.5,776.5,376.7,776.1z"
				/>
		</g>
		<g class="st2">
			<path class="st3" d="M414.2,765.4h0.6v-0.8c0-0.8,0.1-1.5,0.3-1.9c0.2-0.5,0.6-0.8,1-1c0.5-0.2,1.2-0.3,2-0.3
				c1.5,0,2.3,0.4,2.3,1.1c0,0.2-0.1,0.4-0.2,0.6c-0.2,0.2-0.3,0.3-0.6,0.3c-0.1,0-0.3,0-0.5-0.1c-0.2,0-0.5-0.1-0.6-0.1
				c-0.5,0-0.8,0.1-0.9,0.4c-0.1,0.3-0.2,0.7-0.2,1.2v0.6h0.6c1,0,1.5,0.3,1.5,0.9c0,0.4-0.1,0.7-0.4,0.8c-0.3,0.1-0.6,0.2-1.1,0.2
				h-0.6v6.9c0,0.5-0.1,0.9-0.4,1.2c-0.2,0.3-0.6,0.4-0.9,0.4c-0.4,0-0.7-0.1-0.9-0.4c-0.2-0.3-0.4-0.7-0.4-1.2v-6.9h-0.7
				c-0.4,0-0.7-0.1-0.9-0.3c-0.2-0.2-0.3-0.4-0.3-0.7C412.9,765.8,413.4,765.4,414.2,765.4"/>
			<path class="st3" d="M422.7,772v2.2c0,0.5-0.1,0.9-0.4,1.2c-0.2,0.3-0.6,0.4-0.9,0.4c-0.4,0-0.7-0.1-0.9-0.4
				c-0.2-0.3-0.4-0.7-0.4-1.2V767c0-1.2,0.4-1.7,1.3-1.7c0.4,0,0.7,0.1,0.9,0.4c0.2,0.3,0.3,0.7,0.3,1.2c0.3-0.5,0.6-0.9,0.9-1.2
				c0.3-0.3,0.8-0.4,1.3-0.4c0.5,0,1.1,0.1,1.6,0.4c0.5,0.3,0.8,0.6,0.8,1.1c0,0.3-0.1,0.6-0.3,0.8c-0.2,0.2-0.5,0.3-0.7,0.3
				c-0.1,0-0.3-0.1-0.7-0.2c-0.4-0.1-0.7-0.2-1-0.2c-0.4,0-0.7,0.1-0.9,0.3c-0.2,0.2-0.4,0.5-0.6,0.9c-0.1,0.4-0.2,0.9-0.3,1.4
				C422.7,770.6,422.7,771.2,422.7,772"/>
			<path class="st3" d="M434.6,771.1h-5.1c0,0.6,0.1,1.1,0.4,1.6c0.2,0.4,0.5,0.8,0.9,1c0.4,0.2,0.8,0.3,1.3,0.3
				c0.3,0,0.6,0,0.8-0.1c0.3-0.1,0.5-0.2,0.7-0.3c0.2-0.2,0.5-0.3,0.7-0.5c0.2-0.2,0.5-0.4,0.8-0.7c0.1-0.1,0.3-0.2,0.6-0.2
				c0.3,0,0.5,0.1,0.6,0.2c0.2,0.1,0.2,0.4,0.2,0.6c0,0.2-0.1,0.5-0.3,0.8c-0.2,0.3-0.5,0.6-0.8,0.9c-0.4,0.3-0.8,0.5-1.4,0.7
				c-0.6,0.2-1.2,0.3-1.9,0.3c-1.7,0-3-0.5-3.9-1.4c-0.9-1-1.4-2.2-1.4-3.9c0-0.8,0.1-1.5,0.3-2.1c0.2-0.7,0.6-1.2,1-1.7
				c0.4-0.5,1-0.8,1.6-1.1c0.6-0.2,1.3-0.4,2.1-0.4c1,0,1.9,0.2,2.6,0.6c0.7,0.4,1.3,1,1.6,1.7c0.4,0.7,0.5,1.4,0.5,2.1
				c0,0.6-0.2,1.1-0.6,1.3C435.8,771,435.3,771.1,434.6,771.1 M429.6,769.7h4.7c-0.1-0.9-0.3-1.5-0.7-2c-0.4-0.4-1-0.7-1.6-0.7
				c-0.6,0-1.2,0.2-1.6,0.7C429.9,768.1,429.7,768.8,429.6,769.7"/>
			<path class="st3" d="M445.4,771.1h-5.1c0,0.6,0.1,1.1,0.4,1.6c0.2,0.4,0.5,0.8,0.9,1c0.4,0.2,0.8,0.3,1.3,0.3
				c0.3,0,0.6,0,0.8-0.1c0.3-0.1,0.5-0.2,0.8-0.3c0.2-0.2,0.5-0.3,0.7-0.5c0.2-0.2,0.5-0.4,0.8-0.7c0.1-0.1,0.3-0.2,0.6-0.2
				c0.3,0,0.5,0.1,0.7,0.2c0.2,0.1,0.2,0.4,0.2,0.6c0,0.2-0.1,0.5-0.3,0.8c-0.2,0.3-0.5,0.6-0.8,0.9c-0.4,0.3-0.8,0.5-1.4,0.7
				c-0.6,0.2-1.2,0.3-1.9,0.3c-1.7,0-3-0.5-3.9-1.4c-0.9-1-1.4-2.2-1.4-3.9c0-0.8,0.1-1.5,0.3-2.1c0.2-0.7,0.6-1.2,1-1.7
				c0.4-0.5,1-0.8,1.6-1.1c0.6-0.2,1.4-0.4,2.1-0.4c1,0,1.9,0.2,2.6,0.6c0.7,0.4,1.3,1,1.6,1.7c0.4,0.7,0.5,1.4,0.5,2.1
				c0,0.6-0.2,1.1-0.6,1.3C446.6,771,446.1,771.1,445.4,771.1 M440.4,769.7h4.7c-0.1-0.9-0.3-1.5-0.7-2c-0.4-0.4-1-0.7-1.6-0.7
				c-0.6,0-1.2,0.2-1.6,0.7C440.7,768.1,440.4,768.8,440.4,769.7"/>
			<path class="st3" d="M451.1,766.7v0.3c0.5-0.6,1-1,1.5-1.3c0.5-0.3,1.1-0.4,1.8-0.4c0.8,0,1.5,0.2,2.2,0.6c0.7,0.4,1.2,1,1.6,1.8
				c0.4,0.8,0.6,1.7,0.6,2.8c0,0.8-0.1,1.5-0.3,2.2c-0.2,0.7-0.5,1.2-0.9,1.7c-0.4,0.5-0.9,0.8-1.4,1c-0.5,0.2-1.1,0.4-1.7,0.4
				c-0.7,0-1.4-0.1-1.9-0.4c-0.5-0.3-1-0.7-1.4-1.3v3.9c0,1.1-0.4,1.7-1.2,1.7c-0.5,0-0.8-0.1-1-0.4c-0.2-0.3-0.2-0.7-0.2-1.3v-11.2
				c0-0.5,0.1-0.9,0.3-1.1c0.2-0.2,0.5-0.4,0.9-0.4c0.4,0,0.7,0.1,0.9,0.4C451,765.8,451.1,766.2,451.1,766.7 M456.2,770.4
				c0-0.7-0.1-1.3-0.3-1.8c-0.2-0.5-0.5-0.9-0.9-1.1c-0.4-0.3-0.8-0.4-1.2-0.4c-0.7,0-1.3,0.3-1.8,0.8c-0.5,0.6-0.7,1.4-0.7,2.5
				c0,1,0.2,1.8,0.7,2.4c0.5,0.6,1.1,0.9,1.8,0.9c0.4,0,0.8-0.1,1.2-0.4c0.4-0.3,0.7-0.6,0.9-1.1
				C456.1,771.8,456.2,771.2,456.2,770.4"/>
			<path class="st3" d="M461.4,764c-0.4,0-0.7-0.1-0.9-0.3c-0.3-0.2-0.4-0.5-0.4-0.9c0-0.4,0.1-0.7,0.4-0.9c0.3-0.2,0.6-0.4,0.9-0.4
				c0.3,0,0.6,0.1,0.9,0.3c0.3,0.2,0.4,0.5,0.4,0.9c0,0.4-0.1,0.7-0.4,0.9C462.1,763.9,461.8,764,461.4,764 M462.7,766.7v7.5
				c0,0.5-0.1,0.9-0.4,1.2c-0.2,0.3-0.6,0.4-0.9,0.4c-0.4,0-0.7-0.1-0.9-0.4c-0.2-0.3-0.4-0.7-0.4-1.2v-7.4c0-0.5,0.1-0.9,0.4-1.2
				c0.2-0.3,0.5-0.4,0.9-0.4c0.4,0,0.7,0.1,0.9,0.4C462.6,765.9,462.7,766.2,462.7,766.7"/>
			<path class="st3" d="M471.1,774.6l-2.3-3.8l-1.4,1.3v2.1c0,0.5-0.1,0.9-0.4,1.1c-0.3,0.3-0.6,0.4-0.9,0.4c-0.4,0-0.7-0.1-0.9-0.4
				c-0.2-0.3-0.3-0.7-0.3-1.2v-11.1c0-0.6,0.1-1,0.3-1.3c0.2-0.3,0.5-0.5,1-0.5c0.4,0,0.7,0.1,0.9,0.4c0.2,0.3,0.4,0.7,0.4,1.2v6.3
				l2.9-3.1c0.4-0.4,0.6-0.6,0.8-0.8c0.2-0.1,0.4-0.2,0.7-0.2c0.3,0,0.6,0.1,0.8,0.3c0.2,0.2,0.3,0.5,0.3,0.8c0,0.4-0.4,0.9-1.1,1.5
				l-1.4,1.3l2.7,4.2c0.2,0.3,0.3,0.5,0.4,0.7c0.1,0.2,0.1,0.3,0.1,0.5c0,0.4-0.1,0.7-0.3,1c-0.2,0.2-0.5,0.4-0.9,0.4
				c-0.3,0-0.6-0.1-0.7-0.3C471.6,775.3,471.3,775,471.1,774.6"/>
			<path class="st3" d="M476.7,775.8c-0.4,0-0.7-0.1-1-0.4c-0.3-0.2-0.4-0.6-0.4-1.1c0-0.4,0.1-0.7,0.4-1c0.3-0.3,0.6-0.4,1-0.4
				c0.4,0,0.7,0.1,1,0.4c0.3,0.3,0.4,0.6,0.4,1c0,0.5-0.1,0.8-0.4,1.1C477.4,775.6,477.1,775.8,476.7,775.8"/>
			<path class="st3" d="M489.6,772.6c0,0.3-0.1,0.7-0.3,1c-0.2,0.4-0.5,0.7-0.9,1c-0.4,0.3-0.9,0.6-1.5,0.8c-0.6,0.2-1.3,0.3-2,0.3
				c-1.6,0-2.9-0.5-3.8-1.4c-0.9-0.9-1.3-2.2-1.3-3.8c0-1.1,0.2-2,0.6-2.8c0.4-0.8,1-1.4,1.8-1.9c0.8-0.4,1.7-0.7,2.8-0.7
				c0.7,0,1.3,0.1,1.9,0.3c0.6,0.2,1,0.5,1.4,0.8c0.4,0.3,0.7,0.6,0.9,1c0.2,0.4,0.3,0.7,0.3,1c0,0.3-0.1,0.6-0.3,0.8
				c-0.2,0.2-0.5,0.3-0.8,0.3c-0.2,0-0.4-0.1-0.5-0.2c-0.1-0.1-0.3-0.3-0.5-0.5c-0.3-0.5-0.6-0.8-1-1.1c-0.3-0.2-0.8-0.4-1.3-0.4
				c-0.8,0-1.4,0.3-1.9,0.9c-0.5,0.6-0.7,1.4-0.7,2.5c0,0.5,0.1,0.9,0.2,1.3c0.1,0.4,0.3,0.8,0.5,1c0.2,0.3,0.5,0.5,0.8,0.7
				c0.3,0.2,0.7,0.2,1.1,0.2c0.5,0,1-0.1,1.3-0.4c0.4-0.2,0.7-0.6,1-1.1c0.2-0.3,0.3-0.5,0.5-0.7c0.2-0.2,0.4-0.2,0.7-0.2
				c0.3,0,0.6,0.1,0.8,0.4C489.5,772,489.6,772.3,489.6,772.6"/>
			<path class="st3" d="M500.8,770.5c0,0.8-0.1,1.5-0.4,2.1c-0.2,0.7-0.6,1.2-1,1.7c-0.5,0.5-1,0.8-1.6,1.1
				c-0.6,0.2-1.3,0.4-2.1,0.4c-0.8,0-1.5-0.1-2.1-0.4c-0.6-0.2-1.2-0.6-1.6-1.1c-0.5-0.5-0.8-1-1.1-1.7c-0.2-0.6-0.4-1.4-0.4-2.1
				c0-0.8,0.1-1.5,0.4-2.2c0.2-0.7,0.6-1.2,1-1.7c0.5-0.5,1-0.8,1.6-1.1c0.6-0.2,1.3-0.4,2.1-0.4c0.8,0,1.5,0.1,2.1,0.4
				c0.6,0.3,1.2,0.6,1.6,1.1c0.5,0.5,0.8,1,1,1.7C500.7,769,500.8,769.7,500.8,770.5 M498.2,770.5c0-1.1-0.2-1.9-0.7-2.5
				c-0.5-0.6-1.1-0.9-1.9-0.9c-0.5,0-1,0.1-1.3,0.4c-0.4,0.3-0.7,0.6-0.9,1.2c-0.2,0.5-0.3,1.1-0.3,1.8c0,0.7,0.1,1.3,0.3,1.8
				c0.2,0.5,0.5,0.9,0.9,1.2c0.4,0.3,0.8,0.4,1.4,0.4c0.8,0,1.4-0.3,1.9-0.9C497.9,772.4,498.2,771.5,498.2,770.5"/>
			<path class="st3" d="M510.7,770.7v3.4c0,0.5-0.1,1-0.4,1.2c-0.2,0.3-0.6,0.4-1,0.4c-0.4,0-0.7-0.1-1-0.4
				c-0.2-0.3-0.4-0.7-0.4-1.2V770c0-0.7,0-1.2-0.1-1.5c0-0.4-0.2-0.7-0.4-0.9c-0.2-0.2-0.5-0.4-0.9-0.4c-0.9,0-1.4,0.3-1.7,0.9
				c-0.3,0.6-0.4,1.4-0.4,2.5v3.5c0,0.5-0.1,0.9-0.4,1.2c-0.2,0.3-0.6,0.4-1,0.4c-0.4,0-0.7-0.1-1-0.4c-0.3-0.3-0.4-0.7-0.4-1.2
				v-7.4c0-0.5,0.1-0.9,0.3-1.1c0.2-0.3,0.5-0.4,0.9-0.4c0.4,0,0.7,0.1,0.9,0.4c0.2,0.2,0.4,0.6,0.4,1v0.2c0.5-0.5,0.9-0.9,1.4-1.2
				c0.5-0.3,1.1-0.4,1.7-0.4c0.7,0,1.2,0.1,1.7,0.4c0.5,0.3,0.9,0.7,1.2,1.2c0.4-0.5,0.9-0.9,1.4-1.2c0.5-0.3,1.1-0.4,1.7-0.4
				c0.7,0,1.3,0.1,1.8,0.4c0.5,0.3,0.9,0.7,1.1,1.2c0.2,0.5,0.3,1.2,0.3,2.2v5.1c0,0.5-0.1,1-0.4,1.2c-0.2,0.3-0.6,0.4-1,0.4
				c-0.4,0-0.7-0.1-1-0.4c-0.2-0.3-0.4-0.7-0.4-1.2v-4.4c0-0.6,0-1-0.1-1.3c0-0.3-0.2-0.6-0.4-0.8c-0.2-0.2-0.5-0.3-1-0.3
				c-0.3,0-0.7,0.1-1,0.3c-0.3,0.2-0.5,0.5-0.7,0.8C510.8,768.8,510.7,769.6,510.7,770.7"/>
		</g>
		<g class="st2">
			<path class="st3" d="M390,769.9C390,769.9,390,769.9,390,769.9C390,769.9,390,769.9,390,769.9z"/>
			<path class="st3" d="M390.1,770.7C390.1,770.7,390.1,770.7,390.1,770.7c0-0.2-0.1-0.5-0.1-0.7C390,770.2,390.1,770.5,390.1,770.7
				z"/>
			<path class="st3" d="M391,773.1C391,773.1,390.9,773.1,391,773.1C390.9,773.1,391,773.1,391,773.1z"/>
			<path class="st3" d="M390.9,772.9c0,0,0-0.1-0.1-0.1C390.8,772.9,390.9,772.9,390.9,772.9z"/>
			<path class="st3" d="M390.3,771.6c0.1,0.4,0.3,0.8,0.5,1.2C390.6,772.4,390.5,772,390.3,771.6
				C390.3,771.6,390.3,771.6,390.3,771.6z"/>
			<path class="st3" d="M400,759.9c0.5,0,0.9,0,1.3,0.1l0.1-0.8c0,0-1.2-0.4-2.7-0.2l-0.1-0.4c0.5-0.1,0.8-0.5,0.8-1
				c0-0.6-0.5-1.1-1.1-1.1c-0.6,0-1.1,0.5-1.1,1.1c0,0.5,0.4,0.9,0.8,1l0.1,0.5c-1.6,0.2-2.9,0.9-2.9,0.9l0.2,0.7
				c1-0.3,1.8-0.5,2.6-0.6C399,760,399.5,759.9,400,759.9z"/>
			<path class="st3" d="M390.9,763.8L390.9,763.8c0-0.1,0.1-0.1,0.1-0.2l-0.3-0.2l-0.5-0.4c0,0-0.8,0.7-1.4,2c0,0-0.1-0.1-0.1-0.1
				c-0.2-0.2-0.4-0.3-0.8-0.3c0,0,0,0,0,0c-0.2,0-0.3-0.1-0.4-0.1c0.1-0.1,0.1-0.3,0.1-0.4c0-0.4-0.3-0.7-0.7-0.7
				c-0.4,0-0.7,0.3-0.7,0.7c0,0.4,0.3,0.7,0.7,0.7c0.1,0,0.1,0,0.2,0c0.2,0.2,0.4,0.3,0.8,0.3c0.2,0,0.3,0,0.4,0.2
				c0.1,0.1,0.1,0.3,0.2,0.4c0,0,0,0,0,0c-0.4,1.2-0.3,2.7-0.3,2.7l1.1,0c0-0.5,0.1-1.5,0.4-2.2
				C390.3,764.7,390.9,763.8,390.9,763.8z"/>
			<path class="st3" d="M409.2,760.8c-0.4,0-0.7,0.3-0.7,0.7c0,0.1,0,0.1,0,0.2c-0.2,0.2-0.3,0.4-0.3,0.8c0,0.2,0,0.3-0.2,0.4
				c-0.1,0.1-0.2,0.1-0.3,0.1c-0.8-1.1-1.8-1.8-1.8-1.8l-0.8,0.8c0.6,0.5,1.2,1.2,1.7,2c0.4,0.6,0.8,1.3,1.1,2l1-0.5
				c0,0-0.5-1.2-1.1-2.2c0.1,0,0.2-0.1,0.3-0.2c0.2-0.2,0.3-0.4,0.3-0.8c0-0.2,0.1-0.3,0.1-0.4c0.1,0.1,0.3,0.1,0.4,0.1
				c0.4,0,0.7-0.3,0.7-0.7C409.9,761.1,409.6,760.8,409.2,760.8z"/>
			<path class="st3" d="M406.5,770c-1.4,0.7-3.7,1.6-6.8,2c-1.2,0.2-2.4,0.2-3.4,0.2c-1.4,0-2.6-0.1-3.6-0.2
				c-1.1-0.1-1.9-0.3-2.4-0.4c0.1,0.4,0.3,0.8,0.5,1.2c0,0,0,0,0,0c0,0,0,0.1,0.1,0.1c0,0,0,0.1,0.1,0.1c0,0,0,0,0,0
				c0.3,0.6,0.7,1.1,1.1,1.5c1.4,1.6,2.9,1.8,2.9,1.8l0,0l0,0c0,0,1.3,0.4,3.3,0.4c1.9,0,3.9-0.4,5.7-1.2c1.3-0.7,2.6-1.7,3.3-2.7
				c0.5-0.7,0.8-1.5,1-2.3c0.1-0.4,0.2-1.1,0.1-1.8C408,769.2,407.4,769.6,406.5,770z"/>
			<path class="st3" d="M391.4,764.1c0,0.1-0.7,0.9-1.1,2.3c-0.4,1-0.3,2.4-0.3,2.5v0c0,0.3,0,0.7,0.1,1c0,0,0,0,0,0
				c0,0,0,0.1,0,0.1c0,0.2,0.1,0.5,0.1,0.7c0.7,0.2,4.9,1.2,9.5,0.5c2.9-0.4,5.1-1.3,6.5-1.9c1.1-0.5,1.8-1,2.1-1.2
				c-0.3-1-1-2.6-1.7-3.6c-2-2.9-4.2-3.6-5.3-3.8c-0.4-0.1-0.8-0.1-1.2-0.1c-0.4,0-1,0-1.7,0.1c-0.7,0.1-1.6,0.3-2.5,0.6
				c-1.3,0.5-2.6,1.2-3.5,2l0,0C392,763.4,391.7,763.7,391.4,764.1z M403.7,763.5c1,0,1.7,0.8,1.7,1.7c0,1-0.8,1.7-1.7,1.7
				c-1,0-1.7-0.8-1.7-1.7C401.9,764.2,402.7,763.5,403.7,763.5z M395.4,763.4c1.6,0,2.8,1.3,2.8,2.8c0,1.6-1.3,2.8-2.8,2.8
				c-1.6,0-2.8-1.3-2.8-2.8C392.6,764.6,393.9,763.4,395.4,763.4z"/>
		</g>
	</g>
	<g>
		<g>
			<g>
				<g>
					<g>
						<path class="st4" d="M78.3,568.9c0,0,79.2-34.4,89.7-40.5l-2.5-8.7c0,0-81.1,30.1-91.3,30C74.2,549.7,71.1,566.6,78.3,568.9z"
							/>
						<path class="st5" d="M121.2,636.2c0,0-39.6-40.8-43.6-92.9c-4-52.1,16.7-100.2,16.7-100.2s-24.2,1.6-33.7,8.6
							c0,0-23,58.5-5,113.5s51,76.5,51,76.5S115.8,641.7,121.2,636.2z"/>
						<path class="st6" d="M134.6,434.3c0,0-37.4-7.3-46.2-4.7c-8.8,2.6-27.8,22.1-27.8,22.1s26.3-8.5,56-3.2L134.6,434.3z"/>
					</g>
					<g>
						<path class="st7" d="M110.1,641.3c0,0,8.4,15.2,2.9,31.8l6.5-6.4l4.5,6.4c0,0,9.5-21.9-4-35.9L110.1,641.3z"/>
						<path class="st8" d="M180.5,721.7c0,0-19.5-8.5-30.5-24.5s-11.5-42.1-37-52l11-8c0,0,15,6.2,22.7,22.4
							c7.8,16.1,14.1,42.1,26.6,47.3S180.5,721.7,180.5,721.7z"/>
						<path class="st4" d="M128,636.7c0,0-2-5.2-6.9-5.6s-16.6,9.1-16.6,9.1s5.7,6,7.9,7S123.5,645.2,128,636.7z"/>
					</g>
				</g>
				<g>
					<g>
						<path class="st8" d="M359.1,562.2c0,0,8.2-0.1,17.3,6.7c9.2,6.8,30.2,40.3,31.9,72.8s-18.4,44.5-18.4,44.5
							S393.6,616.2,359.1,562.2z"/>
						<path class="st9" d="M400.2,611.4c-1.6-5.4-4-10.6-6.7-15.6c-5.4-9.9-12.7-19.6-21-27.4c-0.6-0.6-1.6,0.2-1.2,0.9
							c5.7,9.2,12.8,17.4,18.3,26.8c3,5.1,5.4,10.5,7.2,16.2c1.6,4.8,1.5,11,4.3,15.2c0.5,0.7,1.8,0.7,2-0.3
							C403.9,622.1,401.7,616.3,400.2,611.4z"/>
						<path class="st9" d="M403.9,632.8c-0.2-0.9-1.6-0.9-1.7,0c-1.3,6.3-0.5,13-0.7,19.5c-0.1,3.9-0.6,7.8-1.4,11.6
							c-0.6,2.8-1.7,4.9-1.2,7.8c0.1,0.5,0.8,0.6,1.1,0.3c4.4-3.7,4.3-12.6,4.7-18C405.2,647.1,405.3,639.5,403.9,632.8z"/>
						<g>
							<path class="st10" d="M400.7,672.2c-0.6-0.2-1.1,0.1-1.6,0.2c-0.8,0.2-1.5,0-2.3-0.3c-0.5-0.2-0.8,0.4-0.4,0.7
								c0.7,0.5,1.5,0.9,2.4,1c0.9,0.1,1.9-0.1,2.2-1C401.1,672.5,400.9,672.3,400.7,672.2z"/>
							<path class="st10" d="M404.6,660.3c-0.9-0.4-1.7-0.1-2.6,0.1c-1.3,0.3-2.6,0.7-4,0.8c-0.8,0.1-0.8,1.2,0,1.3
								c1.3,0.1,2.5,0.3,3.8,0.1c1.1-0.1,2.5-0.3,3-1.4C405,660.9,405,660.5,404.6,660.3z"/>
							<path class="st10" d="M406.6,646.2c-1.2,0.2-2.1,1.4-3.1,2c-1.2,0.8-2.7,1.2-4.2,1.1c-0.5,0-0.8,0.8-0.3,1.1
								c1.6,0.7,3.1,0.7,4.7,0c1.5-0.6,3.7-1.7,3.8-3.5C407.5,646.4,407,646.2,406.6,646.2z"/>
							<path class="st10" d="M405.3,634.6c-2.3,0.1-4.1,2.2-6.2,3.1c-0.9,0.4-0.3,1.9,0.6,1.6c2-0.7,4.6-1.9,5.9-3.7
								C406,635.2,405.8,634.6,405.3,634.6z"/>
							<path class="st10" d="M402.3,621.4c-1.1-0.9-2.7-0.3-3.9,0.3c-1.6,0.7-3.2,1.6-4.1,3.1c-0.6,0.8,0.5,1.6,1.2,1.2
								c1.3-0.5,2.5-1.3,3.8-1.8c1-0.4,2.7-0.8,3.1-1.9C402.5,622,402.6,621.6,402.3,621.4z"/>
							<path class="st10" d="M399.7,606c-1.3-1-3.4-0.3-4.7,0.3c-1.8,0.8-3.2,2-4.6,3.4c-0.7,0.7,0.3,2.1,1.1,1.5
								c1.4-1,2.9-1.7,4.5-2.4c1.2-0.5,2.9-0.7,3.8-1.7C400.2,606.8,400.1,606.3,399.7,606z"/>
							<path class="st10" d="M392.1,594.6c-0.9-1.1-2.8-0.1-3.8,0.3c-1.4,0.6-2.8,1.6-3.4,3c-0.2,0.5,0.4,1.1,0.9,0.9
								c1.4-0.5,2.7-1.3,4.1-1.8C390.6,596.8,393.1,595.9,392.1,594.6z"/>
							<path class="st10" d="M388,583.8c-2.5-1.3-5.7,2.1-6.6,4.2c-0.4,1,0.7,1.9,1.6,1.2c0.8-0.7,1.5-1.3,2.4-1.9
								c0.9-0.6,2.2-0.9,2.9-1.7C388.7,585,388.7,584.1,388,583.8z"/>
							<path class="st10" d="M381.4,576.3c-0.9-0.2-1.8,0.3-2.6,0.8c-0.7,0.5-1.4,1-2,1.6c-0.8,0.9,0.2,2.2,1.3,1.7
								c0.7-0.3,1.3-0.7,2-1.1c0.7-0.4,1.5-0.8,1.9-1.5C382.3,577.2,382,576.4,381.4,576.3z"/>
							<path class="st10" d="M375.5,568.4c-0.6-0.7-1.7-0.2-2.2,0.2c-0.8,0.5-1.5,1.2-1.8,2.1c-0.5,1,0.7,1.9,1.5,1.2
								c0.6-0.5,1.1-1,1.7-1.4C375.3,570,376.1,569.2,375.5,568.4z"/>
						</g>
					</g>
					<path class="st6" d="M317.8,471.2c0,0,45.3,85.8,56.9,107.5c43.1,80.6,11.6,114.9,11.6,114.9S306.5,487.1,317.8,471.2z"/>
					<path class="st11" d="M316.5,485.2c0,0,48.2,94.5,59.9,119.5c11.7,25,9.9,80,4,89.5c0,0,5.2,3,8.2-4s9.8-50.5-6.1-86.5
						s-60.9-120.5-62.4-122S314.1,480.4,316.5,485.2z"/>
				</g>
				<g>
					<g>
						<path class="st12" d="M97.3,446.2c0,0,59.7,8.4,66.7,14s34.5,53.1,41.9,56.1c7.3,3,9.6,0,9.6,0s42.6,101,55.2,148.5
							c12.7,47.5,8.2,66.7,4.7,73.8h-10.3c0,0-62.6,1.6-81.6-21L97.3,446.2z"/>
						<path class="st13" d="M220.9,528.5c0,0-11.3,2-24.9,0s-44.5-59.6-53.8-61.1c-9.3-1.5-17.5,8-17.5,8s37.2,151.3,62.4,169.7
							c25.2,18.4-7,69.3-7,69.3S109,474.6,104.5,468.8c-4.5-5.8,0.8-16.4,11.8-18.5c10.9-2.2,47.2-7.2,58.9,7.6
							C187,472.5,220.9,528.5,220.9,528.5z"/>
						<path class="st14" d="M215.7,551.3c-20.7-2.2-47.3-8.3-58.5-15.3c-11.2-7-13-30.4-9.8-33.2s13-1.2,14.6,0s17.2,23.4,23.4,26.5
							s22.1,4.1,23.4,6.6C210,538.5,220.8,551.8,215.7,551.3z"/>
						<path class="st13" d="M140.2,557.4c0,0,56.8,36.1,91.6,17l3.1-12.2c0,0-89.7-15.9-96.5-19.8
							C131.5,538.5,140.2,557.4,140.2,557.4z"/>
					</g>
					<path class="st11" d="M97.3,446.2c0,0,5.2,10,11.7,29c6.5,19,59.5,192,65,209s12.5,36,8.5,37.5s-11.5-33.5-17.5-49
						S91.6,448.2,97.3,446.2z"/>
					<g>
						<g>
							<path class="st8" d="M141.3,619.8c0,0-3.6-9.3,2.1-12.7s33.6-7.5,52.6,0s54.4,23.9,68.4,57.5c11.3,27,15.6,57,6.3,73
								c0,0-5.6,5-11.4,5c0,0,11.7-47.8-23.3-86.5S169.7,612.5,141.3,619.8z"/>
							<path class="st9" d="M266.7,673.3c-8.9-21.5-26.4-40.4-46-52.7c-8.9-5.5-18.5-9.5-28.6-11.9c-10.6-2.5-22.6-4.4-33.5-3
								c-0.9,0.1-0.9,1.3,0,1.4c10.7,0.9,20.9,1,31.4,3.8c9.7,2.6,19.1,6.9,27.7,12c9.1,5.4,17.1,12.3,24.4,19.9
								c9.2,9.6,14.4,21.3,22.3,31.7C265.4,676,267.3,674.9,266.7,673.3z"/>
							<path class="st9" d="M272.9,702.5c-0.9-7.5-2.6-15.7-6.2-22.4c-0.4-0.8-1.5-0.2-1.4,0.6c1.2,7.9,3.7,15.5,4.6,23.5
								c0.4,4,0.5,7.9,0.5,11.9c0,3.7-0.7,7.5,0.1,11.2c0.2,1.2,1.8,0.9,2.1,0C275.3,720.1,273.8,710,272.9,702.5z"/>
							<g>
								<path class="st10" d="M271,733.4c-1.2-0.2-2.3,0.2-3.5,0.4c-1.3,0.2-2.7,0.1-4,0.1c-1.1,0-1.4,1.8-0.3,2
									c2.3,0.4,6.9,1.4,8.2-1.4C271.6,734.1,271.5,733.5,271,733.4z"/>
								<path class="st10" d="M273.4,721c-1,0.3-1.8,1-2.7,1.4c-1.1,0.5-2.2,0.7-3.4,0.6c-1,0-1.2,1.6-0.2,1.7
									c2.3,0.3,6.4-0.1,7.1-2.9C274.3,721.4,273.9,720.9,273.4,721z"/>
								<path class="st10" d="M272.3,710.5c-0.8,0-1.6,0.6-2.2,1c-0.8,0.6-1.7,0.9-2.8,0.9c-1.1,0-1.4,1.7-0.2,1.9
									c1.3,0.2,2.4,0,3.6-0.5c1-0.5,2.3-1.5,2.3-2.7C273,710.8,272.6,710.5,272.3,710.5z"/>
								<path class="st10" d="M271.6,696c-1.1,0.4-1.9,1.5-2.8,2.3c-1.1,1-2.6,1.5-4,1.6c-1.3,0.1-1.4,2.1,0,2.1
									c1.7,0,3.4-0.3,4.8-1.3c1.3-0.8,3.1-2.4,2.9-4C272.5,696.2,272.1,695.8,271.6,696z"/>
								<path class="st10" d="M269.5,685c-0.2-0.5-0.6-0.7-1.1-0.5c-1.1,0.5-1.8,1.8-2.6,2.7c-1,1-2.2,1.9-3.5,2.5
									c-1,0.5-0.3,1.8,0.7,1.6c1.7-0.3,3-1,4.4-2C268.5,688.4,270.1,686.5,269.5,685z"/>
								<path class="st10" d="M267.5,673.5c-0.1-0.3-0.5-0.4-0.7-0.4c-1.5,0-2.6,1.7-3.6,2.6c-0.8,0.7-1.7,1.2-2.6,1.6
									c-0.8,0.4-1.5,0.5-2.2,1c-0.4,0.4-0.2,1,0.2,1.3c1.7,1.2,4.5-0.3,6-1.3C266,677.4,268.4,675.4,267.5,673.5z"/>
								<path class="st10" d="M260.6,663.5c-0.1-0.4-0.4-0.5-0.8-0.6c-1.1-0.1-2,1.2-2.8,1.9c-1.1,1-2.3,1.7-3.7,2.1
									c-0.8,0.2-0.9,1.6,0,1.7c1.7,0.3,3.3-0.2,4.7-1.2C259,666.6,261.1,664.9,260.6,663.5z"/>
								<path class="st10" d="M254.6,651.7c-0.1-0.3-0.5-0.5-0.8-0.5c-1.5,0.1-2.4,1.8-3.2,2.9c-1,1.2-2.5,2.6-4,3
									c-0.9,0.2-0.7,1.6,0.2,1.6c2.1,0,3.6-0.6,5.2-2C253.3,655.6,255.3,653.5,254.6,651.7z"/>
								<path class="st10" d="M246.9,642.3c-0.2-0.4-0.6-0.4-1-0.3c-1.3,0.6-2.2,2.6-3,3.7c-1.1,1.3-2.4,2.3-3.7,3.3
									c-0.7,0.5,0,1.4,0.6,1.5c2,0.2,3.9-1.3,5.2-2.8C246.1,646.5,247.8,644.1,246.9,642.3z"/>
								<path class="st10" d="M238,634.5c-0.1-0.4-0.5-0.6-0.9-0.5c-1.3,0.2-2.2,1.7-2.9,2.6c-0.9,1.2-1.8,2.3-2.3,3.7
									c-0.4,0.9,0.6,1.6,1.3,1c1.2-0.9,2.1-2.1,3.1-3.2C237.1,637,238.2,635.9,238,634.5z"/>
								<path class="st10" d="M226,625.2c-1.5-0.2-2.6,1-3.5,2c-1.1,1.2-1.8,2.7-2.5,4.1c-0.5,1.3,1.3,2.4,1.9,1.1
									c0.6-1.2,1.4-2.4,2.3-3.5c0.7-0.9,2-1.7,2.3-2.9C226.6,625.7,226.4,625.2,226,625.2z"/>
								<path class="st10" d="M214.9,616.5c-1.6,0.4-2.7,1.9-3.6,3.2c-1.1,1.6-1.9,3.5-1.6,5.5c0.2,1.5,2.3,1.5,2.3,0
									c0.2-3.2,3.4-5,3.7-8C215.7,616.7,215.3,616.4,214.9,616.5z"/>
								<path class="st10" d="M176.5,605.7c-1.1,0.5-1.8,1.8-2.2,2.9c-0.6,1.3-1,2.7-1.2,4.1c-0.1,1,1.7,1.3,1.8,0.2
									c0.2-1.3,0.6-2.6,1.2-3.8c0.5-0.9,1.1-1.9,1.2-3C177.4,605.7,176.9,605.5,176.5,605.7z"/>
								<path class="st10" d="M166.5,603.7c-0.1-0.4-0.5-0.6-0.9-0.5c-1.4,0.2-2.1,2.1-2.5,3.3c-0.5,1.7-0.5,3.4,0.2,5
									c0.6,1.2,2.1,0.3,2-0.8c-0.2-1.3,0.1-2.6,0.5-3.9C166.1,605.8,166.8,604.7,166.5,603.7z"/>
								<path class="st10" d="M200.6,612c-0.1-0.4-0.4-0.5-0.7-0.4c-1.4,0.2-2.2,2.1-2.7,3.3c-0.6,1.5-1,3-0.9,4.6
									c0.1,1.3,1.8,1.2,1.9,0c0.2-1.5,0.6-3,1.3-4.3C200,614.1,200.8,613.1,200.6,612z"/>
								<path class="st10" d="M189.8,607.2c0-0.4-0.4-0.6-0.7-0.5c-2.4,0.4-3.5,3.8-4.2,5.8c-0.3,1-0.4,2.1-0.2,3.2
									c0.1,0.6,1.2,1.4,1.7,0.8c0.4-0.4,0.4-0.8,0.4-1.4c0-1,0.4-2.1,0.8-3C188.4,610.4,189.6,608.9,189.8,607.2z"/>
							</g>
						</g>
						<g>
							<defs>
								<path id="SVGID_1_" d="M176.5,721.7c-4.5-2.6-39.3-100.6-36.2-107.5s58.3-1,85.7,23c28,24.5,51.1,67.5,33.3,105.5
									C259.4,742.7,234.5,755.8,176.5,721.7z"/>
							</defs>
							<use xlink:href="#SVGID_1_"  style="overflow:visible;fill:#FF8806;"/>
							<clipPath id="SVGID_00000129205149948852461690000005426731498957695899_">
								<use xlink:href="#SVGID_1_"  style="overflow:visible;"/>
							</clipPath>
							<path style="clip-path:url(#SVGID_00000129205149948852461690000005426731498957695899_);fill:#DB7A05;" d="M198.3,619.4
								c0,0-19.1,37.6-20.9,48.3c-1.8,10.7,19.9,39.1,27.5,46.7c7.6,7.6,52,17.1,61.5,4.6s-1.6,29.7-16,39.6
								c-14.4,9.9-76.3-24.9-83.9-33.7c-7.6-8.9-37.9-100-34.3-108.2S172.5,603.4,198.3,619.4z"/>
						</g>
						<g>
							<path class="st16" d="M147.2,605.7c0,0-12.6-17.2-16.1-17.9c-3.5-0.7-11.2,10.3-11.2,10.3s19.6,12.3,23.6,12.9
								C147.4,611.6,147.2,605.7,147.2,605.7z"/>
							<path class="st10" d="M119.8,603c0,0,21.2,10.5,23.3,9.4c2.2-1.1,1.7-0.9,1.7-0.9l-25-13.3V603z"/>
							<path class="st10" d="M153.5,603c-4.1-0.8-8.2,0.9-10.8,4.7c-2.5,3.8,5.2,3.9,7.3,4.2C154,612.4,161.8,604.5,153.5,603z"/>
						</g>
					</g>
					<g>
						<g>
							<path class="st11" d="M122,538.7c0,0,64.7,47.5,121.4,35.7c0,0-3.3-14.1-7.3-16.9c0,0-47.7,8.1-118.9-34.4
								C117.2,523.1,116.3,534.8,122,538.7z"/>
							<path class="st17" d="M213,560.7c-5-0.6-47-8.3-59.3-16.4c0,0-2.3,3.9-1.7,8.2s36.2,17.3,50.9,17.9c14.7,0.7,20.3-7.1,18-8.2
								C218.7,561,216.9,561.1,213,560.7z"/>
						</g>
						<g>
							<g>
								<path class="st11" d="M159.6,682.2c0,0,42.5-77,82.5-111l-6-13.7c0,0-54,31.2-86,105.7C150,663.2,155.1,681.7,159.6,682.2z"
									/>
								<path class="st17" d="M213.2,578.3c4.8-5,18.5-16,21.6-16.2s4,8.2,4,8.2s-15,14.9-18,16
									C217.9,587.5,213.2,578.3,213.2,578.3z"/>
								<path class="st17" d="M202,609.6c2.7-5.8-7.5-10.9-10.4-10.2c-2.9,0.7-25.2,36.2-26.9,42.2s8.8,8.1,10.6,6.9
									S200,613.8,202,609.6z"/>
							</g>
							<g>
								<path class="st4" d="M191.5,592.3c0,0,18.4,16.2,21.5,15.2s10-15.2,10-15.2s-12.7-12.7-17.1-13.7
									C201.5,577.7,191.5,592.3,191.5,592.3z"/>
								<polyline class="st18" points="198.1,583.9 202.9,587.8 200.7,592.3 207.3,598.2 212.6,594.2 219.2,599.4 								"/>
								<path class="st19" d="M220,592.3c-3-2.8-12.1-11.8-15.1-11.9l-4.2,3c0,0,5.7,2.1,5.2,3.1c-0.4,1-1.9,5.2-1.9,5.2l4,2.5
									c0,0,4.5-2.7,6.2-1.8c1.8,0.9,5,4.2,5,4.2L220,592.3z"/>
							</g>
						</g>
					</g>
				</g>
				<g>
					<g>
						<path class="st13" d="M207.6,503.2c0,0,25.1,54.5,33.4,76c8.2,21.5,31.6,83.4,34.8,107c3.2,23.6,3.1,33.5-0.3,52.3
							c0,0,65.5-30.8,73.8-37.3c0,0,32.7-7.1,36.1-15c3.3-7.9,9.6-38.7-5.9-78.7s-63.6-130.8-63.6-130.8L207.6,503.2z"/>
						<path class="st12" d="M269.6,626c-5.1-11.3-36-80.4-33.6-84.2s34.4-12.5,49.2-17.4c14.8-4.9,35.2-18.2,37.5-15.6
							s27.3,59.6,40.5,85.3c13.2,25.7,20.8,77.2,12.5,88s-80.6,30.6-84.2,25.3C283.5,696,280.6,650.6,269.6,626z"/>
					</g>
					<path class="st11" d="M214.2,519.2c0,0,31.4,74,46.1,117s22.8,78.1,11.4,101.5c0,0,7,4,9.9-4.5c2.9-8.5,4.2-25.5,0.8-46.5
						c-3.4-21-38.4-118.5-61.4-167.5C221,519.2,212.4,505.2,214.2,519.2z"/>
					<g>
						<g>
							<defs>
								<path id="SVGID_00000026136365917909467120000010748409631180785853_" d="M243.4,549.7c0,0,27.1,70.8,32.1,70.1
									c5-0.7,65.9-22.7,68.7-28.7c0,0-13.8-55.3-21.5-64.6C315,517.2,253.1,541.6,243.4,549.7z"/>
							</defs>
							<use xlink:href="#SVGID_00000026136365917909467120000010748409631180785853_"  style="overflow:visible;fill:#FFA20D;"/>
							<clipPath id="SVGID_00000063618271317551717320000014013499850782067894_">
								<use xlink:href="#SVGID_00000026136365917909467120000010748409631180785853_"  style="overflow:visible;"/>
							</clipPath>
							<path style="clip-path:url(#SVGID_00000063618271317551717320000014013499850782067894_);fill:#DB6809;" d="M243.4,549.7
								c0,0,7.9-4.2,9.6-1.6c1.7,2.6,23.7,63.2,26.2,66.6s14.6-0.8,14.6-0.8s-17.1,8.2-20.1,8.5
								C270.7,622.7,243.4,549.7,243.4,549.7z"/>
							<path style="clip-path:url(#SVGID_00000063618271317551717320000014013499850782067894_);fill:#FFC23B;" d="M329.9,553.3
								c0,0-18.3,19-28.6,21c-10.3,2-25-0.1-27.2,2c-2.2,2,8.9,29.3,12.7,31.3c3.8,2,52.4-15.5,53.1-18.2S329.9,553.3,329.9,553.3z"
								/>
						</g>
						<g>
							<path class="st22" d="M307.3,569.2c0,0,24.6-18,26.2-24.5s-4.1-23.5-10.7-28.5c0,0-62.8,19.5-79.3,33.5c0,0,12.8-5,16,2.5
								s6.2,16.5,8.2,17S298.5,571.7,307.3,569.2z"/>
							<path class="st23" d="M322.7,523.1c-5.5-2-54.7,21.3-59.7,24.2c0,0,6.8,16.4,9.6,18.4c2.8,2,26,0.7,33.1,0
								c7.1-0.7,24.2-18.3,24.3-23.3C330,537.3,325.8,524.2,322.7,523.1z"/>
						</g>
						<g>
							<path class="st24" d="M316.5,611c0,0-22.5-73.4-26.2-76.9s-6.9-4.3-6.9-4.3s2.8-3.9,8.2-3.1c0,0,5.8-0.1,8.3,6.4
								s18.4,61.5,22.7,74C322.7,607.2,322.5,611.4,316.5,611z"/>
							<path class="st25" d="M293.8,532.9c2.7-1.1,4.5,1.8,7,8.9s10,31,11,34.5c1,3.4-2.5,6.1-2.5,6.1s-11.6-36.2-13.6-40.5
								S292.2,533.6,293.8,532.9z"/>
						</g>
					</g>
					<g>
						<g>
							<defs>
								<path id="SVGID_00000062900813587430566730000015465732175102619839_" d="M280.6,641.7c0,0,11.4,33.3,9.7,53.1
									c-1.8,19.9,0,30.9,0,30.9s11.5,1.5,21.6,0c10.1-1.5,27.2-6.5,42.4-19.5c0,0,29.6-9.2,31.9-12.6c2.3-3.4,7.9-53.1-9.9-73.7
									L280.6,641.7z"/>
							</defs>
							<use xlink:href="#SVGID_00000062900813587430566730000015465732175102619839_"  style="overflow:visible;fill:#FFA20D;"/>
							<clipPath id="SVGID_00000065756247455818836530000008124269394170717058_">
								<use xlink:href="#SVGID_00000062900813587430566730000015465732175102619839_"  style="overflow:visible;"/>
							</clipPath>
							<g style="clip-path:url(#SVGID_00000065756247455818836530000008124269394170717058_);">
								<path class="st27" d="M281.4,641.7c0,0,20.6,6.7,22.8,8.7c2.2,2,6.2,23,5.5,35.8c-0.7,12.8,0.2,31.9,2.2,35.5
									c2,3.6,15.5,0,15.5,0s-23.3,13-38.8,4.6c0,0-1.2-32.5-2.7-40.9c-1.5-8.4-2.1-18.4-4.4-23.4S274.6,639.4,281.4,641.7z"/>
							</g>
							<path style="clip-path:url(#SVGID_00000065756247455818836530000008124269394170717058_);fill:#FFC23B;" d="M352.6,700.4
								c-5.9,1-15.1,14.1-28.6,14.6c-13.5,0.5-4-27.8-4.5-34.9c-0.5-7.1-1.1-20.8,13.9-19.9c15.1,0.8,40-13.5,43-16.8
								s5.7,18.7,5.6,27.2S384.1,695.3,352.6,700.4z"/>
						</g>
						<g>
							<g>
								<path class="st22" d="M311.9,651.2c2.6,0,26.2,0.1,45.1-6.2c15-5,26.1-16.1,27.5-19.2c3.2-7.1-3.6-19.5-14.8-22.8
									c0,0-78.5,26.4-91.9,37.7C277.9,640.7,297.3,651.2,311.9,651.2z"/>
								<path class="st23" d="M370,606.6c2.3-0.7,12.3,10,11.3,14.3s-40.1,17.3-53.9,21c-13.8,3.7-28.4-1.1-31.8-2.7
									C292.3,637.7,363.6,608.6,370,606.6z"/>
							</g>
							<g>
								<circle class="st6" cx="354.6" cy="639.7" r="4.4"/>
								<circle class="st29" cx="355.3" cy="638" r="2.8"/>
							</g>
						</g>
					</g>
				</g>
				<g>
					<g>
						<path class="st14" d="M93,447.7c0,0,87.2-31,112.9-40.2c25.6-9.3,49.6-13.7,53.5-13.8c3.9-0.1,47.9,10,52.6,13.8
							c4.6,3.7,21.4,59.7,21.5,66.2c0.1,6.5-30.7,31-52.8,40.5s-61.4,14.5-74.7,11.5c-13.4-3-41.8-61-46.4-64
							C155,458.7,97.9,450,93,447.7z"/>
						<path class="st30" d="M288.5,417.3c-9.4,2.5-102.7,35.4-106.8,39.5c0,0,27.7,47.9,34,48.8s36.9-3.2,54.6-11.2
							c17.7-8,39.7-24.2,40.2-27.6C311,463.5,292.9,416.1,288.5,417.3z"/>
						<path class="st13" d="M135.2,456.1c0,0,8.8,2.3,14.8-0.6c6-2.9,29.7-14.7,33.6-15.1c3.9-0.4,19.8-2.1,22.3-7.9
							c0,0,47.2-18.3,51.6-20.4c4.5-2,17-3.7,20-4.6c3-0.9,5.9-9.1,5.9-9.1S158,435.1,135.2,456.1z"/>
						<g>
							<path class="st11" d="M215.2,514C215.2,514,215.2,514,215.2,514c-0.5,0-0.9,0-1.3,0c-7.5-0.5-19.8-21.1-32.8-44
								c-4.3-7.5-8-14.1-9.3-15.2c-3.1-2.8-30.4-6.1-47.9-7.6l-4-0.3l3.7-1.6c16.5-7,120.3-45.6,127.3-45.6c0.1,0,0.1,0,0.2,0
								c5.1,0.5,39.6,6.9,45.2,11.2c5.3,4.1,22.2,48.7,22.5,56.6c0.3,8.4-36.6,31.9-42.7,34.2C269.3,504.1,227.7,514,215.2,514z
								 M128.2,445.5c11.4,1.1,41.1,4.2,45,7.7c1.5,1.3,4.5,6.5,9.7,15.7c9,15.9,24.2,42.6,31.2,43c10.8,0.7,54.4-9.7,61.3-12.3
								c7.3-2.7,41.6-26,41.4-32.2c-0.2-6.9-16.9-51.3-21.7-55c-4.8-3.7-38.3-10.3-44.1-10.8C244.9,401.7,153.4,435.4,128.2,445.5z"
								/>
						</g>
					</g>
					<g>
						<path class="st31" d="M231.7,480.9c0,0-9.7-16.7-8.7-19.2c1-2.5,42.5-16.5,47.7-15.5c5.3,1,8.2,18.4,6.7,19
							C276,465.7,237.6,480.9,231.7,480.9z"/>
						<path class="st32" d="M240.9,473.6c0,0-7.1-12.3-6.4-14.1s31.3-12.2,35.1-11.4s6,13.6,5,14
							C273.5,462.4,245.2,473.6,240.9,473.6z"/>
					</g>
					<g>
						<g>
							<path class="st31" d="M269,484.2c11.8-2.6,14.4,0.4,16.8,6.5c1.5,3.8,8.6,22.5,9.6,25s-2.4,7.2-7.9,10.9
								c-5.5,3.6-13.2,1.2-18-2.9s-9.8-21.5-10.2-25.5C259,494.2,260.6,486,269,484.2z"/>
							<path class="st25" d="M267.7,488.5c3.9-1.9,10.6-3.5,12.9-1c2.4,2.5,6.4,14.5,6.4,15.3s-17,12.3-18.8,11.8
								C266.3,514,257.2,493.5,267.7,488.5z"/>
						</g>
						<g>
							<circle class="st6" cx="283.5" cy="519.7" r="5.1"/>
							<circle class="st29" cx="283.5" cy="518" r="3.4"/>
						</g>
					</g>
				</g>
			</g>
			<g>
				<g>
					<path class="st33" d="M94.1,394.1c9-7.3,57.9-16.4,89.4-25.9s90.2-27.5,108.1-38c0,0,19.7,0.5,31.1,19.5
						c11.3,19,0.1,37.5-10.8,41c-10.9,3.5-46.9,14.5-81.4,27.5s-88,33.1-110,47C100.2,478,68.1,415.1,94.1,394.1z"/>
					<path class="st34" d="M142.3,426c-5.8-1.3-8.7-20.9-16.3-30.6c-7.2-9,21.8-12,31.2-14.4c9.4-2.5,45.6-11.2,63.7-17.3
						s67-28.2,71.8-28.7s21,8.8,23.1,20.6c2.2,11.9-15.9,19.7-27.3,21.7s-58.1,12.1-72.8,18.1C201,401.5,155.6,429,142.3,426z"/>
				</g>
				<g>
					<path class="st35" d="M96.7,392.5c6.6-3.5,25.7,3.5,35.4,29.8c9.7,26.3-4.6,40.1-15.6,44.4c-11,4.3-27.1-12.1-28.7-14.4l2-3.3
						C89.7,449,70.3,406.4,96.7,392.5z"/>
					<path class="st36" d="M92,450.7c0,0,0.9,0.7,2.6,1.9c1.7,1.2,4.3,3,7.7,4.9c1.7,0.9,3.7,1.9,5.9,2.7c0.5,0.2,1.1,0.3,1.7,0.5
						c0.6,0.1,1.2,0.3,1.8,0.4c0.3,0,0.6,0,0.9,0.1c0.1,0,0.3,0,0.4,0l0.5,0c0.3,0,0.7,0,1-0.1c0.3-0.1,0.6-0.1,0.9-0.2
						c2.5-0.6,5-2.2,6.9-4.5c1.9-2.3,3.3-5.2,4-8.3c1.5-6.4,0.6-13.8-2.4-20.7c-0.7-1.7-1.6-3.4-2.6-5.1c-1-1.7-2.1-3.4-3.2-5
						c-2.3-3.2-4.8-6.5-8-9l-1.2-0.9c-0.4-0.3-0.8-0.5-1.3-0.8l-0.6-0.4c-0.2-0.1-0.4-0.2-0.7-0.3c-0.4-0.2-0.9-0.4-1.3-0.6
						c-1.8-0.7-3.8-0.9-5.7-0.5c-1.9,0.4-3.6,1.3-5.2,2.6l-1.1,1l-0.1,0.1c0.1-0.1,0,0,0,0l-0.1,0.2l-0.3,0.3
						c-0.2,0.2-0.3,0.4-0.4,0.6c-0.2,0.3-0.4,0.8-0.6,1.2c-0.2,0.5-0.4,0.9-0.5,1.4c-1.1,4-1.1,8.4-0.6,12.7
						c0.5,4.3,1.7,8.6,3.3,12.6c1.7,4,4.1,7.7,7.2,10.6c3.1,2.8,7.1,4.5,11.2,4.3c1.8-0.1,3.6-0.8,4.7-2.2c1.1-1.4,1.7-3.3,1.9-5.3
						c0.2-2,0.2-4.1-0.1-6.1c-0.2-2-0.7-4.1-1.2-6c-1.1-3.9-2.7-7.7-4.7-11c-1-1.7-2.2-3.2-3.5-4.5c-0.6-0.7-1.3-1.2-2.1-1.7
						c-0.4-0.2-0.7-0.4-1.1-0.6l-0.6-0.2l-0.3-0.1l-0.1,0c0.2,0,0,0,0,0l-0.2,0l-0.7-0.1c-0.2,0-0.3,0-0.5,0l-0.2,0l-0.3,0.1
						c-0.2,0-0.3,0-0.5,0.1c-0.6,0.2-1.2,0.7-1.7,1.3c-0.9,1.2-1.5,2.9-1.7,4.5c-0.5,3.4-0.3,6.8,0.4,10c0.6,3.2,1.7,6.2,3.1,8.7
						c1.4,2.5,3.4,4.5,5.6,5.1l0.5,0.1c0.2,0,0.3,0.1,0.4,0.1c0.3,0,0.5,0.1,0.8,0.1c0.5,0,1-0.1,1.4-0.3c0.7-0.4,1.3-1.2,1.5-2.2
						c0.3-1,0.3-2,0.2-3c-0.1-1-0.2-2-0.4-2.9c-0.9-3.7-2.5-6.3-4.1-7.6c-0.8-0.6-1.5-0.9-2-1.1c-0.5-0.1-0.8-0.1-0.8-0.1
						s0.3-0.1,0.8-0.1c0.6,0,1.4,0.1,2.4,0.7c2,1.1,4.2,3.7,5.5,7.6c0.6,2,1.1,4.3,0.6,6.9c-0.1,0.7-0.4,1.3-0.8,2
						c-0.4,0.7-1,1.3-1.7,1.7c-0.8,0.4-1.6,0.6-2.4,0.6c-0.4,0-0.8,0-1.2-0.1c-0.2,0-0.4-0.1-0.6-0.1l-0.5-0.1
						c-1.6-0.4-3-1.3-4.1-2.4c-1.2-1.1-2.2-2.4-3-3.8c-1.6-2.8-2.8-6-3.5-9.4c-0.7-3.4-1-7.1-0.5-10.9c0.3-1.9,0.8-3.9,2.2-5.7
						c0.7-0.9,1.6-1.7,2.8-2.1c0.3-0.1,0.6-0.2,0.9-0.2l0.5-0.1l0.5,0c0.3,0,0.7,0,0.9,0l0.7,0.1l0.2,0l0.2,0l0.1,0l0.4,0.1l0.8,0.3
						c0.5,0.3,1,0.5,1.5,0.8c0.9,0.6,1.8,1.3,2.5,2c1.5,1.5,2.8,3.2,3.9,5c2.2,3.6,3.9,7.5,5.1,11.7c0.6,2.1,1.1,4.2,1.4,6.4
						c0.3,2.2,0.4,4.5,0.1,6.8c-0.3,2.3-0.9,4.7-2.6,6.8c-0.2,0.3-0.4,0.5-0.7,0.7c-0.2,0.2-0.5,0.5-0.7,0.7l-0.8,0.6
						c-0.1,0.1-0.3,0.2-0.4,0.3l-0.5,0.2l-0.9,0.4c-0.3,0.1-0.6,0.2-0.9,0.2c-0.3,0.1-0.6,0.2-1,0.2l-1,0.1
						c-4.8,0.1-9.6-1.9-13.1-5.1c-3.5-3.2-6-7.3-7.8-11.6c-1.8-4.3-2.9-8.8-3.5-13.4c-0.5-4.6-0.5-9.2,0.8-13.8
						c0.4-1.2,0.8-2.2,1.5-3.4c0.2-0.3,0.4-0.6,0.5-0.8l0.3-0.3l0.1-0.2l0.1-0.2l0.1-0.1l1.3-1.2c1.8-1.5,4-2.7,6.4-3.1
						c2.4-0.5,4.9-0.1,7,0.7c0.5,0.2,1,0.5,1.6,0.7c0.3,0.1,0.5,0.2,0.8,0.4l0.7,0.5c0.5,0.3,1,0.6,1.4,0.9l1.3,1
						c3.4,2.8,6,6.2,8.3,9.6c1.2,1.7,2.2,3.5,3.2,5.2c1,1.8,1.9,3.6,2.7,5.4c1.5,3.6,2.5,7.4,2.9,11.1c0.4,3.7,0.1,7.4-0.8,10.8
						c-0.9,3.4-2.5,6.4-4.6,8.8c-2.1,2.4-4.8,4.1-7.7,4.7c-0.3,0.1-0.7,0.1-1.1,0.2c-0.4,0.1-0.7,0.1-1,0.1l-0.5,0
						c-0.2,0-0.4,0-0.5,0c-0.3,0-0.7-0.1-1-0.1c-0.6-0.1-1.3-0.3-1.9-0.5c-0.6-0.2-1.2-0.4-1.7-0.6c-2.2-0.9-4.1-2-5.8-3
						c-3.4-2.1-5.9-3.9-7.5-5.2C92.9,451.4,92,450.7,92,450.7z"/>
				</g>
				<g>
					<g>
						<path class="st35" d="M159.6,374.7c0,0,18.2,6.3,22.8,27c4.7,20.7-2.2,35.9-2.2,35.9s9.1,0,12.5-4.9c0,0,12.7-16.9,6-36.9
							c-6.7-20-24.6-24.8-24.6-24.8S164.7,368.1,159.6,374.7z"/>
						<path class="st37" d="M169.2,377.3c-2.1-1.5,2.8-6.8,9.5-2.5s11.2,10.6,15.2,18.9c4,8.3-5.2,12.2-7.5,10.2
							S187,389.8,169.2,377.3z"/>
					</g>
					<g>
						<path class="st35" d="M236.1,351.7c0,0,37.8,9,24.6,55.6c0,0,8.3,0.8,12.7-4.3c0,0,18.6-38.7-23.6-55.9
							C249.7,347.2,238.4,346.5,236.1,351.7z"/>
						<path class="st37" d="M248.4,351.5c3.5-1.2,6.5-0.8,9.2,1.2s13,10.5,14.7,16.2s-1.2,7.1-3.8,8.3s-6.5-3.5-7.4-7
							s-9.2-12.5-12.8-14.8S247,352,248.4,351.5z"/>
					</g>
				</g>
			</g>
		</g>
		<g>
			<g>
				<path class="st3" d="M487,618.6c0,0,26.8-22,63.8,2.6c0,0,17.8-23.2,50.8-28.7c22.7-3.8,45,11.8,45,11.8s15.3-22.5,38.7-15.8
					s29,38.3,26.3,47c0,0,5.7,14.8-3.3,25.6c0.3-8.5,0.9,18.5-12.7,25.7c-12,6.3-34.7-0.6-34.7-0.6s-18,16.7-41.7,24.3
					c-23.7,7.7-49.7,0-49.7,0s-41.8,24.6-60.7,17.7C489.9,721.2,487,618.6,487,618.6z"/>
				<g>
					<g>
						<g>
							<path class="st38" d="M571.8,625.4c0,0,0.3-0.5,1-1.3c0.3-0.4,0.7-1,1.2-1.6c0.5-0.6,1.1-1.3,1.7-2c2.6-3,6.8-7.1,12.8-10.5
								c3-1.7,6.5-3.2,10.3-4.4c3.8-1.1,8-1.7,12.4-1.8c4.3,0,8.8,0.6,13.2,1.9c4.3,1.3,8.7,2.6,12.8,4.7c0,0-0.6-0.2-1.8-0.6
								c-0.6-0.2-1.3-0.4-2.1-0.7c-0.8-0.2-1.8-0.5-2.8-0.8c-2.1-0.5-4.7-1.1-7.6-1.7c-1.4-0.2-3-0.6-4.6-0.7
								c-0.8-0.1-1.6-0.2-2.5-0.2c-0.8,0-1.7-0.1-2.6-0.1c-3.5,0-7.2,0.3-11,1.2c-3.8,0.9-7.6,2.2-11.2,3.9
								c-3.6,1.8-7.2,3.9-10.4,6.4C577.5,619.8,574.5,622.5,571.8,625.4z"/>
						</g>
						<g>
							<path class="st38" d="M661.5,607.4c0,0,0.1-0.2,0.3-0.6c0.2-0.4,0.5-1,1-1.6c0.9-1.4,2.5-3.2,4.9-4.9c2.4-1.6,5.6-3,9.1-3.7
								c1.8-0.3,3.6-0.4,5.5-0.4c1.9,0.1,3.8,0.3,5.6,0.8c0,0-0.3,0-0.8,0c-0.5,0-1.2,0-2.1,0.1c-1.8,0.2-4.3,0.5-7,1.1
								c-2.8,0.7-5.8,1.7-8.7,3.2C666.5,603.1,663.9,605.2,661.5,607.4z"/>
						</g>
						<g>
							<path class="st38" d="M529.9,627.4c0,0,0.6-0.1,1.6-0.2c0.5-0.1,1.1-0.1,1.8-0.1c0.7,0,1.5-0.1,2.3,0c1.7,0,3.7,0.4,5.8,1
								c2.1,0.7,4.2,1.8,5.9,3.4c0,0-0.7-0.2-1.7-0.5c-0.5-0.2-1.2-0.3-1.9-0.5c-0.7-0.2-1.5-0.3-2.3-0.5
								C538.1,629.3,533.8,628.9,529.9,627.4z"/>
						</g>
					</g>
					<g>
						<g>
							<path class="st38" d="M585.5,660.1c0,0,0.4-0.3,1.2-0.9c0.8-0.6,1.9-1.5,3.4-2.4c3-2,7.4-4.7,13.2-7.1
								c5.7-2.4,12.7-4.5,20.4-5.6c3.9-0.5,7.9-0.8,11.9-0.8c4.1,0.1,8.2,0.5,12.3,1.1c0,0-0.6,0-1.7,0c-1.1,0-2.6-0.1-4.6,0
								c-3.9,0-9.5,0.3-15.8,1.3c-0.8,0.1-1.6,0.3-2.4,0.4c-0.8,0.2-1.6,0.3-2.5,0.5c-1.7,0.3-3.3,0.8-5.1,1.1
								c-3.4,0.9-6.9,1.9-10.4,3.2C598.6,653.3,591.7,656.6,585.5,660.1z"/>
						</g>
						<g>
							<path class="st38" d="M672.9,638.7c0,0,0.6-0.4,1.7-1c0.6-0.4,1.3-0.7,2.1-1c0.4-0.2,0.9-0.3,1.3-0.5c0.5-0.1,1-0.3,1.5-0.4
								c2.1-0.6,4.8-0.9,7.5-0.9c2.8,0.1,5.7,0.6,8.5,1.5c0,0-0.8,0.1-2.2,0.1c-1.4,0.1-3.3,0.1-5.6,0.3c-1.1,0-2.3,0.2-3.5,0.3
								c-0.6,0.1-1.2,0.1-1.9,0.2c-0.6,0.1-1.3,0.1-1.9,0.2C678,637.8,675.5,638.3,672.9,638.7z"/>
						</g>
						<g>
							<path class="st38" d="M543.2,671.4c0,0,0.4-0.3,1.1-0.8c0.4-0.3,0.8-0.5,1.4-0.8c0.3-0.1,0.6-0.3,0.9-0.4
								c0.3-0.1,0.7-0.2,1-0.4c1.4-0.5,3.1-0.9,4.9-1.1c1.8-0.1,3.8,0,5.8,0.5c0,0-0.5,0.2-1.5,0.4c-0.9,0.3-2.2,0.6-3.6,0.9
								c-1.5,0.3-3.1,0.7-4.8,1C546.7,671,545,671.3,543.2,671.4z"/>
						</g>
					</g>
					<g>
						<g>
							<path class="st38" d="M539.9,711.4c0,0,0.5-0.3,1.3-0.7c0.4-0.2,0.9-0.5,1.5-0.8c0.3-0.1,0.6-0.3,0.9-0.5
								c0.3-0.2,0.6-0.4,1-0.6c1.4-0.7,2.9-1.7,4.7-2.6c1.7-1,3.6-2,5.6-2.9c0,0-0.4,0.5-1.1,1.3c-0.7,0.8-1.7,1.9-3.1,2.9
								c-0.7,0.6-1.4,1-2.2,1.6c-0.8,0.5-1.7,1-2.7,1.3C544,711.3,541.8,711.6,539.9,711.4z"/>
						</g>
						<g>
							<path class="st38" d="M587.3,693.4c0,0,0.4,0.1,1.3,0.3c0.8,0.2,2,0.6,3.6,0.8c3.1,0.6,7.6,1,12.9,0.5
								c5.3-0.4,11.5-1.7,17.9-3.7c3.2-1,6.5-2.2,9.7-3.6c3.3-1.4,6.5-3,9.7-4.7c0,0-0.4,0.3-1.2,0.9c-0.4,0.3-0.9,0.6-1.4,1
								c-0.6,0.4-1.2,0.8-2,1.3c-3,1.9-7.3,4.3-12.7,6.4c-2.7,1.1-5.6,2-8.7,2.8c-3.1,0.7-6.4,1.3-9.8,1.5
								C600,697.3,593,696.1,587.3,693.4z"/>
						</g>
						<g>
							<path class="st38" d="M673.9,670.4c0,0,0.9-0.1,2.4-0.3c0.8-0.1,1.7-0.2,2.8-0.3c1.1-0.1,2.3-0.3,3.5-0.5
								c0.6-0.1,1.3-0.2,2-0.3c0.7-0.1,1.4-0.3,2.1-0.4c0.4-0.1,0.7-0.1,1.1-0.2c0.4-0.1,0.7-0.2,1.1-0.3c0.8-0.2,1.5-0.3,2.3-0.6
								c3.1-0.8,6.4-2,9.8-3.1c0,0-0.8,0.6-2.3,1.5c-0.7,0.5-1.6,1-2.7,1.5c-0.5,0.3-1.1,0.6-1.7,0.8c-0.6,0.2-1.2,0.5-1.9,0.8
								C687.4,671.2,680,671.9,673.9,670.4z"/>
						</g>
					</g>
				</g>
				<g>
					<g>
						<path class="st39" d="M568.8,614.3c-2.5-2.4,18.5-17.5,31.4-19.5c12.8-2,31.6,3.9,31.6,6.6c0.1,6.1-21.3-2.5-31.6,0
							C589.8,603.8,573.6,619,568.8,614.3z"/>
						<path class="st39" d="M687.6,591.7c-7.7-4.6-20.2-0.7-25.3,2.5c-5,3.2-3.8,11-0.7,8.1c3.1-2.9,9.4-7.9,15.1-8.1
							C682.3,594,694.5,595.8,687.6,591.7z"/>
						<path class="st39" d="M532.7,615.2c-8-1.6-14-2.7-11.7,0.1s9.8,8.1,16.4,8.3C544,623.7,542.9,617.2,532.7,615.2z"/>
					</g>
					<g>
						<path class="st39" d="M590.7,644.2c-11.3,1-18.7-12.8-11.7-20.7c7-7.8,22.7-16.2,39.3-15s25.2,11.1,24.3,16.5
							C641.7,630.3,608,642.6,590.7,644.2z"/>
						<path class="st39" d="M681.7,600.7c-6.9,1.4-16.7,8.6-14.7,15.1c2,6.5,10.9,1.5,17.3,0c6.4-1.5,19.7-0.4,18.4-5.9
							C701.3,604.3,691.3,598.7,681.7,600.7z"/>
						<path class="st39" d="M552.7,637.3c-5.3-5.3-12.5-4.1-14.1-0.4s5.9,14.7,8.8,19.7C550.3,661.7,562.7,647.4,552.7,637.3z"/>
					</g>
				</g>
			</g>
			<g>
				<path class="st40" d="M490,703.7c0,0,1.3,25.1,20.7,24.4c0,0,22.3,8.1,25.7-24.4c0,0,11.7-13.4,3.7-30.8c0,0,6.2-29.1-9.9-40.4
					c0,0-12.7-26.1-32.1-19.4c-7-2-21.6,12.9-22,22.8c0,0-7.5,23.7,2.1,37C478,672.9,477,696.6,490,703.7z"/>
				<path class="st41" d="M493.1,705c1,0,2,0,3,0c0.5,0,1-0.1,1.5-0.1c0.5,0,1-0.1,1.4-0.1c0.5,0,0.9-0.2,1.4-0.2
					c0.5,0,0.9-0.2,1.4-0.3c0.5-0.1,0.9-0.2,1.3-0.4c0.4-0.1,0.9-0.3,1.3-0.4c0.4-0.2,0.8-0.3,1.2-0.5l1.2-0.6
					c0.4-0.2,0.7-0.5,1.1-0.7c0.4-0.2,0.7-0.5,1-0.8c0.3-0.3,0.7-0.5,1-0.9c0.3-0.3,0.6-0.7,0.9-1c0.3-0.3,0.6-0.7,0.8-1
					c0.3-0.4,0.5-0.7,0.8-1.1l-0.3,0.9l0,0c0.1-1,0.1-1.8,0.2-2.8c0.1-0.9,0.2-1.8,0.3-2.7c0.2-1.8,0.5-3.6,0.9-5.4
					c0.3-1.8,0.7-3.6,1.3-5.4c0.1-0.5,0.3-0.9,0.4-1.4c0.2-0.5,0.3-0.9,0.5-1.4c0.2-0.5,0.3-0.9,0.6-1.4l0.7-1.4l0,1.9
					c-0.6-1-1-2-1.5-3.1c-0.5-1-0.9-2.1-1.4-3.1c-0.4-1-0.8-2.1-1.2-3.2c-0.2-0.5-0.4-1.1-0.6-1.6c-0.2-0.5-0.4-1.1-0.5-1.6
					c-0.2-0.6-0.3-1.1-0.5-1.7l-0.4-1.7l-0.3-1.7c-0.1-0.6-0.2-1.2-0.2-1.8c-0.1-0.6-0.1-1.2-0.1-1.8c0-0.6-0.1-1.2,0-1.8
					c0.1-0.6,0.1-1.2,0.2-1.9l0.5-1.9l-0.1,1l0,0c-0.2-0.9-0.4-1.9-0.7-2.8c-0.3-1-0.6-1.9-0.9-2.8c-0.7-1.8-1.5-3.6-2.6-5.1
					c-1-1.5-2.3-2.7-3.6-3.1c-0.7-0.2-1.3-0.3-2.1-0.2c-0.4,0-0.7,0.1-1.1,0.2l-0.6,0.2l-0.1,0l0,0l0,0c0,0-0.1,0,0.1,0l0,0l-0.1,0
					l-0.4,0.2c-0.2,0.1-0.5,0.2-0.7,0.3l-0.5,0.3c-0.3,0.2-0.7,0.5-1,0.7c-0.6,0.5-1.2,1.2-1.6,1.9c-0.9,1.4-1.5,3.1-1.8,5
					c-0.3,1.8-0.4,3.8-0.3,5.7c0.1,1,0.2,2,0.3,2.9c0.1,1,0.3,2,0.5,2.8l0.1,0.3l0,0.2c0,1.1,0.1,2.3,0.1,3.4
					c0.1,1.1,0.2,2.3,0.3,3.4c0.2,2.3,0.5,4.5,0.9,6.7c0.4,2.2,0.9,4.4,1.7,6.4c0.4,1,0.8,2,1.3,2.8c0.5,0.8,1.1,1.5,1.8,1.9
					c0.3,0.2,0.6,0.3,1,0.4l0.1,0l0,0c0,0-0.2,0-0.1,0l0,0l0.1,0l0.2,0l0.4,0l0.5,0c0.8-0.1,1.5-0.4,2.1-1.1
					c0.6-0.6,1.2-1.4,1.6-2.4c0.4-0.9,0.7-2,1-3c0.2-1.1,0.4-2.1,0.4-3.2c0.1-1.1,0-2.2-0.1-3.3c-0.1-1.1-0.4-2.2-0.7-3.3
					c-0.4-1.1-0.9-2.1-1.7-3c1,0.6,1.9,1.5,2.5,2.5c0.7,1,1.2,2.2,1.5,3.3c0.7,2.3,1,4.8,0.7,7.3c-0.1,1.3-0.4,2.5-0.8,3.7
					c-0.4,1.2-1,2.5-2,3.6c-1,1.1-2.4,1.9-3.9,2.2c-0.4,0.1-0.9,0.1-1.3,0.1l-0.4,0l-0.2,0l-0.1,0l0,0l-0.1,0l0,0l-0.2,0
					c-0.8-0.1-1.6-0.4-2.3-0.8c-1.4-0.8-2.3-1.9-3.1-3c-0.8-1.1-1.3-2.3-1.8-3.4c-1-2.3-1.6-4.7-2.1-7c-0.5-2.4-0.9-4.7-1.2-7.1
					c-0.1-1.2-0.3-2.4-0.4-3.6c-0.1-1.2-0.2-2.4-0.2-3.6l0.1,0.5c-0.3-1.2-0.5-2.2-0.7-3.3c-0.2-1.1-0.3-2.2-0.4-3.3
					c-0.2-2.2-0.1-4.5,0.3-6.8c0.4-2.3,1.1-4.6,2.4-6.7c0.7-1,1.5-2,2.5-2.9c0.5-0.4,1-0.8,1.5-1.1l0.9-0.5c0.3-0.2,0.5-0.2,0.7-0.4
					l0.4-0.2l0.1,0l0.2-0.1l0.1,0l0.2-0.1l0.9-0.3c0.6-0.2,1.3-0.3,2-0.4c1.3-0.1,2.8,0,4.1,0.5c1.3,0.5,2.4,1.3,3.4,2.1
					c0.9,0.9,1.7,1.8,2.3,2.8c1.3,2,2.2,4,2.9,6.1c0.4,1,0.7,2.1,0.9,3.2c0.3,1.1,0.5,2.1,0.7,3.3l0,0l0.1,0.3l-0.1,0.6
					c-0.1,0.4-0.2,0.9-0.3,1.3c-0.1,0.5-0.1,0.9-0.1,1.4c-0.1,0.5,0,1,0,1.5c0,0.5,0.1,1,0.1,1.5c0.1,0.5,0.1,1,0.2,1.5l0.3,1.5
					l0.4,1.5c0.1,0.5,0.3,1,0.4,1.5c0.1,0.5,0.3,1,0.5,1.5c0.2,0.5,0.3,1,0.5,1.5c0.4,1,0.8,2,1.2,3c0.4,1,0.9,2,1.3,2.9
					c0.5,1,0.9,2,1.4,2.9l0.5,0.9l-0.5,1l-0.5,1.1c-0.2,0.4-0.3,0.8-0.5,1.1c-0.2,0.4-0.3,0.8-0.4,1.2c-0.1,0.4-0.3,0.8-0.4,1.2
					c-0.5,1.6-0.9,3.3-1.2,5.1c-0.3,1.7-0.6,3.5-0.8,5.2c-0.1,0.9-0.2,1.8-0.3,2.6c-0.1,0.9-0.2,1.8-0.2,2.6l0,0l0,0.5l-0.3,0.4
					c-0.3,0.5-0.6,0.9-0.9,1.4c-0.3,0.4-0.6,0.9-1,1.3c-0.4,0.4-0.8,0.8-1.2,1.2c-0.4,0.4-0.9,0.7-1.3,1.1c-0.4,0.3-0.9,0.7-1.4,0.9
					c-0.5,0.3-1,0.6-1.5,0.8l-1.6,0.6c-0.5,0.2-1.1,0.3-1.6,0.4c-0.5,0.2-1.1,0.2-1.6,0.3c-0.5,0.1-1.1,0.2-1.6,0.2
					c-0.5,0-1.1,0.1-1.6,0c-0.5,0-1.1-0.1-1.6-0.1c-0.5-0.1-1-0.1-1.5-0.3c-0.5-0.1-1-0.2-1.5-0.4c-0.5-0.1-1-0.3-1.5-0.6
					C494,705.5,493.5,705.2,493.1,705z"/>
				<g>
					<path class="st42" d="M524.7,639.3c-5.5,2.6-5.4,30.7,4.1,31.4c9.5,0.7,9.7-16.5,7.3-22.1C533.7,643,529,637.2,524.7,639.3z"/>
					<path class="st42" d="M515.3,619.8c-5.9-4.1-10.1-5.5-16-2.2c-6,3.3,3,10,8.7,11.8c5.7,1.8,13.8,3.2,14.1,0
						C522.3,626.3,518.5,622,515.3,619.8z"/>
				</g>
			</g>
			<g>
				<g>
					<g>
						<path class="st43" d="M543.8,617.1c0,0,14.8,8.8,21.1,45.5c6.3,36.6-5.4,53.4-5.4,53.4s9.2,0.8,13.8-1.4c0,0,15-19,7.3-53.2
							c-7.7-34.2-19.9-49.3-19.9-49.3S547,612.5,543.8,617.1z"/>
						<path class="st44" d="M550.7,618.5c-2.3-2.9,8.5-4.4,9.8-2.7c1.2,1.7,12.9,21.2,16.5,41.9c2.1,12.2-8.5,9.6-10.3,0.8
							S558.3,628,550.7,618.5z"/>
					</g>
					<g>
						<path class="st45" d="M565.4,677c0.3-1.5,16.7-2.7,18.3,0s0.2,12.4-1,14.3c-1.1,1.9-17,3.3-17.3,1.6
							C565.1,691.3,565.1,679,565.4,677z"/>
						<path class="st46" d="M567.9,677.9c0.2-0.8,12.3-1.5,13.5,0c1.2,1.5,0.1,6.8-0.7,7.9c-0.8,1.1-12.5,1.8-12.8,0.9
							C567.7,685.8,567.7,679,567.9,677.9z"/>
					</g>
				</g>
				<g>
					<g>
						<path class="st43" d="M637.1,598.9c0,0,29,44.5,15.4,94c0,0,9.2,0.7,14.1-5.7c0,0,12.8-52.4-14.8-88.9
							C651.9,598.3,644.2,595,637.1,598.9z"/>
						<path class="st44" d="M645.2,600.3c3.7-0.7,5.4-0.4,8.1,3.6c2.7,3.9,13.1,30.4,13.4,38.2c0.3,7.8-10.5,9.2-10.7,0
							C655.5,623.9,637.1,601.8,645.2,600.3z"/>
					</g>
					<g>
						<path class="st45" d="M654.1,660.5c1.8-2.4,14.8-2.8,16.7,0c1.8,2.8,0.1,13.2-1.2,15c-1.2,1.8-15.5,2.2-16.3,0
							C652.6,673.3,654.1,660.5,654.1,660.5z"/>
						<path class="st46" d="M656,661.9c1.4-1.3,11.5-1.6,12.9,0s0.1,7.4-0.9,8.4c-1,1-12.1,1.2-12.6,0
							C654.8,669.1,656,661.9,656,661.9z"/>
					</g>
				</g>
			</g>
		</g>
		<g>
			<g>
				<path class="st47" d="M377,299.6c0,0,12.4-14,25.9-20.7s37.5-8,59.5-0.3c22,7.7,37.7,31.7,39,61.3c1.3,29.7-0.9,49.3,13,67.7
					c13.9,18.3,26,30.3,26,30.3s-10.3,4-13.6,4.3c-3.3,0.3-21.7-23.3-32.1-43.7c-13.4-26.3-1.3-76-26.8-96S415,270,377,299.6z"/>
				<g>
					<path class="st48" d="M450.2,421.4c-17.5,11.1-31,38.9-25.5,69.2c5.5,30.3,26,59.9,48.5,66.6c22.5,6.7,51.8-3,70.2-20.2
						c18.3-17.1,26.9-53.5,8.4-85.6S488.2,397.3,450.2,421.4z"/>
					<g>
						<path class="st49" d="M467.8,427c-20.1,13.4-26.5,44.1-13.1,73.4c16,35.1,40.5,53.8,66.1,42.3c30.9-13.9,45.8-48.4,34.4-76.6
							C543.9,437.9,507.4,400.6,467.8,427z"/>
						<path class="st50" d="M485.5,432.3c-17.4-3.2-30.3,17.4-29.2,34.3c1.1,16.9,13.1,16.4,24.1,14.4S524,439.4,485.5,432.3z"/>
					</g>
				</g>
				<g>
					<path class="st51" d="M433,419.6c0,0,6.3,11.3,9,12.3s10.8,0,19.6-6.2c8.8-6.2,6.3-9.8,4.7-11.8c-1.6-2-8.9-11-8.9-11
						S437.7,412.6,433,419.6z"/>
					<g>
						<g>
							<path class="st52" d="M418.7,407.6c0,0,12.7,16.3,14.3,17.7c1.7,1.3,27-11.3,30.3-20.3c0,0-10.2-16.3-12.9-19.3
								C447.7,382.6,420.3,396.6,418.7,407.6z"/>
							<path class="st53" d="M434.8,405.3c0,0,12.3-5.8,16.7-13.4c0,0,5.8,9.3,7.1,11.7c1.3,2.3-8.5,12.1-14.2,12.1
								C438.7,415.6,434.8,405.3,434.8,405.3z"/>
						</g>
						<g>
							<path class="st54" d="M437.7,401.3c8.7-6.1,15.1-12.3,13.6-14.6c-2.2-3.6-7.7-2.9-19.8,5.2c-12.4,8.4-14.7,13.3-12.8,15.7
								C420.5,410,432.6,404.8,437.7,401.3z"/>
							<path class="st55" d="M435.2,401.8c6.7-4.7,11.6-9.4,10.5-11.2c-1.7-2.8-6-2.3-15.3,4c-9.6,6.5-11.3,10.2-9.9,12.1
								C422,408.5,431.3,404.5,435.2,401.8z"/>
						</g>
					</g>
				</g>
			</g>
			<g>
				<g>
					<path class="st56" d="M456.3,504.3c0,0-24.9-11.5-48.8-13.7c-23.8-2.2-32.8-19.8-28.3-43.9c4.1-22.2,23.5-39.8,6.2-74.8
						c-17.2-35-13.3-78,17.5-93c0,0-22.7,10-37.2,31c0,0-12.8,28.8,3.6,63.5c11.6,24.5,0,46.9-6.9,63c-12,28,3.5,55.5,18.5,60.4
						c23.2,7.6,43.1,6.8,48.9,12.2C429.9,509.1,450.9,507.5,456.3,504.3z"/>
					<path class="st57" d="M380.3,477.6c0,0-14.8-0.6-17.7-4.3c-2.9-3.7-4.4-19.6-1.5-30.1s10.3-22.2,11.8-28.7s17.8-15,17.8-15
						s-0.3,12.2-4.7,20.5C381.8,428.4,369.3,458.6,380.3,477.6z"/>
					<path class="st57" d="M366.5,310.5c0,0,13.3-15.5,21.3-21.7c0,0-16,16.5-14.7,40.3c1.3,23.8,8.2,38.7,9.5,41
						c0,0-7.4,13.4-8.5,13.7c0,0-3.5-12.8-5.7-16.7c-2.2-3.8-6-15.2-6.3-28.7C361.8,325,366.5,310.5,366.5,310.5z"/>
				</g>
				<g>
					<path class="st58" d="M506.4,449.4c1.6,0.3,9.3,7.6,9.1,10s-19.8,17.5-21.4,18.2c-1.6,0.7-11.4-8.5-10-10.5
						C485.1,465.6,504.8,449.1,506.4,449.4z M494.8,473.8c1.3,0.3,17.1-12.6,17.4-13.6c0.3-1.1-4.5-7.1-6.3-7.2
						s-17.2,12.9-16.9,14.5C489.3,469.1,493.5,473.5,494.8,473.8z"/>
					<path class="st59" d="M493.9,473.5c-1.1-1.3-2.7-2.4-3.9-3.7c-1-1.1-2-3.2-3.7-3.2c-0.4,0-0.6,0.2-0.7,0.6
						c-0.6,1.5,1.2,3.2,2.1,4.3c1.2,1.5,2.8,3.3,4.6,4.1c0.5,0.3,1.2,0.2,1.6-0.2c0.1-0.1,0.2-0.2,0.2-0.3
						C494.4,474.6,494.3,474,493.9,473.5z"/>
					<path class="st59" d="M504.3,451.6c-2.3,0.3-4.6,2.5-6.4,3.8c-1.7,1.3-4,2.7-5.1,4.5c-0.2,0.3,0.1,0.8,0.4,0.7
						c1.9-0.2,3.3-1.7,4.7-2.8c1.1-0.9,2.2-1.8,3.3-2.6c1.2-0.9,2.6-1.2,3.8-2.1C505.9,452.7,505.4,451.5,504.3,451.6z"/>
					<path class="st59" d="M513.3,456.3c-0.3-1.5-1.9-2.7-3-3.7c-0.7-0.7-1.9,0.2-1.4,1c0.4,0.7,0.8,1.3,1.3,2
						c0.5,0.7,1,1.4,1.8,1.7C512.7,457.6,513.4,457.1,513.3,456.3z"/>
					<path class="st60" d="M501.5,453.6c-0.9-0.2-1.6,0.8-2.2,1.3c-0.9,0.7-1.8,1.4-2.4,2.3c-0.2,0.2,0.1,0.5,0.4,0.5
						c1-0.3,1.8-0.9,2.6-1.5c0.5-0.3,0.9-0.7,1.3-1.1c0.4-0.3,0.7-0.5,0.6-1.1C501.8,453.8,501.7,453.6,501.5,453.6z"/>
					<path class="st60" d="M491.4,472.4c-0.8-0.8-1.7-1.3-2.5-2.2c-0.4-0.4-0.7-0.9-1-1.3c-0.3-0.4-0.6-0.7-0.9-1.1
						c-0.2-0.4-0.7-0.1-0.6,0.3c0.1,0.5,0.1,1.1,0.3,1.5c0.3,0.6,0.7,1.2,1.1,1.7c0.7,0.9,1.6,2.1,2.8,2.4
						C491.4,474,491.9,473,491.4,472.4z"/>
					<path class="st60" d="M511.9,454.1c-0.2-0.4-0.6-0.7-1-0.9c-0.2-0.2-0.5-0.3-0.8-0.2c-0.4,0.2-0.4,0.8-0.3,1.2
						c0.2,0.7,0.7,1.1,1.4,1.1C511.8,455.5,512.2,454.6,511.9,454.1z"/>
				</g>
				<g>
					<path class="st47" d="M466.6,526.3c0,0,15.2,17.1,28.1,21.6c23.7,8.4,52.7-11,63.7-35.3c0,0-9,34.3-55.4,46.7
						c-39.7,10.6-62-28.8-62-28.8S457.8,524.1,466.6,526.3z"/>
					<path class="st52" d="M494.6,476.3c0,0,37.7,40.2,48.7,62.1c0,0,5.5-1.5,10.3-13.6c0,0-14.6-37.2-38.9-64.6
						C514.7,460.1,504.7,470,494.6,476.3z"/>
					<g>
						<path class="st52" d="M429.9,509.1c0,0,19.7-2.4,26.4-4.7c6.7-2.4,63.6-44.9,81.3-70.6c0,0,12.1,4.7,14.1,17.8
							c0,0-28.7,47.7-82.5,73.9c0,0-16.8,6.4-28.2,5.1C441,530.6,429.9,519.6,429.9,509.1z"/>
						<path class="st61" d="M458.8,505.9c0,0,38.8-23.6,67.2-55c3.1-3.4,14.3,10.9,13.4,12.7c-11.7,21.8-55.4,55.9-71.5,59.7
							C467.9,523.2,460.2,513.5,458.8,505.9z"/>
					</g>
					<g>
						<path class="st48" d="M435.9,506.5c0,0,0.5,7.5,3,8.5s10.2-2.3,10.2-2.3s-1-7.5-2.8-8.2S435.9,506.5,435.9,506.5z"/>
						<path class="st49" d="M438,508.2c0,0,6.3-1.8,7.2-1.5c0.8,0.3,1.2,4.7,1.2,4.7s-6.3,1.8-7.3,1.3S438,508.2,438,508.2z"/>
					</g>
				</g>
			</g>
		</g>
		<g>
			<g>
				<g>
					<path class="st62" d="M583,364.3c-0.7,3.3,1.2,27.3,2.6,30.1s7.8,14.1,23.5,14.4c15.7,0.3,23.2-9.6,24.7-13.4
						s5.3-22.8,4.9-25.2c-0.4-2.4-4.8,3.2-8.3,4.8s-25.3,5.8-34.7-1.2C586.5,366.8,583.8,360.9,583,364.3z"/>
					<path class="st63" d="M587.5,377.3c0.2-1.5,16,7.6,24.1,6.7s5.8,12.9,4,17.7s-9.8,5.4-14.8,3.6S585.5,397.5,587.5,377.3z"/>
					<path class="st64" d="M597.3,384c-3-3.1-5.8-2.9-7,0s0.2,12.4,4.5,15C599,401.7,599.4,386.2,597.3,384z"/>
					<path class="st64" d="M604.1,386.3c-2.8-0.2-3,4.8-1.8,5.9C603.5,393.4,606.9,386.5,604.1,386.3z"/>
					<path class="st65" d="M622,382.9c0,0,1.2,18.9-4.6,22.3c0,0,7.6-1.6,10.2-6.2c2.7-4.6,4.3-18.1,4.3-18.1S626.3,382.9,622,382.9
						z"/>
				</g>
				<g>
					<path class="st62" d="M587.8,359.8c3.4-3.1,13.6-5.5,24.2-4.3c10.6,1.2,21.8,6.6,23.2,12.1s-15.3,13.5-26.5,11.9
						S580.8,366.3,587.8,359.8z"/>
					<path class="st66" d="M588.6,367.5c0,0,0.4-1.3,5.1-4.2c4.7-2.9,9.2,0.2,11.3,0c2.2-0.2,8.2-2.2,12.5,1.1
						c4.3,3.3,7.3,3.8,9.8,3.8s6.6,3,3.6,5.4S594.8,382.9,588.6,367.5z"/>
				</g>
				<g>
					<path class="st67" d="M596.6,351.4c0,0,11.7-9.7,3-24s-11-23-5-30.7c6-7.7,3.3-20-8.5-26.7c0,0,11.2,11.7,5.2,18.7
						s-14.2,17.7-8.3,25.7S608.6,333.3,596.6,351.4z"/>
					<path class="st67" d="M617.6,300.8c0,0-15.3,6-13.3,17.7s22.6,17.3,6,28.7c0,0,13.4-3,7.4-14.3
						C611.6,321.4,606.3,313.8,617.6,300.8z"/>
				</g>
				<g>
					<path class="st68" d="M638.7,370.7c-0.8,7.2-14,11.5-29.3,9.8c-15.4-1.8-27.1-9-26.3-16.2c0.8-7.2,14-11.5,29.3-9.8
						C627.7,356.3,639.5,363.6,638.7,370.7z M612,356.4c-12-1.4-22.2,1.7-22.8,7c-0.6,5.3,8.6,10.7,20.6,12c12,1.4,22.2-1.7,22.8-7
						C633.2,363.2,624,357.8,612,356.4z"/>
					<path class="st69" d="M637.4,369.7c-0.7,6.3-13.2,10.1-27.8,8.4s-25.9-8.2-25.1-14.5s13.2-10.1,27.8-8.4
						C626.9,356.8,638.2,363.3,637.4,369.7z M612.1,355.7c-12.8-1.5-23.8,1.9-24.5,7.5c-0.7,5.6,9.2,11.4,22.1,12.9
						c12.8,1.5,23.8-1.9,24.5-7.5C634.9,363,625,357.2,612.1,355.7z"/>
				</g>
			</g>
			<g>
				<g>
					<path class="st68" d="M700.9,405.2c0,0,18.4,12.7,20,16.7s-16.6,44.7-23.7,47.9c-7.1,3.2-25.9-7.2-29.1-10.5l2.5-6.8
						c0,0,17.1,9.7,20.9,7.3s21-30.2,19.7-34.3c-1.2-4.1-14-14.9-15.9-14.5C693.5,411.4,700.9,405.2,700.9,405.2z"/>
					<path class="st68" d="M666.4,463.9l5,2.1c0,0,8.6-12.5,9-14.5l-2.1-2.3L666.4,463.9z"/>
					<path class="st68" d="M695.4,418.2l5,2.1c0,0,8.6-12.5,9-14.5l-2.1-2.3L695.4,418.2z"/>
					<path class="st69" d="M716.2,421.5c-0.5-1.7-2.3-3.2-3.5-4.5c-1.4-1.4-3.1-2.7-5-3.2c-0.8-0.2-1.5,0.7-1.1,1.4
						c0.9,1.4,2,2.8,3.2,4.1c1.2,1.3,2.2,3.4,3.8,4.2C715,424.1,716.6,423,716.2,421.5z"/>
				</g>
				<g>
					<path class="st68" d="M684.3,359.1c0,0,9-13.3,10.3-14.3s31,16.3,34.3,21c0,0-9.3,17.3-11.7,18.3
						C715,385.1,684.3,359.1,684.3,359.1z"/>
					<path class="st69" d="M692.2,356.3c-2-2,4.1-9.5,7.2-8s13.4,6,13.2,8.6s-2.1,7-4.7,7.5S700.3,364.4,692.2,356.3z"/>
				</g>
				<path class="st67" d="M704,291.1c0,0-14,20.3-5,28.3s14.2,14.6,7.1,20.7c0,0,11.2-6.3,4.6-16.2S695.6,315.4,704,291.1z"/>
				<g>
					<path class="st62" d="M723.3,380.6c0,0-33-23.8-39-26.1c0,0-63.3,90.3-68.7,109c0,0-1,9,19,18s26.7-2.5,26.7-2.5
						S717.3,389.1,723.3,380.6z"/>
					<path class="st63" d="M685.6,358.8c0,0,15.8,9.2,18.7,13.3c2.9,4.1-57.1,97.3-64.1,101.3c-7,4.1-19.6-6.5-21.1-10.8
						S682.9,361,685.6,358.8z"/>
					<path class="st64" d="M627.6,450.8c0,0,5.8,7,7.6,6.3c1.8-0.7,54.1-80.7,55.1-83c1-2.3-5.7-7.9-8-6.6
						C680,368.8,631.9,442.3,627.6,450.8z"/>
					<path class="st65" d="M709.4,375.6c0,0-14.8,31.4-32.4,57.6c-13.9,20.7-30,41.2-33,44.6c0,0,4.3,3.8,8.7,3.1
						c0,0,45.3-61.7,62.3-101.2C714.9,379.6,712.1,376.1,709.4,375.6z"/>
				</g>
			</g>
		</g>
		<g>
			<g>
				<path class="st70" d="M111.3,251.1c14.2,1.7,21.1,10,21.1,10c5.5,1.2,18.7-1.4,18.7-1.4c2.5-5.6,12-8.2,14.5-6.1
					c2.5,2.1,4.4,9.8-6,11.4s-29.4-1.6-31.6-2.2S89.5,258,89.5,258S97.1,249.4,111.3,251.1z M164.8,259.3c1.3-2.8-1.8-4.8-5.2-3.9
					s-7.7,5.8-6.9,7.3C154.2,265.5,163.4,262.1,164.8,259.3z"/>
				<path class="st70" d="M114.4,301.6c0,0,14.8-33.6,15.4-35.7c0.6-2.2,7.5-20.2,14.1-28.3c6.6-8.1,12.3-2.6,12.8,0.6
					c0.6,3.2-6.5,10.1-12.6,9.4c0,0-8.9,10.1-10.7,15.5c0,0,3.7,10.1-2.1,23.3S114.4,301.6,114.4,301.6z M142.4,244.9
					c0.9,1.5,7.3,0.2,9.8-2.2c2.5-2.4,2.3-6.2-0.8-6.4C148.4,235.9,140.8,242.1,142.4,244.9z"/>
				<path class="st71" d="M94,256.3c0,0,31.9,4.7,34.1,4.5C130.3,260.6,111.9,246.1,94,256.3z"/>
				<path class="st71" d="M117,298.8l14.2-34.4c0,0,2.7,11-1,20.4C126.4,294.1,117,298.8,117,298.8z"/>
			</g>
			<g>
				<path class="st72" d="M168.7,247.2c0,0,7.6-8.8,17.2-8.6c8.4,0.2,36.1,10.4,46.9,13.7c10.8,3.3,31.6,12.8,36,18.3
					c4.9,6.2,5,12.3,2.2,18C268.1,294.3,162.5,267,168.7,247.2z"/>
				<g>
					<path class="st73" d="M161.6,257.4c0,0,1.3-4.5,7.1-10.1c1.8-1.8,14.9-8.7,42.8,2.8c27.9,11.5,52,19.4,57.4,27.6
						c4.9,7.4,1.4,18.4,1.4,18.4S163.4,271.7,161.6,257.4z"/>
					<path class="st70" d="M211.3,257.1c-6.2-2.8-12.9-4.6-19.5-6.2c-5.2-1.2-12.3-3.7-17.5-1.5c-0.3,0.1-0.1,0.6,0.2,0.5
						c6.3-0.4,12.6,1.4,18.7,2.9c6,1.5,11.7,3.9,17.7,5.7C211.7,258.9,212.2,257.5,211.3,257.1z"/>
					<path class="st70" d="M172.3,249.6c-1.2-0.3-2.5,0.5-3.6,0.9c-1.3,0.5-2.9,1-3.7,2.2c-0.1,0.2,0,0.4,0.2,0.4
						c1.2-0.1,2.4-0.8,3.6-1.2c1.2-0.4,2.9-0.6,3.7-1.6C172.6,250,172.5,249.7,172.3,249.6z"/>
					<path class="st70" d="M186,245c-1.4-0.3-2.9-0.3-4.4-0.2c-1.5,0.1-3.4,0.1-4.6,1.1c-0.2,0.2-0.1,0.5,0.1,0.6
						c1.1,0.5,2.4,0.1,3.6,0c1.6-0.1,3.3,0,4.9,0.1C186.5,246.6,186.9,245.2,186,245z"/>
					<path class="st70" d="M230.5,259c-6-3.1-12.8-5.1-19.2-7.5c-6.2-2.3-12.3-4.8-18.9-6c-0.4-0.1-0.7,0.6-0.3,0.8
						c2.6,1.4,5.5,2,8.3,2.8c3.2,0.9,6.3,2.3,9.4,3.5c3.3,1.3,6.6,2.4,9.9,3.7c3.3,1.3,6.7,2.9,10.2,3.6
						C230.5,260,231.1,259.3,230.5,259z"/>
					<path class="st70" d="M245.2,269.5c-4.6-2-9.5-3.5-14.3-5c-5.2-1.6-10.4-3.9-15.6-5.1c-0.3-0.1-0.6,0.3-0.3,0.5
						c4.2,2.9,9.7,4.3,14.5,5.8c2.6,0.8,5.2,1.7,7.8,2.5c2.5,0.8,5,1.9,7.7,2C245.5,270.2,245.6,269.7,245.2,269.5z"/>
					<path class="st74" d="M182.8,245.3c-0.9-0.5-3.3-0.7-4,0.3c-0.1,0.1,0,0.2,0.1,0.3c0.5,0.3,1.1,0.3,1.7,0.3
						c0.7,0,1.4,0.2,2,0.1C183,246.3,183.2,245.5,182.8,245.3z"/>
					<path class="st74" d="M204.9,249.7c-1.3-1-3-1.5-4.6-2.1c-1.6-0.6-3.1-0.9-4.9-0.8c-0.1,0-0.2,0.2-0.1,0.3
						c1.6,0.3,3.1,1,4.6,1.5c1.5,0.6,3,1.5,4.7,1.7C205,250.4,205.1,249.9,204.9,249.7z"/>
					<path class="st74" d="M189.8,251c-1.2-0.9-2.9-1.1-4.4-1.3c-1.8-0.3-3.7-0.5-5.5-0.4c-0.2,0-0.4,0.4-0.1,0.5
						c1.4,0.4,2.9,0.5,4.3,0.7c1.8,0.2,3.6,1,5.5,1.1C190,251.5,190.1,251.2,189.8,251z"/>
				</g>
			</g>
			<g>
				<path class="st70" d="M266.3,298c0.8,1.5,3.5,4.9,3.5,4.9s3.3-2.7,6.7,1.5c4.5,5.5-0.6,10.4-5.1,7c-4.5-3.4-2.8-6.4-2.9-7.1
					c-0.1-0.7-3.8-3.7-3.8-3.7C261.5,297.8,265.5,296.4,266.3,298z M275,310.2c2.4-1.8,0.4-7.7-3.9-5.5
					C266.8,306.9,272.9,311.8,275,310.2z"/>
				<g>
					<path class="st75" d="M159.9,261.4c1.2-7.5,12.1-12.5,23-10.2c10.9,2.3,61.6,20.3,74.4,26.1c12.8,5.7,15.8,12,13,18.9
						c-2.8,6.9-22.8,12.7-56.5,2.6C180.1,288.6,157,279.7,159.9,261.4z"/>
					<path class="st76" d="M164.4,266.4c2.2-7.9,9.3-13.2,48.9,0.9c39.7,14.1,55.9,17.6,54.7,29c-1.1,11.4-42.1,7.9-65.2-0.9
						C178.5,286,161.1,278.5,164.4,266.4z"/>
					<path class="st77" d="M167.1,268.6c1.6-5.8,6.8-9.7,35.9,0.6s41,12.9,40.2,21.3c-0.8,8.4-30.9,5.8-47.8-0.7
						C177.4,283,164.7,277.4,167.1,268.6z"/>
				</g>
			</g>
			<g>
				<g>
					<g>
						<path class="st70" d="M168.4,249.4c0,0-47.3-71.4-49.7-74.8c0,0,17,5.2,23.7,12c6.7,6.9,28.9,51.1,30,53.2s4.2,8,4.2,8
							S171.9,248.3,168.4,249.4z"/>
						<path class="st71" d="M164.1,239.6c0,0-33.1-51.7-35.7-54.8c0,0,6.9,0.2,11.5,4.4c4.6,4.2,28.4,47.7,28.7,49.5
							C169.1,240.5,164.1,239.6,164.1,239.6z"/>
					</g>
					<g>
						<path class="st70" d="M187.9,247.9l-0.6-15.2c0,0,2.5-1.5,3.4-0.7c0.9,0.8,0.3,16.7,0.3,16.7L187.9,247.9z"/>
						<path class="st70" d="M182.2,192.1c-0.7-1.6-0.9-3.4-0.9-5c0-4.8,6.4-6.7,4.9-12.2c-0.3-1-0.3-1-1.2-2.3
							c-0.5,4.5-5.6,9.2-6.4,13.5c-0.5,2.4,0.3,5.4,1.5,7.7c-1.4,2.1-1.5,5.2-1.2,7.5c0.2,1.6,1,3.5,2.2,5.1c-0.8,1.4-1.2,3-1.4,4.4
							c-0.4,2.6,0.8,6.1,2.9,8.6c-2.4,5,1.5,12.2,5.8,14.7c1.5,0.9,3.5-1.3,2-2.3c-2.3-1.6-6.2-6.7-5.4-10.2c2,1.3,4.3,1.5,6.6-0.1
							c5.3-3.9-3.9-7.4-7.6-4c-0.9-1.1-1.5-2.4-1.7-3.7c-0.3-1.5,0-3.1,0.4-4.5c0.1-0.4,0.2-0.7,0.4-1c0.7,0.5,1.6,0.8,2.4,0.9
							c1.9,0.2,5-0.5,4.8-3c-0.2-2.9-3.9-3-6-2.3c-0.5,0.1-1,0.4-1.4,0.7c-0.3-0.4-0.5-0.8-0.7-1.4c-1-2-1-4.4-0.4-6.5
							c0.1-0.1,0.1-0.1,0.2-0.2c1.2,1.1,2.8,1.8,4.5,1.2c1.6-0.6,4.3-2.6,2.7-4.6C187.3,191,184.5,191.1,182.2,192.1z M189,218.9
							c3.3,0.5,2.4,0.7-2.5,0.5c0.1-0.1,0.2-0.1,0.3-0.2C187.4,219.1,188.2,219,189,218.9z M184.5,194.6c0.3-0.2,0.5-0.4,0.8-0.5
							C186.4,195.1,186.2,195.3,184.5,194.6z"/>
						<g>
							<path class="st71" d="M185.2,176c0-0.2-0.2-0.4-0.3-0.2c-2,3.5-5.1,6.9-5.8,11c-0.7,4.1,1.8,8.5,5.9,9.6c0.6,0.2,1-0.6,0.5-1
								c-1.8-1.3-3.4-2.1-4.6-4.1c-1.1-1.9-0.7-4.1,0-6C182.1,182,184.4,179.4,185.2,176z"/>
							<path class="st71" d="M186.3,207c-5.4-1.1-5.2-6.3-6-10.7c0-0.3-0.5-0.3-0.5,0c-0.9,4.3,0.9,11.7,6.3,11.9
								C186.7,208.3,187,207.2,186.3,207z"/>
							<path class="st71" d="M187.3,220.5c-2.5-1.7-4.5-2.7-5.5-5.8c-0.7-2.3-0.3-4.5,0.2-6.8c0.1-0.3-0.4-0.4-0.5-0.2
								c-3,4.3-0.3,13.3,5.6,13.5C187.4,221.2,187.6,220.7,187.3,220.5z"/>
							<path class="st71" d="M189.3,232c-3-2.1-5.6-5.4-5.7-9.2c0-0.3-0.4-0.4-0.5-0.1c-1.2,4.2,2.2,8.2,5.4,10.4
								C189.3,233.6,190,232.5,189.3,232z"/>
							<path class="st71" d="M189.6,235.1c-0.1-0.3-0.6-0.4-0.7,0c-0.5,1.9-0.4,4.1-0.2,6.1c0.1,0.8,1.2,0.6,1.3-0.1
								C190.2,239.1,190.1,236.9,189.6,235.1z"/>
						</g>
					</g>
				</g>
				<g>
					<path class="st78" d="M166.2,250.7c0,0,0.8-0.5,2.3-1.1c1.5-0.6,3.9-1.3,6.9-1.8c3-0.5,6.8-0.7,11.1-0.3
						c4.3,0.4,9.1,1.4,14.1,2.9c10.1,3,21.5,7.3,33.6,12.3c6,2.5,12.2,5.2,18.5,8c3.1,1.4,6.3,2.7,9.4,4.4c0.7,0.5,1.5,0.9,2.2,1.4
						c0.7,0.6,1.4,1,2.1,1.6l1,0.9l0.9,1c0.6,0.7,1.1,1.3,1.6,2.1c0,0-0.6-0.8-1.9-2.1c-1.3-1.2-3.4-2.9-6.4-4.4
						c-1.5-0.7-3.2-1.4-5.1-2.1c-1.9-0.7-3.9-1.5-6-2.3c-4.2-1.7-9-3.5-14-5.5c-10.2-4-21.7-8.5-33.7-12.6c-1.5-0.5-3-1-4.5-1.4
						c-1.5-0.5-3-1-4.5-1.3c-3-0.8-6.1-1.4-9.2-1.7c-3.1-0.3-6.2-0.4-9.3-0.1C172,248.9,169,249.5,166.2,250.7z"/>
				</g>
			</g>
		</g>
		<g>
			<g>
				<g>
					<path class="st62" d="M587.8,111.9c0,0-20.8,3.2-21.8,5.3c-1,2.1,42.1,77.7,51.1,77.4s28.4-10.7,28.4-10.7s2-0.5,0.5,1.9
						c-1.5,2.4-20.9,14.8-29.9,15.1c-9,0.3-59.3-76-58.3-84.3s30-9,30-9S594.4,110.8,587.8,111.9z"/>
					<path class="st79" d="M575.7,111c-0.7-1.9-6.3-0.5-11.4,1.2c-5,1.7-5.2,4.8-4.6,7s22,38.9,28.8,47.8s4.6,0.4,2-3.2
						s-25.1-41-25.8-44.6s2.1-4.4,4.5-4.9S576.4,113.3,575.7,111z"/>
				</g>
				<g>
					<path class="st62" d="M642,78.6c0,0,20.3-15,23.5-13.3c3.3,1.7,44.6,79.7,43.3,84.3c-1.3,4.7-26.1,17.7-29,19.2
						c-2.9,1.5-3.1-0.8-1.5-2.5c1.5-1.7,23.2-14.5,22.9-18.6c-0.3-4.1-35.7-74.1-38.7-75.1S643,84.3,643,84.3S642,81.4,642,78.6z"/>
					<path class="st79" d="M652.3,73.2c0,0,10.4-7.5,11.9-7c2.8,0.9,20.8,35.1,25.8,44.5s1.5,12.9-0.8,8.5s-23.2-46-26.2-48
						c-2.9-2-9.4,4.4-10.8,4.6C651,76.1,650.5,74.5,652.3,73.2z"/>
				</g>
			</g>
			<g>
				<g>
					<path class="st62" d="M644.6,159.3c0,0,6.9,12.7,7.9,15.3s8-2.7,7.7-4c-0.3-1.3-6.6-14-7.8-16.3
						C651.1,151.9,644.6,156.6,644.6,159.3z"/>
					<g>
						<g>
							<path class="st80" d="M636.7,166.3c0,0-0.8-11,5.3-16c6.1-5,23.5-1.2,23.5-1.2C665.6,149,651.3,161.3,636.7,166.3z"/>
							<path class="st80" d="M655.1,149.8c0,0,7.8-2.3,4-9.5c-3.8-7.2-11.1,6.5-11.1,6.5s0.6,0.7,1.3,0.5c0.7-0.2,4.2-7.2,6.5-7
								c2.3,0.2,3.8,4.7,2.5,6C656.9,147.6,653.1,148.6,655.1,149.8z"/>
							<path class="st80" d="M641.3,158.7c0,0-4,7.1-10.2,1.7c-6.1-5.4,8.8-9.4,8.8-9.4s0.5,0.8,0.2,1.4c-0.3,0.6-7.9,2.5-8.3,4.8
								s3.7,4.8,5.3,3.8C638.8,160,640.6,156.5,641.3,158.7z"/>
						</g>
						<g>
							<path class="st81" d="M646.1,150.4c-4.2,3.5-11.2,3.5-17.1,0c-5.8-3.5-3.2-15.5-3.2-15.5s3.4,4.3,4.4,4.8c0,0-2-15.7,0-22.5
								c0,0,16.7,11.7,17.9,12.3c0,0,1-4.5,1.2-5.1C649.5,123.9,659.4,139.2,646.1,150.4z"/>
							<path class="st82" d="M645.2,149c-2.8,1.2-8,1.7-11.5-3.8l3.5-0.7c0,0-1-6,0-8.6l8,4.2c0,0,2.8-3.3,3-4.2
								C648.2,136,653,145.6,645.2,149z"/>
						</g>
						<circle class="st83" cx="636.7" cy="135.1" r="26.4"/>
					</g>
				</g>
				<g>
					<path class="st64" d="M627.1,170.8C627.1,170.8,627.1,170.8,627.1,170.8c-0.8,0-1.5-0.1-2.1-0.3c-1.2-0.4-3.3-1.1-21.5-29.1
						c-8.9-13.6-17.3-27.2-17.4-27.4l-0.6-0.9l0.4-1c6.6-15.1,46.3-31.5,54.7-31.5c1.3,0,2.2,0.3,2.8,1c1.9,2,10.8,18.5,16.3,29.1
						c14,27.1,13.8,29.6,13.7,30.4c-0.5,5.4-12.7,15.7-20.7,20C649.7,162.7,634.3,170.8,627.1,170.8z M626.4,166.7
						c0.1,0,0.4,0.1,0.7,0.1c4.5,0,15.4-4.8,23.7-9.3c9-4.9,18.2-14,18.6-16.7c-0.6-5-24.9-51.2-28.7-56.2c0,0-0.1,0-0.1,0
						c-7.3,0-43.6,15.2-50.6,28.2C605.5,137.5,623.2,164.5,626.4,166.7z"/>
				</g>
				<g>
					<path class="st84" d="M598.8,82.6c17.3-9.4,40.4-14.3,43.2-13.3c0,0,1.5,3.2,0,6.6c0,0,3.6,8.8,2.2,10.4
						c0,0-29.4,8.3-54.8,29.3c0,0-6-2.7-8.3-7.3c0,0-6.7,0.7-9-3C569.8,101.6,588.6,88.1,598.8,82.6z"/>
					<g>
						<path class="st85" d="M584.4,105.2c0,0,1.1-1.7,3.5-4.1c2.4-2.4,6.2-5.7,11.2-8.9c5-3.2,11.1-6.5,17.9-9.2
							c6.9-2.7,14.4-5,22.1-6.5c0,0-2.1,0.8-5.6,2c-3.5,1.3-8.5,3.2-14.1,5.6c-5.6,2.5-11.8,5.4-17.9,8.9c-1.6,0.8-3,1.8-4.6,2.7
							c-1.5,1-3,1.9-4.4,2.9C589.6,100.7,586.8,102.8,584.4,105.2z"/>
					</g>
					<path class="st86" d="M582.5,100.7c-2.4-1.4,2.9-8,9.1-12s18.8-10.3,26.5-13s6.2,4.1,0,5.9c-6.2,1.8-15.7,7.5-21.2,10.7
						C591.4,95.6,585.7,102.6,582.5,100.7z"/>
					<path class="st86" d="M589.5,102.7c0,0,15.2-10.5,21.5-13.3c6.3-2.8,8,5.7,8,5.7s-21.5,11.4-24.7,13.6
						C591.2,110.9,588.3,103.6,589.5,102.7z"/>
				</g>
			</g>
			<g>
				<g>
					<path class="st87" d="M634.5,200.3c0,0,5.6-12.7,22.6-22.3c17-9.7,32.3-9.3,35-9.1c2.7,0.1,31.3,41.1,32.7,43.8
						c1.3,2.7-15.7,23-30.3,31.3c-14.7,8.3-35.3,6.3-37.7,4.7C654.5,246.9,635.2,204.3,634.5,200.3z"/>
					<path class="st88" d="M641.7,200.9c3.4-5,14.1-9.4,21.4-10.9c8.4-1.7,23.2,40.8,22.4,43s-22.5,7.8-25.4,6.2
						C657.3,237.7,639.6,203.9,641.7,200.9z"/>
					<path class="st89" d="M646.6,199.5c0.6-3.6,7.4-4.3,9.2-4.3s15.9,34.5,15.7,37.2c-0.2,2.8-6.8,5-8.4,4S645.7,205,646.6,199.5z"
						/>
				</g>
				<g>
					<path class="st84" d="M639.1,177.3c0,0,29-17.3,32.3-17.3s8.3,8.9,8.3,8.9s-19.2,17.1-35.3,19.5
						C644.6,188.3,640.1,179.6,639.1,177.3z"/>
					<path class="st86" d="M648,184.9c-2.5-1-3.3-6.3-2.6-7c0.7-0.7,13-6,15.7-7.8c2.7-1.8,7.3,3.9,6.8,5.3
						C667.4,176.7,650.4,185.9,648,184.9z"/>
				</g>
				<g>
					<path class="st84" d="M691.5,236.9c9.8-5.1,29.9-24.4,29.9-29.5c0,0,2.2-1.5,3.5,0c1.3,1.5,9.6,13,9.6,14.4
						s-10.7,17.1-32.7,30.8s-40,9.3-41.7,9.3c-1.7,0-7.9-13.3-7.8-15c0.1-1.7,1.8-2.7,1.8-2.7S670.1,247.9,691.5,236.9z"/>
					<path class="st86" d="M694.5,254.3c-11.2,4.7-23.9,7.1-26.6,6.6c-3.5-0.7-8.6-10.7-7.7-11.4c0.9-0.6,17.4-2.1,24.7-5.3
						c7.3-3.2,20.3-13.8,22.3-14.7c2-0.8,6.8,9.5,6.7,10.8C713.7,241.7,699.6,252.2,694.5,254.3z"/>
				</g>
			</g>
		</g>
		<g>
			<g>
				<path class="st90" d="M493.5,237.4c0,0-1.6,4.3-0.6,9.3s7.6,14.5,23.9,16.5c16.3,2,30.5-2,34.6-6s9.1-11.2,4.1-19.8
					c0,0,1,9.3-23,13.2S493.2,246.1,493.5,237.4z"/>
				<path class="st91" d="M553.9,248.1c-0.1-0.3-0.5-0.3-0.5,0c-0.3,1.1-0.4,2.2-0.8,3.4c-0.4,1.4-1.2,2.6-1.9,3.9
					c-0.4,0.7,0.6,1.2,1,0.6C553.2,253.8,554.7,250.8,553.9,248.1z"/>
				<g>
					<path class="st90" d="M516.8,255.7c-5-1.4-7,6.3-2.2,8C519.4,265.5,523.8,257.7,516.8,255.7z"/>
					<path class="st90" d="M516.2,263.8c13,4.8,3.7,11-2.8,10.7s-15-4.2-12-8.2s10.5-2.5,10.5-2.5s1.9-5,4.3-4
						C520.1,261.6,516.2,263.8,516.2,263.8z M515.2,266.2c-4.5-1-8.8-1.1-9.5,0c-1.5,2.1-0.4,4.6,4.5,5
						C521.7,272.2,519.7,267.2,515.2,266.2z"/>
					<path class="st91" d="M508.4,264.2c-1.8-0.7-4.6,0.6-5.5,2.2c-1.2,2.1,1.1,4.9,3.1,5.3c0.3,0.1,0.4-0.3,0.2-0.5
						c-1.5-1-3.7-3.1-1.9-4.9c1.2-1.2,2.8-0.7,4.2-1.4C508.7,264.8,508.7,264.3,508.4,264.2z"/>
					<path class="st91" d="M513.9,264.3c-0.3,0-0.3,0.4-0.1,0.5c1.9,0.7,8.8,3.9,4.7,6c-2.5,1.3-5.4,0.6-8,1.3c-0.5,0.1-0.4,0.8,0,1
						c2.3,0.9,8.7,0.2,10.2-2.3C522.7,267.4,516.5,264,513.9,264.3z"/>
					<path class="st91" d="M516.7,259.2c-0.8-0.3-1.7,0-2.4,0.3c-0.3,0.1-0.1,0.6,0.2,0.6c0.5,0,1.1,0.2,1.6,0.3
						c0.4,0.1,0.8,0.2,0.9,0.7c0.2,0.9,1.5,0.5,1.4-0.4C518.2,259.9,517.5,259.4,516.7,259.2z"/>
				</g>
				<path class="st91" d="M531,262.1c-5.5,0.1-7.3-0.2-8.3-1.5s-0.5-5.3,1.1-5.1c1.5,0.2,10.6,0.2,14-0.6c4.5-1.1,12.5-4.7,13.6-5.7
					c0,0-0.2,8-5.8,10.4C540,262,535.8,262.1,531,262.1z"/>
				<path class="st92" d="M545.5,254c-1.1-0.3-2.3,0.2-3.4,0.6c-1.2,0.4-2.7,1.3-2,2.8c0.6,1.2,1.9,1.1,2.9,0.9
					c1.1-0.2,2.4-0.4,3.2-1.2C547.3,256.1,546.9,254.4,545.5,254z"/>
			</g>
			<g>
				<g>
					<circle class="st90" cx="544.9" cy="203" r="28"/>
					<path class="st93" d="M569.1,192.2c-1.7-4.1-6-9.9-10.6-10.6c-0.4-0.1-0.7,0.4-0.4,0.7c3.2,3.8,6,6.4,7.7,11.2
						c1.5,4.3,0.5,8.9,1.9,13.1c0.3,0.9,1.7,1.3,2.2,0.3C571.9,202.3,571,196.9,569.1,192.2z"/>
					<path class="st94" d="M571.7,203c0,14.9-12,26.9-26.9,26.9S518,217.8,518,203s12-26.9,26.9-26.9S571.7,188.1,571.7,203z
						 M543.7,179c-12.6,0-22.8,10.8-22.8,24c0,13.3,10.2,24,22.8,24s22.8-10.8,22.8-24C566.5,189.7,556.3,179,543.7,179z"/>
				</g>
				<g>
					<ellipse class="st95" cx="543.7" cy="203" rx="21.6" ry="22.8"/>
					<ellipse class="st96" cx="546.1" cy="200.8" rx="16.9" ry="17.8"/>
				</g>
			</g>
			<g>
				<path class="st94" d="M536.5,229.8c-19.1-2.5-33.2,0.2-39.7,4s-8.1,16.4,20,19.9c28,3.6,38.5-9.1,39.5-12.4S554,232,536.5,229.8
					z"/>
				<path class="st97" d="M535.8,230.5c-17.9-2.3-31,0.2-37.1,3.7c-6.1,3.5-7.5,15.3,18.7,18.6c26.2,3.3,36-8.5,36.9-11.6
					C555.2,238.2,552.1,232.6,535.8,230.5z"/>
				<path class="st98" d="M509.6,249.1c-0.9-1.4-3.3-1.5-4.8-1.8c-2.5-0.6-5.5-1.8-6.8-4.1c-0.1-0.2-0.4,0-0.3,0.2
					c1.1,2.4,2.4,3.8,4.9,4.9c1.8,0.8,4.9,2.5,6.8,1.7C509.6,249.9,509.7,249.4,509.6,249.1z"/>
				<path class="st98" d="M530.8,251.1c-1.5-1.2-2.9-0.6-4.7-0.4c-3.5,0.5-7-0.2-10.5,0.1c-0.3,0-0.5,0.5-0.2,0.6
					c2.4,1,5.2,1.4,7.9,1.6c2.2,0.1,5.7,0.4,7.5-1.1C531,251.7,531.1,251.3,530.8,251.1z"/>
			</g>
			<g>
				<g>
					<path class="st99" d="M518.1,249.4c22.9,2.6,32-6.2,33.3-9c-1.6-2.8-6.5-6.3-17-7.5c-16.2-1.9-27.3,1.9-32.8,4.7
						c-1.7,0.9-2.9,2.2-3.3,3.8C499.9,244.7,505.4,248,518.1,249.4z"/>
					<path class="st100" d="M519.7,245.4c17.4,2,24.4-4.7,25.4-6.9c-1.2-2.1-5-4.8-13-5.7c-12.3-1.4-20.8,1.4-25,3.6
						c-1.3,0.6-2.2,1.7-2.5,2.9C505.8,241.7,510,244.3,519.7,245.4z"/>
				</g>
				<g>
					<g>
						<path class="st3" d="M522.7,238.1c-6,1.3-18.2,5.3-18.2,5.3c5,1,13.3-0.1,21-1.7c-0.7-1.2-1.3-2.5-1.8-3.8
							C523.4,237.9,523.1,238,522.7,238.1z"/>
						<path class="st101" d="M523.8,237.9c0.5,1.3,1.1,2.6,1.8,3.8c10.1-2.1,19.3-5,19.3-5S530.4,236.7,523.8,237.9z"/>
						<path class="st102" d="M534.4,237.5c-0.7-0.3-1.3-0.1-2.1,0c-0.6,0.1-1.3,0.1-1.9,0.5c-0.3,0.2-0.3,0.4-0.2,0.7
							c0.6,1.5,3.9,1.4,4.5,0C534.9,238.3,534.9,237.7,534.4,237.5z"/>
						<path class="st103" d="M517.1,240.4c-0.7,0.1-1.4,0.5-2.1,0.6c-0.8,0.2-1.4,0.3-1.9,0.9c-0.2,0.2-0.2,0.6,0.1,0.8
							c1.4,0.7,3.7,0.3,4.8-0.7C518.7,241.3,517.9,240.2,517.1,240.4z"/>
					</g>
					<path class="st68" d="M523.9,242.6c-4,0-5.8-4.8,0-6.3C529.7,234.8,532.2,242.6,523.9,242.6z"/>
					<path class="st104" d="M525.6,236.4c-0.4-0.2-0.9-0.1-1.3,0c-0.9,0.4-0.9,1.5-0.5,2.3c0.3,0.5,1,0.9,1.6,0.7
						c0.6-0.2,1.1-0.4,1.5-1C527.5,237.6,526.6,236.4,525.6,236.4z"/>
				</g>
				<path class="st90" d="M501.6,237.6c5.5-2.8,16.6-6.6,32.8-4.7c10.5,1.2,15.4,4.7,17,7.5c0.1-0.1,0.1-0.2,0.1-0.3
					c0.8-2.5-2-7-16.8-8.7c-16.2-1.9-28.1,0.2-33.6,3c-2.6,1.3-4.2,4.1-2.8,6.9C498.6,239.8,499.9,238.5,501.6,237.6z"/>
			</g>
		</g>
		<g>
			<g>
				<g>
					<path class="st68" d="M205.6,75.5c0,0-16.7,8.7-23.7,20c0,0-79,15.7-92.3,21.7c0,0,3.7,22,7,24c0,0,77.3-21,90-25
						c0,0,21,9.7,32.7,9.3C230.9,125.2,205.6,75.5,205.6,75.5z"/>
					<path class="st105" d="M199.2,84.8c0,0-13.4,10.7-15,13.8c0,0-66.6,13.9-67.1,15.7c-0.5,1.8,0.8,8.8,6.1,8.5
						c5.3-0.3,58.7-18.3,61.5-19s17.2-1,18.5-2C204.6,100.8,199.2,84.8,199.2,84.8z"/>
				</g>
				<g>
					<path class="st106" d="M182.6,101.8c0,0-20,4-22.2,4.3c-2.2,0.3,1.8,8.3,1.8,8.3s20.8-3.7,22.2-4.7S182.6,101.8,182.6,101.8z"
						/>
					<path class="st107" d="M168.2,104.5c-1.4-0.3-6,1-7.8,1.7c-1.8,0.7,1.9,8.3,2.5,8.2s7.6-1.4,8.2-1.5
						C171.7,112.8,169.2,104.7,168.2,104.5z"/>
				</g>
			</g>
			<g>
				<path class="st108" d="M201.2,74.5c-0.2-1.5,25.4-8.3,28.1-5.1c2.1,2.6,12.8,52.3,12.4,55c-0.4,2.7-22.7,5.3-24.8,4
					C214.9,127.1,201.6,77.5,201.2,74.5z"/>
				<path class="st109" d="M205.2,78.6c-0.6-3.5,18.3-6.4,21-4.7c2.7,1.7,9.2,33.3,8.9,35.6c-0.3,2.3-17.9,5.1-19.5,3.4
					C213.9,111.2,206.2,84.2,205.2,78.6z"/>
			</g>
			<g>
				<path class="st108" d="M87.7,116.1c0,0,17.2-5.9,21.4-6.3c4.2-0.3,8.3,24.8,8,26.2c-0.3,1.3-20,6.5-21.7,6.2
					C93.7,141.8,86.5,119.8,87.7,116.1z"/>
				<path class="st109" d="M91.2,118.5c0,0,16.4-6.3,18.1-4c1.7,2.3,4,10.7,3.7,11.5c-0.3,0.8-16.7,3.1-18.7,2.8
					C92.2,128.5,90.9,121.8,91.2,118.5z"/>
			</g>
		</g>
		<path class="st61" d="M526.5,480.9c3.8-3.3,7.8-3.9,9.6-1.9s9.4,14.7,13.2,23.8s-6.5,11.8-6.5,11.8s-20.2-22.5-20.6-25.2
			C521.7,486.7,524.8,482.3,526.5,480.9z"/>
		<g>
			<g>
				<path class="st110" d="M516.7,90.2c-24-47.4-257.3-87.9-226.1,74.2C320.6,319.8,560.7,177.1,516.7,90.2z"/>
				<g>
					<path class="st110" d="M314.5,158.4c-1.3-6.7-2.1-13-2.3-18.8c-0.3,7.6,0.4,16.1,2.3,25.3c22.9,113.8,195.1,24.3,189.6-43.7
						C498.8,188.2,336.6,268.6,314.5,158.4z"/>
					<path class="st111" d="M504.1,121.2c-0.4-5-1.8-9.9-4.3-14.6c-18.3-34.6-184-64.5-187.6,33c0.2,5.8,0.9,12.1,2.3,18.8
						C336.6,268.6,498.8,188.2,504.1,121.2z"/>
					<path class="st112" d="M474.5,117.8c-0.3-3.9-1.4-7.7-3.3-11.4c-14.2-26.9-143.4-50.3-146.2,25.7c0.2,4.6,0.7,9.4,1.8,14.7
						C344,232.7,470.4,170,474.5,117.8z"/>
				</g>
				<g>
					<path class="st113" d="M519.9,98.8c-24-45.5-257.3-84.3-226.1,71.2C323.8,319.1,564,182.2,519.9,98.8z M314.5,164.9
						c-1.9-9.3-2.6-17.7-2.3-25.3c3.6-97.5,169.3-67.6,187.6-33c2.5,4.7,3.9,9.6,4.3,14.6C509.6,189.2,337.3,278.7,314.5,164.9z"/>
					<path class="st114" d="M514.5,101.2C491.6,58,269.7,21,299.4,168.9C328,310.7,556.4,180.5,514.5,101.2z M310.9,165.6
						c-1.9-9.6-2.7-18.4-2.4-26.3c3.7-101.2,175.9-70.2,194.8-34.3c2.6,4.9,4,10,4.4,15.2C513.5,190.9,334.6,283.8,310.9,165.6z"/>
					<path class="st110" d="M314.5,158.4c-1.3-6.7-2.1-13-2.3-18.8c-0.3,7.6,0.4,16.1,2.3,25.3c22.9,113.8,195.1,24.3,189.6-43.7
						C498.8,188.2,336.6,268.6,314.5,158.4z"/>
				</g>
			</g>
			<g class="st1">
				<text transform="matrix(0.9776 -0.2105 0.2105 0.9776 332.4446 135.8576)" class="st115 st116 st117">Lets`s go</text>
				<text transform="matrix(0.9776 -0.2105 0.2105 0.9776 332.4444 184.1281)" class="st115 st116 st118">Camping!</text>
			</g>
		</g>
	</g>
</g>
</svg>
