<?xml version="1.0" encoding="utf-8"?>
<!-- Generator: Adobe Illustrator 26.0.3, SVG Export Plug-In . SVG Version: 6.00 Build 0)  -->
<svg version="1.1" id="Слой_1" xmlns="http://www.w3.org/2000/svg" xmlns:xlink="http://www.w3.org/1999/xlink" x="0px" y="0px"
	 viewBox="0 0 1122 556" style="enable-background:new 0 0 1122 556;" xml:space="preserve">
<style type="text/css">
	.st0{fill:#FFFFFF;}
	.st1{fill:#616E7D;}
	.st2{fill:#AAD4C8;}
	.st3{fill:#82BFAB;}
</style>
<g id="Bg">
	<g>
		<g>
			<rect y="74" class="st0" width="1122" height="532"/>
		</g>
	</g>
</g>
<g id="Object">
	<g>
		<path class="st1" d="M677.8,86h-22.9c0-42.1-42.1-76-93.9-76c-51.9,0-93.9,34.1-93.9,76h-22.9C397,39.2,332.6,10.1,261.3,10.1
			C117,10.1,0,128.6,0,275.1C0,421.4,117,540,261.3,540c72,0,137.3-29.6,184.7-77.5h230c47.2,47.9,112.6,77.5,184.7,77.5
			c144.2,0,261.3-118.6,261.3-264.9S1005,10.2,860.7,10.2C789.3,10.1,725,39.2,677.8,86z M261.3,504.7
			C136.2,504.7,34.9,402,34.9,275.1S136.2,45.5,261.4,45.5s226.5,102.7,226.5,229.6C487.7,402,386.4,504.7,261.3,504.7z
			 M1087.1,275.1c0,126.9-101.5,229.6-226.5,229.6c-125.1,0-226.5-102.7-226.5-229.6S735.5,45.4,860.7,45.4
			C985.7,45.3,1087.1,148.3,1087.1,275.1z"/>
		<path class="st2" d="M34.8,275.1c0,126.9,101.3,229.6,226.5,229.6S487.7,402,487.7,275.1S386.3,45.4,261.1,45.4
			C136.2,45.3,34.8,148.3,34.8,275.1z M469.3,275.1c0,116.4-93.2,210.9-208,210.9s-208-94.5-208-210.9s93.2-210.9,208-210.9
			S469.3,158.6,469.3,275.1z"/>
		<path class="st3" d="M53.3,275.1c0,116.4,93.2,210.9,208,210.9s208-94.5,208-210.9s-93.2-210.9-208-210.9
			C146.3,64.2,53.3,158.6,53.3,275.1z M391.7,275.1c0,73-58.5,132.2-130.4,132.2c-72,0-130.4-59.2-130.4-132.2
			s58.5-132.2,130.4-132.2C333.3,142.9,391.7,202,391.7,275.1z"/>
		<path class="st1" d="M130.8,275.1c0,73,58.5,132.2,130.4,132.2c72,0,130.4-59.2,130.4-132.2s-58.5-132.2-130.4-132.2
			S130.8,202,130.8,275.1z M308.6,275.1c0,26.6-21.3,48.2-47.3,48.2c-26.2,0-47.5-21.6-47.5-48.2s21.3-48,47.5-48
			C287.5,226.9,308.6,248.5,308.6,275.1z M280.2,167.6c1.1,1.4,1.2,3.3,0.7,4.9l-6.4,19c-0.7,2-2.5,3.4-4.6,3.5
			c-32.7,2-63.3,18-83.9,44.1c-1.4,1.6-3.7,2.4-5.7,1.6l-18.5-6.4c-2.8-1-4.3-4.1-3.3-6.9l0.7-1.4c26.9-37.9,70.5-60.7,116.6-60.9
			C277.5,165.3,279.2,166.1,280.2,167.6z"/>
		<path class="st3" d="M159.3,226.2l-0.7,1.4c-1,2.8,0.6,6,3.3,6.9l18.5,6.4c2.1,0.7,4.3,0,5.7-1.6c20.4-26.1,50.9-42.1,83.9-44.1
			c2.1-0.1,3.9-1.5,4.6-3.5l6.4-19c0.6-1.6,0.3-3.5-0.7-4.9s-2.6-2.3-4.3-2.3C229.9,165.5,186.2,188.3,159.3,226.2z"/>
		<path class="st2" d="M213.8,275.1c0,26.6,21.3,48.2,47.5,48.2c26.2,0,47.3-21.6,47.3-48.2s-21.3-48-47.3-48
			C235,226.9,213.8,248.5,213.8,275.1z"/>
		<path class="st2" d="M634.2,275.1c0,126.9,101.3,229.6,226.5,229.6s226.5-102.7,226.5-229.6S985.5,45.4,860.6,45.4
			C735.5,45.3,634.2,148.3,634.2,275.1z M1068.6,275.1c0,116.4-93.2,210.9-208,210.9s-208-94.5-208-210.9s93.2-210.9,208-210.9
			S1068.6,158.5,1068.6,275.1z"/>
		<path class="st3" d="M652.5,275.1c0,116.4,93.2,210.9,208,210.9s208-94.5,208-210.9s-93.2-210.9-208-210.9
			S652.5,158.5,652.5,275.1z M990.9,275.1c0,73-58.4,132.2-130.4,132.2S730.2,348,730.2,275.1c0-73,58.5-132.2,130.4-132.2
			C932.7,142.9,990.9,202,990.9,275.1z"/>
		<path class="st1" d="M730.2,275.1c0,73,58.5,132.2,130.4,132.2c72,0,130.4-59.3,130.4-132.2c0-73-58.4-132.2-130.4-132.2
			C788.6,142.9,730.2,202,730.2,275.1z M908.1,275.1c0,26.6-21.3,48.2-47.5,48.2s-47.5-21.6-47.5-48.2s21.3-48,47.5-48
			C886.9,226.9,908.1,248.5,908.1,275.1z M879.6,167.6c1.1,1.4,1.2,3.3,0.7,4.9l-6.4,19c-0.7,2-2.5,3.4-4.6,3.5
			c-32.7,2-63.5,18-83.9,44.1c-1.4,1.6-3.7,2.4-5.7,1.6l-18.5-6.4c-2.8-1-4.3-4.1-3.3-6.9l0.7-1.4c26.9-37.9,70.5-60.7,116.5-60.9
			C876.9,165.3,878.5,166.1,879.6,167.6z"/>
		<path class="st3" d="M758.7,226.2l-0.7,1.4c-1,2.8,0.6,6,3.3,6.9l18.5,6.4c2.1,0.7,4.3,0,5.7-1.6c20.4-26.1,50.9-42.1,83.9-44.1
			c2.1-0.1,3.9-1.5,4.6-3.5l6.4-19c0.6-1.6,0.3-3.5-0.7-4.9s-2.6-2.3-4.3-2.3C829.2,165.5,785.6,188.3,758.7,226.2z"/>
		<path class="st2" d="M813.3,275.1c0,26.6,21.3,48.2,47.5,48.2s47.5-21.6,47.5-48.2s-21.3-48-47.5-48
			C834.4,226.9,813.3,248.5,813.3,275.1z"/>
	</g>
</g>
</svg>
